<svg fill="none" height="946" viewBox="0 0 466 946" width="466" xmlns="http://www.w3.org/2000/svg"><g fill="#ff0800" opacity=".3"><path d="m441.309 52.9212c.151 0 .303-.0378.454-.1135l63.401-36.6102c.435-.2459.567-.7946.322-1.2298-.246-.4351-.795-.5676-1.23-.3216l-63.401 36.6102c-.435.2459-.568.7946-.322 1.2298.17.2838.473.4541.776.4541z"/><path d="m444.677 57.8568c-3.217 1.8541-7.322.7568-9.195-2.4596-1.855-3.2164-.757-7.3221 2.459-9.1951 3.217-1.8542 7.322-.7568 9.195 2.4596s.757 7.322-2.459 9.1951z"/><path d="m441.309 52.9204c.303 0 .605-.1514.776-.4541.246-.4352.094-.9839-.322-1.2298l-63.401-36.6102c-.435-.246-.984-.0946-1.23.3216-.246.4352-.094.9839.322 1.2298l63.401 36.6102c.132.0757.303.1135.454.1135z"/><path d="m437.941 57.8568c3.217 1.8541 7.322.7568 9.195-2.4596 1.854-3.2164.757-7.3221-2.459-9.1951-3.217-1.8542-7.322-.7568-9.195 2.4596-1.855 3.2164-.757 7.322 2.459 9.1951z"/><path d="m374.54 21.2474c-3.216-1.8542-4.313-5.9787-2.459-9.1951 1.854-3.21642 5.978-4.31378 9.195-2.45962 3.216 1.85412 4.314 5.97872 2.459 9.19512-1.854 3.2164-5.978 4.3138-9.195 2.4596z"/><path d="m504.691 162.752c.303 0 .605-.151.776-.454.246-.435.094-.984-.322-1.229l-63.401-36.611c-.435-.246-.984-.094-1.23.322-.246.435-.094.984.322 1.23l63.401 36.61c.132.076.303.113.454.113z"/><path d="m437.922 131.079c-3.216-1.854-4.313-5.978-2.459-9.195 1.854-3.216 5.978-4.313 9.195-2.459 3.216 1.854 4.314 5.978 2.46 9.195-1.855 3.216-5.979 4.314-9.196 2.459z"/><path d="m441.29 126.14c.492 0 .889-.398.889-.89v-73.2201c0-.492-.397-.8893-.889-.8893s-.889.3973-.889.8893v73.2201c0 .492.397.89.889.89z"/><path d="m434.573 125.248c0 3.709 3.009 6.736 6.736 6.736 3.708 0 6.717-3.008 6.735-6.717 0-3.708-3.008-6.716-6.716-6.716s-6.717 3.008-6.736 6.716z"/><path d="m434.574 52.0285c0-3.7083 3.008-6.7355 6.716-6.7355s6.736 3.0082 6.736 6.7355c0 3.7272-3.009 6.7355-6.736 6.7166-3.708 0-6.716-3.0083-6.716-6.7166z"/><path d="m441.309 52.9212c.151 0 .303-.0378.454-.1135l63.382-36.6102c.435-.2459.568-.7946.322-1.2298-.246-.4351-.795-.5676-1.23-.3216l-63.382 36.6102c-.435.2459-.568.7946-.322 1.2298.171.2838.473.4541.776.4541z"/><path d="m437.941 46.2021c-3.216 1.8541-4.314 5.9787-2.459 9.1951 1.854 3.2164 5.978 4.3137 9.195 2.4596 3.216-1.8542 4.313-5.9787 2.459-9.1951s-5.978-4.3138-9.195-2.4596z"/><path d="m441.309 126.14c.492 0 .889-.398.889-.89v-73.2201c0-.492-.397-.8893-.889-.8893s-.889.3973-.889.8893v73.2201c0 .492.397.89.889.89z"/><path d="m441.309 131.964c-3.709 0-6.717-3.007-6.717-6.716 0-3.71 3.008-6.717 6.717-6.717 3.71 0 6.717 3.007 6.717 6.717 0 3.709-3.007 6.716-6.717 6.716z"/><path d="m434.574 52.0285c0-3.7083 3.008-6.7355 6.716-6.7355 3.709 0 6.717 3.0082 6.717 6.7355 0 3.7272-3.008 6.7166-6.717 6.7166-3.708 0-6.716-3.0083-6.716-6.7166z"/><path d="m377.908 162.753c.151 0 .303-.038.454-.113l63.401-36.61c.435-.246.568-.795.322-1.23s-.795-.568-1.23-.322l-63.401 36.61c-.435.246-.568.795-.322 1.23.171.284.473.454.776.454z"/><path d="m444.677 131.079c3.216-1.854 4.313-5.978 2.459-9.195-1.854-3.216-5.978-4.313-9.195-2.459-3.216 1.854-4.314 5.978-2.459 9.195 1.854 3.216 5.978 4.314 9.195 2.459z"/><path d="m381.257 167.669c-3.217 1.854-7.322.757-9.195-2.459-1.854-3.217-.757-7.322 2.459-9.195 3.217-1.855 7.322-.757 9.195 2.459 1.855 3.217.757 7.322-2.459 9.195z"/><path d="m377.908 162.752c.303 0 .605-.151.776-.454.246-.435.094-.984-.322-1.229l-63.401-36.611c-.435-.246-.984-.094-1.23.322s-.094.984.322 1.23l63.401 36.61c.132.076.303.113.454.113z"/><path d="m374.54 167.669c3.217 1.854 7.322.757 9.195-2.459 1.855-3.217.757-7.322-2.459-9.195-3.217-1.855-7.322-.757-9.195 2.459-1.854 3.217-.757 7.322 2.459 9.195z"/><path d="m311.139 131.079c-3.216-1.854-4.313-5.978-2.459-9.195 1.854-3.216 5.979-4.313 9.195-2.459s4.314 5.978 2.46 9.195c-1.855 3.216-5.979 4.314-9.196 2.459z"/><path d="m441.309 52.9204c.303 0 .605-.1514.776-.4541.246-.4352.094-.9839-.322-1.2298l-63.401-36.6102c-.435-.246-.984-.0946-1.23.3216-.246.4352-.094.9839.322 1.2298l63.401 36.6102c.132.0757.303.1135.454.1135z"/><path d="m381.257 9.61221c-3.217-1.85416-7.322-.7568-9.195 2.45959-1.854 3.2164-.757 7.3221 2.459 9.1951 3.217 1.8731 7.322.7568 9.195-2.4596 1.855-3.2164.757-7.322-2.459-9.19509z"/><path d="m444.677 46.2021c3.216 1.8541 4.313 5.9787 2.459 9.1951s-5.978 4.3137-9.195 2.4596c-3.216-1.8542-4.314-5.9787-2.459-9.1951 1.854-3.2164 5.978-4.3138 9.195-2.4596z"/><path d="m251.106 162.753c.152 0 .303-.038.454-.113l63.401-36.61c.435-.246.568-.795.322-1.23s-.795-.568-1.23-.322l-63.401 36.61c-.435.246-.567.795-.322 1.23.171.284.474.454.776.454z"/><path d="m317.875 131.079c3.216-1.854 4.314-5.978 2.46-9.195-1.855-3.216-5.979-4.313-9.196-2.459-3.216 1.854-4.313 5.978-2.459 9.195 1.854 3.216 5.979 4.314 9.195 2.459z"/><path d="m254.474 167.669c-3.216 1.854-7.322.757-9.195-2.459-1.854-3.217-.757-7.322 2.46-9.195 3.216-1.855 7.322-.757 9.195 2.459 1.854 3.217.757 7.322-2.46 9.195z"/><path d="m441.309 272.562c.151 0 .303-.038.454-.114l63.401-36.61c.435-.246.567-.795.322-1.23-.246-.435-.795-.567-1.23-.321l-63.401 36.61c-.435.246-.568.795-.322 1.23.17.283.473.454.776.454z"/><path d="m444.677 277.497c-3.217 1.855-7.322.757-9.195-2.459-1.855-3.217-.757-7.322 2.459-9.195 3.217-1.854 7.322-.757 9.195 2.459 1.873 3.217.757 7.322-2.459 9.195z"/><path d="m441.309 272.561c.303 0 .605-.151.776-.454.246-.435.094-.984-.322-1.23l-63.401-36.61c-.435-.246-.984-.095-1.23.322-.246.435-.094.983.322 1.229l63.401 36.611c.132.075.303.113.454.113z"/><path d="m437.941 277.497c3.217 1.855 7.322.757 9.195-2.459 1.854-3.217.757-7.322-2.459-9.195-3.217-1.854-7.322-.757-9.195 2.459-1.855 3.217-.757 7.322 2.459 9.195z"/><path d="m374.54 240.888c-3.216-1.854-4.313-5.979-2.459-9.195s5.978-4.314 9.195-2.46c3.216 1.854 4.314 5.979 2.459 9.195-1.854 3.217-5.978 4.314-9.195 2.46z"/><path d="m377.908 235.953c.492 0 .889-.398.889-.89v-73.201c0-.492-.397-.889-.889-.889s-.889.397-.889.889v73.201c0 .492.397.89.889.89z"/><path d="m371.173 235.06c0 3.709 3.008 6.717 6.716 6.736 3.709 0 6.736-3.008 6.736-6.717 0-3.708-3.009-6.735-6.717-6.735s-6.716 3.008-6.716 6.716z"/><path d="m371.173 161.842c0-3.709 3.008-6.717 6.716-6.717s6.717 3.008 6.717 6.736c0 3.727-3.009 6.716-6.717 6.716s-6.716-3.008-6.716-6.735z"/><path d="m377.908 162.753c.151 0 .303-.038.454-.113l63.382-36.61c.435-.246.568-.795.322-1.23s-.795-.568-1.23-.322l-63.382 36.61c-.435.246-.568.795-.322 1.23.171.284.473.454.776.454z"/><path d="m374.559 156.034c-3.216 1.854-4.314 5.979-2.459 9.195 1.854 3.217 5.978 4.314 9.195 2.46 3.216-1.854 4.313-5.979 2.459-9.195-1.854-3.217-5.978-4.314-9.195-2.46z"/><path d="m437.941 119.425c3.217-1.854 7.322-.757 9.195 2.459 1.854 3.217.757 7.322-2.459 9.195-3.217 1.855-7.322.757-9.195-2.459-1.855-3.217-.757-7.322 2.459-9.195z"/><path d="m504.71 162.752c.303 0 .605-.151.776-.454.246-.435.094-.984-.322-1.229l-63.401-36.611c-.435-.246-.984-.094-1.23.322-.246.435-.094.984.322 1.23l63.401 36.61c.132.076.302.113.454.113z"/><path d="m444.677 119.425c-3.217-1.854-7.322-.757-9.195 2.459-1.855 3.217-.757 7.322 2.459 9.195 3.217 1.855 7.322.757 9.195-2.459 1.873-3.217.757-7.322-2.459-9.195z"/><path d="m377.908 235.953c.492 0 .889-.398.889-.89v-73.201c0-.492-.397-.889-.889-.889s-.889.397-.889.889v73.201c0 .492.397.89.889.89z"/><path d="m371.191 235.06c0 3.709 3.009 6.736 6.717 6.736s6.736-3.008 6.736-6.736c0-3.727-3.009-6.716-6.736-6.716s-6.717 3.008-6.717 6.716z"/><path d="m371.191 161.842c0-3.709 3.009-6.717 6.717-6.717s6.736 3.008 6.736 6.717c0 3.708-3.009 6.735-6.736 6.735s-6.717-3.008-6.717-6.735z"/><path d="m314.507 272.562c.152 0 .303-.038.454-.114l63.401-36.61c.435-.246.568-.795.322-1.23s-.795-.567-1.23-.321l-63.401 36.61c-.435.246-.568.795-.322 1.23.171.283.473.454.776.454z"/><path d="m381.276 240.888c3.216-1.854 4.314-5.979 2.459-9.195-1.854-3.216-5.978-4.314-9.195-2.46-3.216 1.854-4.313 5.979-2.459 9.195 1.854 3.217 5.978 4.314 9.195 2.46z"/><path d="m317.875 277.497c-3.216 1.855-7.322.757-9.195-2.459-1.854-3.217-.757-7.322 2.459-9.195 3.217-1.854 7.322-.757 9.196 2.459 1.854 3.217.756 7.322-2.46 9.195z"/><path d="m314.507 272.561c.303 0 .606-.151.776-.454.246-.435.094-.984-.322-1.23l-63.401-36.61c-.435-.246-.984-.095-1.229.322-.246.435-.095.983.321 1.229l63.401 36.611c.133.075.303.113.454.113z"/><path d="m311.139 277.497c3.217 1.855 7.322.757 9.196-2.459 1.854-3.217.756-7.322-2.46-9.195-3.216-1.854-7.322-.757-9.195 2.459-1.854 3.217-.757 7.322 2.459 9.195z"/><path d="m247.739 240.888c-3.217-1.854-4.314-5.979-2.46-9.195s5.979-4.314 9.195-2.46c3.217 1.854 4.314 5.979 2.46 9.195-1.854 3.217-5.979 4.314-9.195 2.46z"/><path d="m251.106 235.953c.492 0 .89-.398.89-.89v-73.201c0-.492-.398-.889-.89-.889s-.889.397-.889.889v73.201c0 .492.397.89.889.89z"/><path d="m244.39 235.06c0 3.709 3.008 6.717 6.735 6.736 3.709 0 6.717-3.008 6.717-6.717 0-3.708-3.008-6.735-6.717-6.735-3.708 0-6.716 3.008-6.735 6.716z"/><path d="m244.39 161.842c0-3.709 3.008-6.717 6.716-6.717 3.709 0 6.736 3.008 6.736 6.736 0 3.708-3.008 6.716-6.736 6.716-3.708 0-6.716-3.008-6.716-6.735z"/><path d="m251.125 162.753c.152 0 .303-.038.454-.113l63.382-36.61c.435-.246.568-.795.322-1.23s-.795-.568-1.23-.322l-63.382 36.61c-.435.246-.568.795-.322 1.23.171.284.473.454.776.454z"/><path d="m247.758 156.034c-3.217 1.854-4.314 5.979-2.46 9.195 1.854 3.217 5.979 4.314 9.195 2.46 3.217-1.854 4.314-5.979 2.46-9.195-1.854-3.217-5.979-4.314-9.195-2.46z"/><path d="m311.139 119.425c3.217-1.854 7.322-.757 9.196 2.459 1.854 3.217.756 7.322-2.46 9.195-3.216 1.855-7.322.757-9.195-2.459-1.854-3.217-.757-7.322 2.459-9.195z"/><path d="m377.908 162.752c.303 0 .605-.151.776-.454.246-.435.094-.984-.322-1.229l-63.401-36.611c-.435-.246-.984-.094-1.23.322s-.094.984.322 1.23l63.401 36.61c.132.076.303.113.454.113z"/><path d="m317.875 119.425c-3.216-1.854-7.322-.757-9.195 2.459-1.854 3.217-.757 7.322 2.459 9.195 3.217 1.855 7.322.757 9.196-2.459 1.854-3.217.756-7.322-2.46-9.195z"/><path d="m381.276 156.034c3.216 1.854 4.314 5.979 2.459 9.195-1.854 3.217-5.978 4.314-9.195 2.46-3.216-1.854-4.313-5.979-2.459-9.195 1.854-3.217 5.978-4.314 9.195-2.46z"/><path d="m504.691 382.373c.303 0 .605-.151.776-.454.246-.435.094-.983-.322-1.229l-63.401-36.611c-.435-.246-.984-.094-1.23.322-.246.435-.094.984.322 1.23l63.401 36.61c.132.076.303.114.454.114z"/><path d="m437.922 350.701c-3.216-1.855-4.313-5.979-2.459-9.196 1.854-3.216 5.978-4.313 9.195-2.459 3.216 1.854 4.314 5.979 2.46 9.195-1.855 3.216-5.979 4.314-9.196 2.46z"/><path d="m441.29 345.784c.492 0 .889-.397.889-.889v-73.221c0-.492-.397-.889-.889-.889s-.889.397-.889.889v73.221c0 .492.397.889.889.889z"/><path d="m434.573 344.873c0 3.708 3.009 6.735 6.736 6.735 3.708 0 6.717-3.008 6.735-6.716 0-3.709-3.008-6.717-6.716-6.736-3.708 0-6.717 3.009-6.736 6.717z"/><path d="m434.574 271.673c0-3.708 3.008-6.735 6.716-6.735s6.736 3.008 6.736 6.735-3.009 6.717-6.736 6.717-6.716-3.009-6.716-6.717z"/><path d="m441.309 272.562c.151 0 .303-.038.454-.114l63.382-36.61c.435-.246.568-.795.322-1.23s-.795-.567-1.23-.321l-63.382 36.61c-.435.246-.568.795-.322 1.23.171.283.473.454.776.454z"/><path d="m437.941 265.843c-3.216 1.854-4.314 5.978-2.459 9.195 1.854 3.216 5.978 4.314 9.195 2.459 3.216-1.854 4.313-5.978 2.459-9.195-1.854-3.216-5.978-4.313-9.195-2.459z"/><path d="m441.309 345.784c.492 0 .889-.397.889-.889v-73.221c0-.492-.397-.889-.889-.889s-.889.397-.889.889v73.221c0 .492.397.889.889.889z"/><path d="m434.573 344.876c0 3.708 3.009 6.717 6.717 6.717s6.717-3.009 6.717-6.717-3.009-6.735-6.717-6.735-6.717 3.008-6.717 6.735z"/><path d="m434.573 271.673c0-3.708 3.009-6.735 6.717-6.735s6.717 3.008 6.717 6.735-3.009 6.717-6.717 6.717-6.717-3.009-6.717-6.717z"/><path d="m377.908 382.374c.151 0 .303-.037.454-.113l63.401-36.61c.435-.246.568-.795.322-1.23s-.795-.568-1.23-.322l-63.401 36.61c-.435.246-.568.795-.322 1.23.171.284.473.454.776.454z"/><path d="m444.677 350.701c3.216-1.855 4.313-5.979 2.459-9.196-1.854-3.216-5.978-4.313-9.195-2.459-3.216 1.854-4.314 5.979-2.459 9.195 1.854 3.216 5.978 4.314 9.195 2.46z"/><path d="m381.257 387.31c-3.217 1.854-7.322.757-9.195-2.46-1.854-3.216-.757-7.322 2.459-9.195 3.217-1.854 7.322-.757 9.195 2.46 1.855 3.216.757 7.322-2.459 9.195z"/><path d="m377.908 382.373c.303 0 .605-.151.776-.454.246-.435.094-.983-.322-1.229l-63.401-36.611c-.435-.246-.984-.094-1.23.322-.246.435-.094.984.322 1.23l63.401 36.61c.132.076.303.114.454.114z"/><path d="m374.54 387.31c3.217 1.854 7.322.757 9.195-2.46 1.855-3.216.757-7.322-2.459-9.195-3.217-1.854-7.322-.757-9.195 2.46-1.873 3.216-.757 7.322 2.459 9.195z"/><path d="m311.139 350.701c-3.216-1.855-4.313-5.979-2.459-9.196 1.854-3.216 5.979-4.313 9.195-2.459s4.314 5.979 2.46 9.195c-1.855 3.216-5.979 4.314-9.196 2.46z"/><path d="m314.488 345.784c.492 0 .889-.397.889-.889v-73.221c0-.492-.397-.889-.889-.889s-.889.397-.889.889v73.221c0 .492.397.889.889.889z"/><path d="m307.772 344.873c0 3.708 3.008 6.735 6.716 6.735 3.709 0 6.717-3.008 6.717-6.716 0-3.709-3.008-6.717-6.717-6.736-3.708 0-6.735 3.009-6.735 6.717z"/><path d="m307.772 271.673c0-3.708 3.008-6.735 6.735-6.735s6.717 3.008 6.717 6.735c0 3.708-3.009 6.717-6.717 6.717s-6.717-3.009-6.717-6.717z"/><path d="m314.507 272.562c.152 0 .303-.038.454-.114l63.382-36.61c.435-.246.568-.795.322-1.23s-.795-.567-1.23-.321l-63.382 36.61c-.435.246-.567.795-.321 1.23.17.283.473.454.775.454z"/><path d="m311.139 265.843c-3.216 1.854-4.313 5.978-2.459 9.195 1.854 3.216 5.979 4.314 9.195 2.459 3.216-1.854 4.314-5.978 2.46-9.195-1.855-3.216-5.979-4.313-9.196-2.459z"/><path d="m374.54 229.233c3.217-1.854 7.322-.756 9.195 2.46 1.855 3.216.757 7.322-2.459 9.195-3.217 1.854-7.322.757-9.195-2.46-1.854-3.216-.757-7.322 2.459-9.195z"/><path d="m441.309 272.561c.303 0 .605-.151.776-.454.246-.435.094-.984-.322-1.23l-63.401-36.61c-.435-.246-.984-.095-1.23.322-.246.435-.094.983.322 1.229l63.401 36.611c.132.075.303.113.454.113z"/><path d="m381.257 229.233c-3.217-1.854-7.322-.756-9.195 2.46-1.854 3.216-.757 7.322 2.459 9.195 3.217 1.854 7.322.757 9.195-2.46 1.855-3.216.757-7.322-2.459-9.195z"/><path d="m444.677 265.843c3.216 1.854 4.313 5.978 2.459 9.195-1.854 3.216-5.978 4.314-9.195 2.459-3.216-1.854-4.314-5.978-2.459-9.195 1.854-3.216 5.978-4.313 9.195-2.459z"/><path d="m314.507 345.784c.492 0 .889-.397.889-.889v-73.221c0-.492-.397-.889-.889-.889s-.889.397-.889.889v73.221c0 .492.397.889.889.889z"/><path d="m307.791 344.876c0 3.708 3.008 6.717 6.735 6.717s6.717-3.009 6.717-6.717-3.009-6.735-6.717-6.735-6.735 3.008-6.735 6.735z"/><path d="m307.791 271.673c0-3.708 3.008-6.735 6.735-6.735s6.717 3.008 6.717 6.735-3.009 6.717-6.717 6.717-6.735-3.009-6.735-6.717z"/><path d="m251.106 382.374c.152 0 .303-.037.454-.113l63.401-36.61c.435-.246.568-.795.322-1.23s-.795-.568-1.23-.322l-63.401 36.61c-.435.246-.567.795-.322 1.23.171.284.474.454.776.454z"/><path d="m317.875 350.701c3.216-1.855 4.314-5.979 2.46-9.196-1.855-3.216-5.979-4.313-9.196-2.459-3.216 1.854-4.313 5.979-2.459 9.195s5.979 4.314 9.195 2.46z"/><path d="m254.474 387.31c-3.216 1.854-7.322.757-9.195-2.46-1.854-3.216-.757-7.322 2.459-9.195 3.217-1.854 7.322-.757 9.196 2.46 1.873 3.216.756 7.322-2.46 9.195z"/><path d="m251.106 382.373c.303 0 .606-.151.776-.454.246-.435.095-.983-.322-1.229l-63.401-36.611c-.435-.246-.983-.094-1.229.322-.246.435-.095.984.321 1.23l63.401 36.61c.133.076.303.114.454.114z"/><path d="m247.739 387.31c3.216 1.854 7.322.757 9.195-2.46 1.854-3.216.757-7.322-2.46-9.195-3.216-1.854-7.322-.757-9.195 2.46-1.854 3.216-.757 7.322 2.46 9.195z"/><path d="m184.338 350.701c-3.217-1.855-4.314-5.979-2.46-9.196 1.854-3.216 5.979-4.313 9.195-2.459 3.217 1.854 4.314 5.979 2.46 9.195s-5.979 4.314-9.195 2.46z"/><path d="m187.705 345.784c.492 0 .889-.397.889-.889v-73.221c0-.492-.397-.889-.889-.889s-.889.397-.889.889v73.221c0 .492.397.889.889.889z"/><path d="m180.97 344.873c0 3.708 3.008 6.735 6.716 6.735 3.709 0 6.717-3.008 6.717-6.716 0-3.709-3.008-6.717-6.717-6.736-3.708 0-6.716 3.009-6.716 6.717z"/><path d="m180.97 271.673c0-3.708 3.008-6.735 6.716-6.735 3.709 0 6.736 3.008 6.736 6.735s-3.008 6.717-6.736 6.717c-3.727 0-6.716-3.009-6.716-6.717z"/><path d="m187.724 272.562c.152 0 .303-.038.454-.114l63.382-36.61c.436-.246.568-.795.322-1.23s-.795-.567-1.23-.321l-63.382 36.61c-.435.246-.567.795-.321 1.23.17.283.473.454.775.454z"/><path d="m184.357 265.843c-3.217 1.854-4.314 5.978-2.46 9.195 1.854 3.216 5.979 4.314 9.195 2.459 3.216-1.854 4.314-5.978 2.46-9.195-1.855-3.216-5.979-4.313-9.195-2.459z"/><path d="m247.739 229.233c3.216-1.854 7.322-.756 9.195 2.46 1.854 3.216.757 7.322-2.46 9.195-3.216 1.854-7.322.757-9.195-2.46-1.854-3.216-.757-7.322 2.46-9.195z"/><path d="m314.507 272.561c.303 0 .606-.151.776-.454.246-.435.094-.984-.322-1.23l-63.401-36.61c-.435-.246-.984-.095-1.229.322-.246.435-.095.983.321 1.229l63.401 36.611c.133.075.303.113.454.113z"/><path d="m254.474 229.233c-3.216-1.854-7.322-.756-9.195 2.46-1.854 3.216-.757 7.322 2.459 9.195 3.217 1.854 7.322.757 9.196-2.46 1.873-3.216.756-7.322-2.46-9.195z"/><path d="m317.875 265.843c3.216 1.854 4.314 5.978 2.46 9.195-1.855 3.216-5.979 4.314-9.196 2.459-3.216-1.854-4.313-5.978-2.459-9.195 1.854-3.216 5.979-4.313 9.195-2.459z"/><path d="m441.309 492.205c.303 0 .605-.151.776-.454.246-.435.094-.983-.322-1.229l-63.401-36.611c-.435-.246-.984-.094-1.23.322-.246.435-.094.984.322 1.23l63.401 36.61c.132.076.303.114.454.114z"/><path d="m437.941 497.122c3.217 1.855 7.322.757 9.195-2.459 1.854-3.217.757-7.322-2.459-9.195-3.217-1.854-7.322-.757-9.195 2.459-1.855 3.217-.757 7.322 2.459 9.195z"/><path d="m374.54 460.513c-3.216-1.854-4.313-5.979-2.459-9.195 1.854-3.217 5.978-4.314 9.195-2.46 3.216 1.854 4.314 5.979 2.459 9.195-1.854 3.217-5.978 4.314-9.195 2.46z"/><path d="m377.908 455.597c.492 0 .889-.398.889-.89v-73.22c0-.492-.397-.889-.889-.889s-.889.397-.889.889v73.22c0 .492.397.89.889.89z"/><path d="m371.173 454.705c0 3.708 3.008 6.716 6.716 6.735 3.709 0 6.736-3.008 6.736-6.735s-3.009-6.717-6.717-6.717-6.716 3.009-6.716 6.717z"/><path d="m371.173 381.486c0-3.709 3.008-6.736 6.716-6.736s6.717 3.008 6.717 6.736c0 3.727-3.009 6.716-6.717 6.716s-6.716-3.008-6.716-6.716z"/><path d="m377.908 382.374c.151 0 .303-.037.454-.113l63.382-36.61c.435-.246.568-.795.322-1.23s-.795-.568-1.23-.322l-63.382 36.61c-.435.246-.568.795-.322 1.23.171.284.473.454.776.454z"/><path d="m374.559 375.655c-3.216 1.854-4.314 5.979-2.459 9.195 1.854 3.217 5.978 4.314 9.195 2.46 3.216-1.854 4.313-5.979 2.459-9.195-1.854-3.217-5.978-4.314-9.195-2.46z"/><path d="m437.941 339.046c3.217-1.854 7.322-.757 9.195 2.459 1.854 3.217.757 7.322-2.459 9.196-3.217 1.854-7.322.756-9.195-2.46-1.855-3.216-.757-7.322 2.459-9.195z"/><path d="m504.71 382.373c.303 0 .605-.151.776-.454.246-.435.094-.983-.322-1.229l-63.401-36.611c-.435-.246-.984-.094-1.23.322-.246.435-.094.984.322 1.23l63.401 36.61c.132.076.302.114.454.114z"/><path d="m444.677 339.046c-3.217-1.854-7.322-.757-9.195 2.459-1.855 3.217-.757 7.322 2.459 9.196 3.217 1.854 7.322.756 9.195-2.46s.757-7.322-2.459-9.195z"/><path d="m377.908 455.597c.492 0 .889-.398.889-.89v-73.22c0-.492-.397-.889-.889-.889s-.889.397-.889.889v73.22c0 .492.397.89.889.89z"/><path d="m371.191 454.705c0 3.708 3.009 6.735 6.717 6.735s6.736-3.008 6.736-6.735-3.009-6.717-6.736-6.717-6.717 3.009-6.717 6.717z"/><path d="m371.191 381.486c0-3.709 3.009-6.736 6.717-6.736s6.736 3.008 6.736 6.736c0 3.727-3.009 6.716-6.736 6.716s-6.717-3.008-6.717-6.716z"/><path d="m314.507 492.202c.152 0 .303-.037.454-.113l63.401-36.61c.435-.246.568-.795.322-1.23s-.795-.568-1.23-.322l-63.401 36.611c-.435.245-.568.794-.322 1.229.171.284.473.454.776.454z"/><path d="m381.276 460.513c3.216-1.854 4.314-5.979 2.459-9.195-1.854-3.217-5.978-4.314-9.195-2.46-3.216 1.854-4.313 5.979-2.459 9.195 1.854 3.217 5.978 4.314 9.195 2.46z"/><path d="m317.875 497.122c-3.216 1.855-7.322.757-9.195-2.459-1.854-3.217-.757-7.322 2.459-9.195 3.217-1.854 7.322-.757 9.196 2.459 1.854 3.217.756 7.322-2.46 9.195z"/><path d="m314.507 492.205c.303 0 .606-.151.776-.454.246-.435.094-.983-.322-1.229l-63.401-36.611c-.435-.246-.984-.094-1.229.322-.246.435-.095.984.321 1.23l63.401 36.61c.133.076.303.114.454.114z"/><path d="m311.139 497.122c3.217 1.855 7.322.757 9.196-2.459 1.854-3.217.756-7.322-2.46-9.195-3.216-1.854-7.322-.757-9.195 2.459-1.854 3.217-.757 7.322 2.459 9.195z"/><path d="m247.739 460.513c-3.217-1.854-4.314-5.979-2.46-9.195 1.854-3.217 5.979-4.314 9.195-2.46 3.217 1.854 4.314 5.979 2.46 9.195-1.854 3.217-5.979 4.314-9.195 2.46z"/><path d="m251.106 455.597c.492 0 .89-.398.89-.89v-73.22c0-.492-.398-.889-.89-.889s-.889.397-.889.889v73.22c0 .492.397.89.889.89z"/><path d="m244.39 454.705c0 3.708 3.008 6.716 6.735 6.735 3.709 0 6.717-3.008 6.717-6.735 0-3.708-3.008-6.717-6.717-6.717-3.708 0-6.716 3.009-6.735 6.717z"/><path d="m244.39 381.486c0-3.709 3.008-6.736 6.716-6.736 3.709 0 6.736 3.008 6.736 6.736 0 3.708-3.008 6.716-6.736 6.716-3.727 0-6.716-3.008-6.716-6.716z"/><path d="m251.125 382.374c.152 0 .303-.037.454-.113l63.382-36.61c.435-.246.568-.795.322-1.23s-.795-.568-1.23-.322l-63.382 36.61c-.435.246-.568.795-.322 1.23.171.284.473.454.776.454z"/><path d="m247.758 375.655c-3.217 1.854-4.314 5.979-2.46 9.195 1.854 3.217 5.979 4.314 9.195 2.46 3.217-1.854 4.314-5.979 2.46-9.195-1.854-3.217-5.979-4.314-9.195-2.46z"/><path d="m311.139 339.046c3.217-1.854 7.322-.757 9.196 2.459 1.854 3.217.756 7.322-2.46 9.196-3.216 1.854-7.322.756-9.195-2.46-1.854-3.216-.757-7.322 2.459-9.195z"/><path d="m377.908 382.373c.303 0 .605-.151.776-.454.246-.435.094-.983-.322-1.229l-63.401-36.611c-.435-.246-.984-.094-1.23.322-.246.435-.094.984.322 1.23l63.401 36.61c.132.076.303.114.454.114z"/><path d="m317.875 339.046c-3.216-1.854-7.322-.757-9.195 2.459-1.854 3.217-.757 7.322 2.459 9.196 3.217 1.854 7.322.756 9.196-2.46 1.854-3.216.756-7.322-2.46-9.195z"/><path d="m381.276 375.655c3.216 1.854 4.314 5.979 2.459 9.195-1.854 3.217-5.978 4.314-9.195 2.46-3.216-1.854-4.313-5.979-2.459-9.195 1.854-3.217 5.978-4.314 9.195-2.46z"/><path d="m441.29 565.405c.492 0 .889-.397.889-.889v-73.221c0-.491-.397-.889-.889-.889s-.889.398-.889.889v73.221c0 .492.397.889.889.889z"/><path d="m434.573 564.513c0 3.709 3.009 6.736 6.736 6.736s6.717-3.008 6.735-6.717c0-3.708-3.008-6.735-6.716-6.735s-6.717 3.008-6.736 6.716z"/><path d="m434.574 491.295c0-3.709 3.008-6.717 6.716-6.717s6.736 3.008 6.736 6.736c0 3.727-3.009 6.716-6.736 6.716s-6.716-3.008-6.716-6.735z"/><path d="m441.309 565.405c.492 0 .889-.397.889-.889v-73.221c0-.491-.397-.889-.889-.889s-.889.398-.889.889v73.221c0 .492.397.889.889.889z"/><path d="m434.573 564.517c0 3.708 3.009 6.716 6.717 6.716s6.717-3.008 6.717-6.716c0-3.709-3.009-6.736-6.717-6.736s-6.717 3.009-6.717 6.736z"/><path d="m434.573 491.295c0-3.709 3.009-6.717 6.717-6.717s6.717 3.008 6.717 6.717c0 3.708-3.009 6.735-6.717 6.735s-6.717-3.008-6.717-6.735z"/><path d="m377.908 602.019c.151 0 .303-.038.454-.114l63.401-36.61c.435-.246.568-.795.322-1.23-.246-.416-.795-.568-1.23-.322l-63.401 36.611c-.435.246-.568.794-.322 1.229.171.284.473.455.776.455z"/><path d="m444.677 570.345c3.216-1.854 4.313-5.979 2.459-9.195s-5.978-4.314-9.195-2.46c-3.216 1.855-4.314 5.979-2.459 9.195 1.854 3.217 5.978 4.314 9.195 2.46z"/><path d="m381.257 606.954c-3.217 1.855-7.322.757-9.195-2.459-1.854-3.217-.757-7.322 2.459-9.195 3.217-1.854 7.322-.757 9.195 2.459 1.855 3.217.757 7.322-2.459 9.195z"/><path d="m377.908 602.018c.303 0 .605-.151.776-.454.246-.435.094-.984-.322-1.23l-63.401-36.61c-.435-.246-.984-.095-1.23.322-.246.435-.094.983.322 1.229l63.401 36.611c.132.075.303.113.454.113z"/><path d="m374.54 606.954c3.217 1.855 7.322.757 9.195-2.459 1.855-3.217.757-7.322-2.459-9.195-3.217-1.854-7.322-.757-9.195 2.459-1.873 3.217-.757 7.322 2.459 9.195z"/><path d="m311.139 570.345c-3.216-1.854-4.313-5.979-2.459-9.195s5.979-4.314 9.195-2.46c3.216 1.855 4.314 5.979 2.46 9.195-1.855 3.217-5.979 4.314-9.196 2.46z"/><path d="m314.488 565.405c.492 0 .889-.397.889-.889v-73.221c0-.491-.397-.889-.889-.889s-.889.398-.889.889v73.221c0 .492.397.889.889.889z"/><path d="m307.772 564.513c0 3.709 3.008 6.736 6.716 6.736 3.709 0 6.717-3.008 6.717-6.717 0-3.708-3.008-6.735-6.717-6.735-3.708 0-6.735 3.008-6.735 6.716z"/><path d="m307.772 491.295c0-3.709 3.008-6.717 6.735-6.717s6.717 3.008 6.717 6.736c0 3.708-3.009 6.716-6.717 6.716s-6.717-3.008-6.717-6.735z"/><path d="m314.507 492.206c.152 0 .303-.037.454-.113l63.382-36.61c.435-.246.568-.795.322-1.23s-.795-.568-1.23-.322l-63.382 36.61c-.435.246-.567.795-.321 1.23.17.284.473.454.775.454z"/><path d="m311.139 485.487c-3.216 1.854-4.313 5.979-2.459 9.195 1.854 3.217 5.979 4.314 9.195 2.46s4.314-5.979 2.46-9.195c-1.855-3.217-5.979-4.314-9.196-2.46z"/><path d="m374.54 448.878c3.217-1.854 7.322-.757 9.195 2.459 1.855 3.217.757 7.322-2.459 9.196-3.217 1.854-7.322.756-9.195-2.46s-.757-7.322 2.459-9.195z"/><path d="m441.309 492.205c.303 0 .605-.151.776-.454.246-.435.094-.983-.322-1.229l-63.401-36.611c-.435-.246-.984-.094-1.23.322-.246.435-.094.984.322 1.23l63.401 36.61c.132.076.303.114.454.114z"/><path d="m381.257 448.878c-3.217-1.854-7.322-.757-9.195 2.459-1.854 3.217-.757 7.322 2.459 9.196 3.217 1.854 7.322.756 9.195-2.46 1.855-3.216.757-7.322-2.459-9.195z"/><path d="m444.677 485.487c3.216 1.854 4.313 5.979 2.459 9.195-1.854 3.217-5.978 4.314-9.195 2.46-3.216-1.854-4.314-5.979-2.459-9.195 1.854-3.217 5.978-4.314 9.195-2.46z"/><path d="m314.507 565.405c.492 0 .889-.397.889-.889v-73.221c0-.491-.397-.889-.889-.889s-.889.398-.889.889v73.221c0 .492.397.889.889.889z"/><path d="m307.791 564.517c0 3.708 3.008 6.716 6.735 6.716s6.717-3.008 6.717-6.716c0-3.709-3.009-6.736-6.717-6.736s-6.735 3.009-6.735 6.736z"/><path d="m307.791 491.295c0-3.709 3.008-6.717 6.735-6.717s6.717 3.008 6.717 6.717c0 3.708-3.009 6.735-6.717 6.735s-6.735-3.008-6.735-6.735z"/><path d="m251.106 602.019c.152 0 .303-.038.454-.114l63.401-36.61c.435-.246.568-.795.322-1.23-.246-.416-.795-.568-1.23-.322l-63.401 36.611c-.435.246-.567.794-.322 1.229.171.284.474.455.776.455z"/><path d="m317.875 570.345c3.216-1.854 4.314-5.979 2.46-9.195-1.855-3.216-5.979-4.314-9.196-2.46-3.216 1.855-4.313 5.979-2.459 9.195 1.854 3.217 5.979 4.314 9.195 2.46z"/><path d="m254.474 606.954c-3.216 1.855-7.322.757-9.195-2.459-1.854-3.217-.757-7.322 2.459-9.195 3.217-1.854 7.322-.757 9.196 2.459 1.873 3.217.756 7.322-2.46 9.195z"/><path d="m187.705 565.405c.492 0 .889-.397.889-.889v-73.221c0-.491-.397-.889-.889-.889s-.889.398-.889.889v73.221c0 .492.397.889.889.889z"/><path d="m180.97 564.513c0 3.709 3.008 6.736 6.716 6.736 3.709 0 6.717-3.008 6.717-6.717 0-3.708-3.008-6.735-6.717-6.735-3.708 0-6.716 3.008-6.716 6.716z"/><path d="m180.97 491.295c0-3.709 3.008-6.717 6.716-6.717 3.709 0 6.736 3.008 6.736 6.736 0 3.727-3.008 6.716-6.736 6.716-3.727 0-6.716-3.008-6.716-6.735z"/><path d="m187.724 492.206c.152 0 .303-.037.454-.113l63.382-36.61c.436-.246.568-.795.322-1.23s-.795-.568-1.23-.322l-63.382 36.61c-.435.246-.567.795-.321 1.23.17.284.473.454.775.454z"/><path d="m184.357 485.487c-3.217 1.854-4.314 5.979-2.46 9.195 1.854 3.217 5.979 4.314 9.195 2.46s4.314-5.979 2.46-9.195c-1.855-3.217-5.979-4.314-9.195-2.46z"/><path d="m247.739 448.878c3.216-1.854 7.322-.757 9.195 2.459 1.854 3.217.757 7.322-2.46 9.196-3.216 1.854-7.322.756-9.195-2.46-1.854-3.216-.757-7.322 2.46-9.195z"/><path d="m377.908 675.218c.492 0 .889-.398.889-.89v-73.22c0-.492-.397-.889-.889-.889s-.889.397-.889.889v73.22c0 .492.397.89.889.89z"/><path d="m371.173 674.33c0 3.708 3.008 6.735 6.716 6.735 3.709 0 6.736-3.008 6.736-6.716s-3.009-6.717-6.717-6.736c-3.708 0-6.716 3.009-6.716 6.717z"/><path d="m371.173 601.127c0-3.709 3.008-6.717 6.716-6.717s6.717 3.008 6.717 6.736c0 3.727-3.009 6.716-6.717 6.716s-6.716-3.008-6.716-6.735z"/><path d="m377.908 602.019c.151 0 .303-.038.454-.114l63.382-36.61c.435-.246.568-.795.322-1.23-.246-.416-.795-.568-1.23-.322l-63.382 36.611c-.435.246-.568.794-.322 1.229.171.284.473.455.776.455z"/><path d="m374.559 595.3c-3.216 1.854-4.314 5.978-2.459 9.195 1.854 3.216 5.978 4.314 9.195 2.459 3.216-1.854 4.313-5.978 2.459-9.195-1.854-3.216-5.978-4.313-9.195-2.459z"/><path d="m437.941 558.69c3.217-1.854 7.322-.756 9.195 2.46 1.854 3.216.757 7.322-2.459 9.195-3.217 1.854-7.322.757-9.195-2.46-1.855-3.216-.757-7.322 2.459-9.195z"/><path d="m377.908 675.218c.492 0 .889-.398.889-.89v-73.22c0-.492-.397-.889-.889-.889s-.889.397-.889.889v73.22c0 .492.397.89.889.89z"/><path d="m371.191 674.329c0 3.709 3.009 6.717 6.717 6.717s6.736-3.008 6.736-6.717c0-3.708-3.009-6.735-6.736-6.735s-6.717 3.008-6.717 6.735z"/><path d="m371.191 601.126c0-3.708 3.009-6.735 6.717-6.735s6.736 3.008 6.736 6.735-3.009 6.717-6.736 6.717-6.717-3.009-6.717-6.717z"/><path d="m314.507 711.828c.152 0 .303-.038.454-.114l63.401-36.61c.435-.246.568-.795.322-1.23s-.795-.568-1.23-.322l-63.401 36.611c-.435.245-.568.794-.322 1.229.171.284.473.454.776.454z"/><path d="m381.276 680.154c3.216-1.855 4.314-5.979 2.459-9.195-1.854-3.217-5.978-4.314-9.195-2.46-3.216 1.854-4.313 5.979-2.459 9.195s5.978 4.314 9.195 2.46z"/><path d="m317.875 716.763c-3.216 1.854-7.322.757-9.195-2.46-1.854-3.216-.757-7.322 2.459-9.195 3.217-1.854 7.322-.756 9.196 2.46 1.854 3.216.756 7.322-2.46 9.195z"/><path d="m314.507 711.827c.303 0 .606-.152.776-.454.246-.436.094-.984-.322-1.23l-63.401-36.61c-.435-.246-.984-.095-1.229.321-.246.435-.095.984.321 1.23l63.401 36.61c.133.076.303.114.454.114z"/><path d="m311.139 716.764c3.217 1.854 7.322.756 9.196-2.46 1.854-3.216.756-7.322-2.46-9.195s-7.322-.757-9.195 2.46c-1.854 3.216-.757 7.322 2.459 9.195z"/><path d="m247.739 680.154c-3.217-1.855-4.314-5.979-2.46-9.195 1.854-3.217 5.979-4.314 9.195-2.46 3.217 1.854 4.314 5.979 2.46 9.195s-5.979 4.314-9.195 2.46z"/><path d="m251.106 675.218c.492 0 .89-.398.89-.89v-73.22c0-.492-.398-.889-.89-.889s-.889.397-.889.889v73.22c0 .492.397.89.889.89z"/><path d="m244.39 674.33c0 3.708 3.008 6.735 6.735 6.735s6.717-3.008 6.717-6.716-3.008-6.717-6.717-6.736c-3.708 0-6.716 3.009-6.735 6.717z"/><path d="m244.39 601.127c0-3.709 3.008-6.717 6.716-6.717 3.709 0 6.736 3.008 6.736 6.736 0 3.708-3.008 6.716-6.736 6.716-3.727 0-6.716-3.008-6.716-6.735z"/><path d="m251.125 602.019c.152 0 .303-.038.454-.114l63.382-36.61c.435-.246.568-.795.322-1.23-.246-.416-.795-.568-1.23-.322l-63.382 36.611c-.435.246-.568.794-.322 1.229.171.284.473.455.776.455z"/><path d="m247.758 595.3c-3.217 1.854-4.314 5.978-2.46 9.195 1.854 3.216 5.979 4.314 9.195 2.459 3.217-1.854 4.314-5.978 2.46-9.195-1.854-3.216-5.979-4.313-9.195-2.459z"/><path d="m311.139 558.69c3.217-1.854 7.322-.756 9.196 2.46 1.854 3.216.756 7.322-2.46 9.195-3.216 1.854-7.322.757-9.195-2.46-1.854-3.216-.757-7.322 2.459-9.195z"/><path d="m377.908 602.018c.303 0 .605-.151.776-.454.246-.435.094-.984-.322-1.23l-63.401-36.61c-.435-.246-.984-.095-1.23.322-.246.435-.094.983.322 1.229l63.401 36.611c.132.075.303.113.454.113z"/><path d="m317.875 558.69c-3.216-1.854-7.322-.756-9.195 2.46-1.854 3.216-.757 7.322 2.459 9.195 3.217 1.854 7.322.757 9.196-2.46 1.854-3.216.756-7.322-2.46-9.195z"/><path d="m381.276 595.3c3.216 1.854 4.314 5.978 2.459 9.195-1.854 3.216-5.978 4.314-9.195 2.459-3.216-1.854-4.313-5.978-2.459-9.195 1.854-3.216 5.978-4.313 9.195-2.459z"/><path d="m314.488 785.05c.492 0 .889-.398.889-.89v-73.22c0-.492-.397-.889-.889-.889s-.889.397-.889.889v73.22c0 .492.397.89.889.89z"/><path d="m307.772 784.158c0 3.708 3.008 6.717 6.716 6.735 3.709 0 6.717-3.008 6.717-6.735s-3.008-6.717-6.717-6.717c-3.708 0-6.735 3.009-6.735 6.717z"/><path d="m307.772 710.939c0-3.708 3.008-6.735 6.735-6.716 3.708 0 6.717 3.008 6.717 6.735 0 3.709-3.009 6.717-6.717 6.717s-6.717-3.008-6.717-6.717z"/><path d="m314.507 711.828c.152 0 .303-.038.454-.114l63.382-36.61c.435-.246.568-.795.322-1.23s-.795-.568-1.23-.322l-63.382 36.611c-.435.245-.567.794-.321 1.229.17.284.473.454.775.454z"/><path d="m311.139 705.108c-3.216 1.854-4.313 5.979-2.459 9.195 1.854 3.217 5.979 4.314 9.195 2.46s4.314-5.979 2.46-9.195c-1.855-3.216-5.979-4.314-9.196-2.46z"/><path d="m374.54 668.499c3.217-1.854 7.322-.757 9.195 2.46 1.855 3.216.757 7.322-2.459 9.195-3.217 1.854-7.322.756-9.195-2.46-1.854-3.216-.757-7.322 2.459-9.195z"/><path d="m314.507 785.05c.492 0 .889-.398.889-.89v-73.22c0-.492-.397-.889-.889-.889s-.889.397-.889.889v73.22c0 .492.397.89.889.89z"/><path d="m307.791 784.158c0 3.708 3.008 6.735 6.735 6.735s6.717-3.008 6.717-6.735-3.009-6.717-6.717-6.717-6.735 3.009-6.735 6.717z"/><path d="m307.791 710.939c0-3.708 3.008-6.716 6.735-6.716s6.717 3.008 6.717 6.716c0 3.709-3.009 6.717-6.717 6.717s-6.735-3.008-6.735-6.717z"/><path d="m251.106 821.656c.152 0 .303-.038.454-.114l63.401-36.61c.435-.246.568-.795.322-1.23s-.795-.568-1.23-.322l-63.401 36.611c-.435.246-.567.794-.322 1.229.171.284.474.455.776.455z"/><path d="m317.875 789.966c3.216-1.854 4.314-5.979 2.46-9.195-1.855-3.216-5.979-4.314-9.196-2.46-3.216 1.855-4.313 5.979-2.459 9.196 1.854 3.216 5.979 4.313 9.195 2.459z"/><path d="m254.474 826.576c-3.216 1.854-7.322.756-9.195-2.46-1.854-3.216-.757-7.322 2.459-9.195 3.217-1.854 7.322-.757 9.196 2.459 1.873 3.217.756 7.322-2.46 9.196z"/><path d="m251.106 821.659c.303 0 .606-.152.776-.454.246-.436.095-.984-.322-1.23l-63.401-36.61c-.435-.246-.983-.095-1.229.321-.246.435-.095.984.321 1.23l63.401 36.61c.133.076.303.114.454.114z"/><path d="m247.739 826.576c3.216 1.854 7.322.756 9.195-2.46 1.854-3.216.757-7.322-2.46-9.195-3.216-1.854-7.322-.757-9.195 2.459-1.854 3.217-.757 7.322 2.46 9.196z"/><path d="m184.338 789.966c-3.217-1.854-4.314-5.979-2.46-9.195s5.979-4.314 9.195-2.46c3.217 1.855 4.314 5.979 2.46 9.196-1.854 3.216-5.979 4.313-9.195 2.459z"/><path d="m187.705 785.05c.492 0 .889-.398.889-.89v-73.22c0-.492-.397-.889-.889-.889s-.889.397-.889.889v73.22c0 .492.397.89.889.89z"/><path d="m180.97 784.158c0 3.708 3.008 6.717 6.716 6.735 3.709 0 6.717-3.008 6.717-6.735s-3.008-6.717-6.717-6.717c-3.708 0-6.716 3.009-6.716 6.717z"/><path d="m180.97 710.939c0-3.708 3.008-6.735 6.716-6.716 3.709 0 6.736 3.008 6.736 6.735 0 3.728-3.008 6.717-6.736 6.717-3.727 0-6.716-3.008-6.716-6.717z"/><path d="m187.724 711.828c.152 0 .303-.038.454-.114l63.382-36.61c.436-.246.568-.795.322-1.23s-.795-.568-1.23-.322l-63.382 36.611c-.435.245-.567.794-.321 1.229.17.284.473.454.775.454z"/><path d="m184.357 705.108c-3.217 1.854-4.314 5.979-2.46 9.195 1.854 3.217 5.979 4.314 9.195 2.46s4.314-5.979 2.46-9.195c-1.855-3.216-5.979-4.314-9.195-2.46z"/><path d="m247.739 668.499c3.216-1.854 7.322-.757 9.195 2.46 1.854 3.216.757 7.322-2.46 9.195-3.216 1.854-7.322.756-9.195-2.46-1.854-3.216-.757-7.322 2.46-9.195z"/><path d="m314.507 711.827c.303 0 .606-.152.776-.454.246-.436.094-.984-.322-1.23l-63.401-36.61c-.435-.246-.984-.095-1.229.321-.246.435-.095.984.321 1.23l63.401 36.61c.133.076.303.114.454.114z"/><path d="m254.474 668.499c-3.216-1.854-7.322-.757-9.195 2.46-1.854 3.216-.757 7.322 2.459 9.195 3.217 1.854 7.322.756 9.196-2.46 1.873-3.216.756-7.322-2.46-9.195z"/><path d="m317.875 705.108c3.216 1.854 4.314 5.979 2.46 9.195-1.855 3.217-5.979 4.314-9.196 2.46-3.216-1.854-4.313-5.979-2.459-9.195s5.979-4.314 9.195-2.46z"/><path d="m251.106 894.859c.492 0 .89-.397.89-.889v-73.202c0-.492-.398-.889-.89-.889s-.889.397-.889.889v73.202c0 .492.397.889.889.889z"/><path d="m244.39 893.967c0 3.708 3.008 6.735 6.735 6.735s6.717-3.008 6.717-6.735c0-3.709-3.008-6.717-6.717-6.717-3.708 0-6.716 3.008-6.735 6.717z"/><path d="m244.39 820.748c0-3.708 3.008-6.717 6.716-6.717 3.709 0 6.736 3.009 6.736 6.736 0 3.708-3.008 6.716-6.736 6.716-3.727 0-6.716-3.008-6.716-6.735z"/><path d="m251.125 821.66c.152 0 .303-.038.454-.114l63.382-36.61c.435-.246.568-.795.322-1.23s-.795-.568-1.23-.322l-63.382 36.611c-.435.246-.568.794-.322 1.229.171.284.473.454.776.454z"/><path d="m247.758 814.921c-3.217 1.854-4.314 5.979-2.46 9.195s5.979 4.314 9.195 2.46c3.217-1.855 4.314-5.979 2.46-9.196-1.854-3.216-5.979-4.313-9.195-2.459z"/><path d="m311.139 778.331c3.217-1.854 7.322-.757 9.196 2.46 1.854 3.216.756 7.322-2.46 9.195-3.216 1.854-7.322.756-9.195-2.46-1.854-3.216-.757-7.322 2.459-9.195z"/><path d="m187.724 931.472c.152 0 .303-.038.454-.113l63.382-36.611c.436-.246.568-.794.322-1.229-.246-.436-.795-.568-1.23-.322l-63.382 36.61c-.435.246-.567.795-.321 1.23.17.284.473.454.775.454z"/><path d="m184.357 924.753c-3.217 1.854-4.314 5.979-2.46 9.195s5.979 4.314 9.195 2.46c3.216-1.855 4.314-5.979 2.46-9.196-1.855-3.216-5.979-4.313-9.195-2.459z"/><path d="m247.739 888.143c3.216-1.854 7.322-.756 9.195 2.46 1.854 3.216.757 7.322-2.46 9.195-3.216 1.854-7.322.757-9.195-2.459-1.854-3.217-.757-7.322 2.46-9.196z"/></g></svg>