<svg width="466" height="946" viewBox="0 0 466 946" fill="none" xmlns="http://www.w3.org/2000/svg">
<g opacity="0.3">
<path d="M441.309 52.9212C441.46 52.9212 441.612 52.8834 441.763 52.8077L505.164 16.1975C505.599 15.9516 505.731 15.4029 505.486 14.9677C505.24 14.5326 504.691 14.4001 504.256 14.6461L440.855 51.2563C440.42 51.5022 440.287 52.0509 440.533 52.4861C440.703 52.7699 441.006 52.9402 441.309 52.9402V52.9212Z" fill="#FF0800"/>
<path d="M444.677 57.8568C441.46 59.7109 437.355 58.6136 435.482 55.3972C433.627 52.1808 434.725 48.0751 437.941 46.2021C441.158 44.3479 445.263 45.4453 447.136 48.6617C449.009 51.8781 447.893 55.9837 444.677 57.8568Z" fill="#FF0800"/>
<path d="M441.309 52.9204C441.612 52.9204 441.914 52.769 442.085 52.4663C442.331 52.0311 442.179 51.4824 441.763 51.2365L378.362 14.6263C377.927 14.3803 377.378 14.5317 377.132 14.9479C376.886 15.3831 377.038 15.9318 377.454 16.1777L440.855 52.7879C440.987 52.8636 441.158 52.9014 441.309 52.9014V52.9204Z" fill="#FF0800"/>
<path d="M437.941 57.8568C441.158 59.7109 445.263 58.6136 447.136 55.3972C448.99 52.1808 447.893 48.0751 444.677 46.2021C441.46 44.3479 437.355 45.4453 435.482 48.6617C433.627 51.8781 434.725 55.9837 437.941 57.8568Z" fill="#FF0800"/>
<path d="M374.54 21.2474C371.324 19.3932 370.227 15.2687 372.081 12.0523C373.935 8.83588 378.059 7.73852 381.276 9.59268C384.492 11.4468 385.59 15.5714 383.735 18.7878C381.881 22.0042 377.757 23.1016 374.54 21.2474Z" fill="#FF0800"/>
<path d="M504.691 162.752C504.994 162.752 505.296 162.601 505.467 162.298C505.713 161.863 505.561 161.314 505.145 161.069L441.744 124.458C441.309 124.212 440.76 124.364 440.514 124.78C440.268 125.215 440.42 125.764 440.836 126.01L504.237 162.62C504.369 162.696 504.54 162.733 504.691 162.733V162.752Z" fill="#FF0800"/>
<path d="M437.922 131.079C434.706 129.225 433.609 125.101 435.463 121.884C437.317 118.668 441.441 117.571 444.658 119.425C447.874 121.279 448.972 125.403 447.118 128.62C445.263 131.836 441.139 132.934 437.922 131.079Z" fill="#FF0800"/>
<path d="M441.29 126.14C441.782 126.14 442.179 125.742 442.179 125.25V52.0299C442.179 51.5379 441.782 51.1406 441.29 51.1406C440.798 51.1406 440.401 51.5379 440.401 52.0299V125.25C440.401 125.742 440.798 126.14 441.29 126.14Z" fill="#FF0800"/>
<path d="M434.573 125.248C434.573 128.957 437.582 131.984 441.309 131.984C445.017 131.984 448.026 128.976 448.044 125.267C448.044 121.559 445.036 118.551 441.328 118.551C437.62 118.551 434.611 121.559 434.592 125.267L434.573 125.248Z" fill="#FF0800"/>
<path d="M434.574 52.0285C434.574 48.3202 437.582 45.293 441.29 45.293C444.998 45.293 448.026 48.3012 448.026 52.0285C448.026 55.7557 445.017 58.764 441.29 58.7451C437.582 58.7451 434.574 55.7368 434.574 52.0285Z" fill="#FF0800"/>
<path d="M441.309 52.9212C441.46 52.9212 441.612 52.8834 441.763 52.8077L505.145 16.1975C505.58 15.9516 505.713 15.4029 505.467 14.9677C505.221 14.5326 504.672 14.4001 504.237 14.6461L440.855 51.2563C440.42 51.5022 440.287 52.0509 440.533 52.4861C440.704 52.7699 441.006 52.9402 441.309 52.9402V52.9212Z" fill="#FF0800"/>
<path d="M437.941 46.2021C434.725 48.0562 433.627 52.1808 435.482 55.3972C437.336 58.6136 441.46 59.7109 444.677 57.8568C447.893 56.0026 448.99 51.8781 447.136 48.6617C445.282 45.4453 441.158 44.3479 437.941 46.2021Z" fill="#FF0800"/>
<path d="M441.309 126.14C441.801 126.14 442.198 125.742 442.198 125.25V52.0299C442.198 51.5379 441.801 51.1406 441.309 51.1406C440.817 51.1406 440.42 51.5379 440.42 52.0299V125.25C440.42 125.742 440.817 126.14 441.309 126.14Z" fill="#FF0800"/>
<path d="M441.309 131.964C437.6 131.964 434.592 128.957 434.592 125.248C434.592 121.538 437.6 118.531 441.309 118.531C445.019 118.531 448.026 121.538 448.026 125.248C448.026 128.957 445.019 131.964 441.309 131.964Z" fill="#FF0800"/>
<path d="M434.574 52.0285C434.574 48.3202 437.582 45.293 441.29 45.293C444.999 45.293 448.007 48.3012 448.007 52.0285C448.007 55.7557 444.999 58.7451 441.29 58.7451C437.582 58.7451 434.574 55.7368 434.574 52.0285Z" fill="#FF0800"/>
<path d="M377.908 162.753C378.059 162.753 378.211 162.715 378.362 162.64L441.763 126.03C442.198 125.784 442.331 125.235 442.085 124.8C441.839 124.365 441.29 124.232 440.855 124.478L377.454 161.088C377.019 161.334 376.886 161.883 377.132 162.318C377.303 162.602 377.605 162.772 377.908 162.772V162.753Z" fill="#FF0800"/>
<path d="M444.677 131.079C447.893 129.225 448.99 125.101 447.136 121.884C445.282 118.668 441.158 117.571 437.941 119.425C434.725 121.279 433.627 125.403 435.482 128.62C437.336 131.836 441.46 132.934 444.677 131.079Z" fill="#FF0800"/>
<path d="M381.257 167.669C378.04 169.523 373.935 168.426 372.062 165.21C370.208 161.993 371.305 157.888 374.521 156.015C377.738 154.16 381.843 155.258 383.716 158.474C385.571 161.691 384.473 165.796 381.257 167.669Z" fill="#FF0800"/>
<path d="M377.908 162.752C378.211 162.752 378.513 162.601 378.684 162.298C378.93 161.863 378.778 161.314 378.362 161.069L314.961 124.458C314.526 124.212 313.977 124.364 313.731 124.78C313.485 125.196 313.637 125.764 314.053 126.01L377.454 162.62C377.586 162.696 377.757 162.733 377.908 162.733V162.752Z" fill="#FF0800"/>
<path d="M374.54 167.669C377.757 169.523 381.862 168.426 383.735 165.21C385.59 161.993 384.492 157.888 381.276 156.015C378.059 154.16 373.954 155.258 372.081 158.474C370.227 161.691 371.324 165.796 374.54 167.669Z" fill="#FF0800"/>
<path d="M311.139 131.079C307.923 129.225 306.826 125.101 308.68 121.884C310.534 118.668 314.659 117.571 317.875 119.425C321.091 121.279 322.189 125.403 320.335 128.62C318.48 131.836 314.356 132.934 311.139 131.079Z" fill="#FF0800"/>
<path d="M441.309 52.9204C441.612 52.9204 441.914 52.769 442.085 52.4663C442.331 52.0311 442.179 51.4824 441.763 51.2365L378.362 14.6263C377.927 14.3803 377.378 14.5317 377.132 14.9479C376.886 15.3831 377.038 15.9318 377.454 16.1777L440.855 52.7879C440.987 52.8636 441.158 52.9014 441.309 52.9014V52.9204Z" fill="#FF0800"/>
<path d="M381.257 9.61221C378.04 7.75805 373.935 8.85541 372.062 12.0718C370.208 15.2882 371.305 19.3939 374.521 21.2669C377.738 23.14 381.843 22.0237 383.716 18.8073C385.571 15.5909 384.473 11.4853 381.257 9.61221Z" fill="#FF0800"/>
<path d="M444.677 46.2021C447.893 48.0562 448.99 52.1808 447.136 55.3972C445.282 58.6136 441.158 59.7109 437.941 57.8568C434.725 56.0026 433.627 51.8781 435.482 48.6617C437.336 45.4453 441.46 44.3479 444.677 46.2021Z" fill="#FF0800"/>
<path d="M251.106 162.753C251.258 162.753 251.409 162.715 251.56 162.64L314.961 126.03C315.396 125.784 315.529 125.235 315.283 124.8C315.037 124.365 314.488 124.232 314.053 124.478L250.652 161.088C250.217 161.334 250.085 161.883 250.33 162.318C250.501 162.602 250.804 162.772 251.106 162.772V162.753Z" fill="#FF0800"/>
<path d="M317.875 131.079C321.091 129.225 322.189 125.101 320.335 121.884C318.48 118.668 314.356 117.571 311.139 119.425C307.923 121.279 306.826 125.403 308.68 128.62C310.534 131.836 314.659 132.934 317.875 131.079Z" fill="#FF0800"/>
<path d="M254.474 167.669C251.258 169.523 247.152 168.426 245.279 165.21C243.425 161.993 244.522 157.888 247.739 156.015C250.955 154.16 255.061 155.258 256.934 158.474C258.788 161.691 257.691 165.796 254.474 167.669Z" fill="#FF0800"/>
<path d="M441.309 272.562C441.46 272.562 441.612 272.524 441.763 272.448L505.164 235.838C505.599 235.592 505.731 235.043 505.486 234.608C505.24 234.173 504.691 234.041 504.256 234.287L440.855 270.897C440.42 271.143 440.287 271.692 440.533 272.127C440.703 272.41 441.006 272.581 441.309 272.581V272.562Z" fill="#FF0800"/>
<path d="M444.677 277.497C441.46 279.352 437.355 278.254 435.482 275.038C433.627 271.821 434.725 267.716 437.941 265.843C441.158 263.989 445.263 265.086 447.136 268.302C449.009 271.519 447.893 275.624 444.677 277.497Z" fill="#FF0800"/>
<path d="M441.309 272.561C441.612 272.561 441.914 272.41 442.085 272.107C442.331 271.672 442.179 271.123 441.763 270.877L378.362 234.267C377.927 234.021 377.378 234.172 377.132 234.589C376.886 235.024 377.038 235.572 377.454 235.818L440.855 272.429C440.987 272.504 441.158 272.542 441.309 272.542V272.561Z" fill="#FF0800"/>
<path d="M437.941 277.497C441.158 279.352 445.263 278.254 447.136 275.038C448.99 271.821 447.893 267.716 444.677 265.843C441.46 263.989 437.355 265.086 435.482 268.302C433.627 271.519 434.725 275.624 437.941 277.497Z" fill="#FF0800"/>
<path d="M374.54 240.888C371.324 239.034 370.227 234.909 372.081 231.693C373.935 228.477 378.059 227.379 381.276 229.233C384.492 231.087 385.59 235.212 383.735 238.428C381.881 241.645 377.757 242.742 374.54 240.888Z" fill="#FF0800"/>
<path d="M377.908 235.953C378.4 235.953 378.797 235.555 378.797 235.063V161.862C378.797 161.37 378.4 160.973 377.908 160.973C377.416 160.973 377.019 161.37 377.019 161.862V235.063C377.019 235.555 377.416 235.953 377.908 235.953Z" fill="#FF0800"/>
<path d="M371.173 235.06C371.173 238.769 374.181 241.777 377.889 241.796C381.598 241.796 384.625 238.788 384.625 235.079C384.625 231.371 381.616 228.344 377.908 228.344C374.2 228.344 371.192 231.352 371.192 235.06H371.173Z" fill="#FF0800"/>
<path d="M371.173 161.842C371.173 158.133 374.181 155.125 377.889 155.125C381.597 155.125 384.606 158.133 384.606 161.861C384.606 165.588 381.597 168.577 377.889 168.577C374.181 168.577 371.173 165.569 371.173 161.842Z" fill="#FF0800"/>
<path d="M377.908 162.753C378.059 162.753 378.211 162.715 378.362 162.64L441.744 126.03C442.179 125.784 442.312 125.235 442.066 124.8C441.82 124.365 441.271 124.232 440.836 124.478L377.454 161.088C377.019 161.334 376.886 161.883 377.132 162.318C377.303 162.602 377.605 162.772 377.908 162.772V162.753Z" fill="#FF0800"/>
<path d="M374.559 156.034C371.343 157.888 370.245 162.013 372.1 165.229C373.954 168.446 378.078 169.543 381.295 167.689C384.511 165.835 385.608 161.71 383.754 158.494C381.9 155.277 377.776 154.18 374.559 156.034Z" fill="#FF0800"/>
<path d="M437.941 119.425C441.158 117.571 445.263 118.668 447.136 121.884C448.99 125.101 447.893 129.206 444.677 131.079C441.46 132.934 437.355 131.836 435.482 128.62C433.627 125.403 434.725 121.298 437.941 119.425Z" fill="#FF0800"/>
<path d="M504.71 162.752C505.013 162.752 505.315 162.601 505.486 162.298C505.732 161.863 505.58 161.314 505.164 161.069L441.763 124.458C441.328 124.212 440.779 124.364 440.533 124.78C440.287 125.215 440.439 125.764 440.855 126.01L504.256 162.62C504.388 162.696 504.558 162.733 504.71 162.733V162.752Z" fill="#FF0800"/>
<path d="M444.677 119.425C441.46 117.571 437.355 118.668 435.482 121.884C433.627 125.101 434.725 129.206 437.941 131.079C441.158 132.934 445.263 131.836 447.136 128.62C449.009 125.403 447.893 121.298 444.677 119.425Z" fill="#FF0800"/>
<path d="M377.908 235.953C378.4 235.953 378.797 235.555 378.797 235.063V161.862C378.797 161.37 378.4 160.973 377.908 160.973C377.416 160.973 377.019 161.37 377.019 161.862V235.063C377.019 235.555 377.416 235.953 377.908 235.953Z" fill="#FF0800"/>
<path d="M371.191 235.06C371.191 238.769 374.2 241.796 377.908 241.796C381.616 241.796 384.644 238.788 384.644 235.06C384.644 231.333 381.635 228.344 377.908 228.344C374.181 228.344 371.191 231.352 371.191 235.06Z" fill="#FF0800"/>
<path d="M371.191 161.842C371.191 158.133 374.2 155.125 377.908 155.125C381.616 155.125 384.644 158.133 384.644 161.842C384.644 165.55 381.635 168.577 377.908 168.577C374.181 168.577 371.191 165.569 371.191 161.842Z" fill="#FF0800"/>
<path d="M314.507 272.562C314.659 272.562 314.81 272.524 314.961 272.448L378.362 235.838C378.797 235.592 378.93 235.043 378.684 234.608C378.438 234.173 377.889 234.041 377.454 234.287L314.053 270.897C313.618 271.143 313.485 271.692 313.731 272.127C313.902 272.41 314.204 272.581 314.507 272.581V272.562Z" fill="#FF0800"/>
<path d="M381.276 240.888C384.492 239.034 385.59 234.909 383.735 231.693C381.881 228.477 377.757 227.379 374.54 229.233C371.324 231.087 370.227 235.212 372.081 238.428C373.935 241.645 378.059 242.742 381.276 240.888Z" fill="#FF0800"/>
<path d="M317.875 277.497C314.659 279.352 310.553 278.254 308.68 275.038C306.826 271.821 307.923 267.716 311.139 265.843C314.356 263.989 318.461 265.086 320.335 268.302C322.189 271.519 321.091 275.624 317.875 277.497Z" fill="#FF0800"/>
<path d="M314.507 272.561C314.81 272.561 315.113 272.41 315.283 272.107C315.529 271.672 315.377 271.123 314.961 270.877L251.56 234.267C251.125 234.021 250.576 234.172 250.331 234.589C250.085 235.024 250.236 235.572 250.652 235.818L314.053 272.429C314.186 272.504 314.356 272.542 314.507 272.542V272.561Z" fill="#FF0800"/>
<path d="M311.139 277.497C314.356 279.352 318.461 278.254 320.335 275.038C322.189 271.821 321.091 267.716 317.875 265.843C314.659 263.989 310.553 265.086 308.68 268.302C306.826 271.519 307.923 275.624 311.139 277.497Z" fill="#FF0800"/>
<path d="M247.739 240.888C244.522 239.034 243.425 234.909 245.279 231.693C247.133 228.477 251.258 227.379 254.474 229.233C257.691 231.087 258.788 235.212 256.934 238.428C255.08 241.645 250.955 242.742 247.739 240.888Z" fill="#FF0800"/>
<path d="M251.106 235.953C251.598 235.953 251.996 235.555 251.996 235.063V161.862C251.996 161.37 251.598 160.973 251.106 160.973C250.614 160.973 250.217 161.37 250.217 161.862V235.063C250.217 235.555 250.614 235.953 251.106 235.953Z" fill="#FF0800"/>
<path d="M244.39 235.06C244.39 238.769 247.398 241.777 251.125 241.796C254.834 241.796 257.842 238.788 257.842 235.079C257.842 231.371 254.834 228.344 251.125 228.344C247.417 228.344 244.409 231.352 244.39 235.06Z" fill="#FF0800"/>
<path d="M244.39 161.842C244.39 158.133 247.398 155.125 251.106 155.125C254.815 155.125 257.842 158.133 257.842 161.861C257.842 165.569 254.834 168.577 251.106 168.577C247.398 168.577 244.39 165.569 244.39 161.842Z" fill="#FF0800"/>
<path d="M251.125 162.753C251.277 162.753 251.428 162.715 251.579 162.64L314.961 126.03C315.396 125.784 315.529 125.235 315.283 124.8C315.037 124.365 314.488 124.232 314.053 124.478L250.671 161.088C250.236 161.334 250.103 161.883 250.349 162.318C250.52 162.602 250.822 162.772 251.125 162.772V162.753Z" fill="#FF0800"/>
<path d="M247.758 156.034C244.541 157.888 243.444 162.013 245.298 165.229C247.152 168.446 251.277 169.543 254.493 167.689C257.71 165.835 258.807 161.71 256.953 158.494C255.099 155.277 250.974 154.18 247.758 156.034Z" fill="#FF0800"/>
<path d="M311.139 119.425C314.356 117.571 318.461 118.668 320.335 121.884C322.189 125.101 321.091 129.206 317.875 131.079C314.659 132.934 310.553 131.836 308.68 128.62C306.826 125.403 307.923 121.298 311.139 119.425Z" fill="#FF0800"/>
<path d="M377.908 162.752C378.211 162.752 378.513 162.601 378.684 162.298C378.93 161.863 378.778 161.314 378.362 161.069L314.961 124.458C314.526 124.212 313.977 124.364 313.731 124.78C313.485 125.196 313.637 125.764 314.053 126.01L377.454 162.62C377.586 162.696 377.757 162.733 377.908 162.733V162.752Z" fill="#FF0800"/>
<path d="M317.875 119.425C314.659 117.571 310.553 118.668 308.68 121.884C306.826 125.101 307.923 129.206 311.139 131.079C314.356 132.934 318.461 131.836 320.335 128.62C322.189 125.403 321.091 121.298 317.875 119.425Z" fill="#FF0800"/>
<path d="M381.276 156.034C384.492 157.888 385.59 162.013 383.735 165.229C381.881 168.446 377.757 169.543 374.54 167.689C371.324 165.835 370.227 161.71 372.081 158.494C373.935 155.277 378.059 154.18 381.276 156.034Z" fill="#FF0800"/>
<path d="M504.691 382.373C504.994 382.373 505.296 382.222 505.467 381.919C505.713 381.484 505.561 380.936 505.145 380.69L441.744 344.079C441.309 343.833 440.76 343.985 440.514 344.401C440.268 344.836 440.42 345.385 440.836 345.631L504.237 382.241C504.369 382.317 504.54 382.355 504.691 382.355V382.373Z" fill="#FF0800"/>
<path d="M437.922 350.701C434.706 348.846 433.609 344.722 435.463 341.505C437.317 338.289 441.441 337.192 444.658 339.046C447.874 340.9 448.972 345.025 447.118 348.241C445.263 351.457 441.139 352.555 437.922 350.701Z" fill="#FF0800"/>
<path d="M441.29 345.784C441.782 345.784 442.179 345.387 442.179 344.895V271.674C442.179 271.182 441.782 270.785 441.29 270.785C440.798 270.785 440.401 271.182 440.401 271.674V344.895C440.401 345.387 440.798 345.784 441.29 345.784Z" fill="#FF0800"/>
<path d="M434.573 344.873C434.573 348.581 437.582 351.608 441.309 351.608C445.017 351.608 448.026 348.6 448.044 344.892C448.044 341.183 445.036 338.175 441.328 338.156C437.62 338.156 434.611 341.165 434.592 344.873H434.573Z" fill="#FF0800"/>
<path d="M434.574 271.673C434.574 267.965 437.582 264.938 441.29 264.938C444.998 264.938 448.026 267.946 448.026 271.673C448.026 275.4 445.017 278.39 441.29 278.39C437.563 278.39 434.574 275.381 434.574 271.673Z" fill="#FF0800"/>
<path d="M441.309 272.562C441.46 272.562 441.612 272.524 441.763 272.448L505.145 235.838C505.58 235.592 505.713 235.043 505.467 234.608C505.221 234.173 504.672 234.041 504.237 234.287L440.855 270.897C440.42 271.143 440.287 271.692 440.533 272.127C440.704 272.41 441.006 272.581 441.309 272.581V272.562Z" fill="#FF0800"/>
<path d="M437.941 265.843C434.725 267.697 433.627 271.821 435.482 275.038C437.336 278.254 441.46 279.352 444.677 277.497C447.893 275.643 448.99 271.519 447.136 268.302C445.282 265.086 441.158 263.989 437.941 265.843Z" fill="#FF0800"/>
<path d="M441.309 345.784C441.801 345.784 442.198 345.387 442.198 344.895V271.674C442.198 271.182 441.801 270.785 441.309 270.785C440.817 270.785 440.42 271.182 440.42 271.674V344.895C440.42 345.387 440.817 345.784 441.309 345.784Z" fill="#FF0800"/>
<path d="M434.573 344.876C434.573 348.584 437.582 351.593 441.29 351.593C444.998 351.593 448.007 348.584 448.007 344.876C448.007 341.168 444.998 338.141 441.29 338.141C437.582 338.141 434.573 341.149 434.573 344.876Z" fill="#FF0800"/>
<path d="M434.573 271.673C434.573 267.965 437.582 264.938 441.29 264.938C444.998 264.938 448.007 267.946 448.007 271.673C448.007 275.4 444.998 278.39 441.29 278.39C437.582 278.39 434.573 275.381 434.573 271.673Z" fill="#FF0800"/>
<path d="M377.908 382.374C378.059 382.374 378.211 382.337 378.362 382.261L441.763 345.651C442.198 345.405 442.331 344.856 442.085 344.421C441.839 343.986 441.29 343.853 440.855 344.099L377.454 380.709C377.019 380.955 376.886 381.504 377.132 381.939C377.303 382.223 377.605 382.393 377.908 382.393V382.374Z" fill="#FF0800"/>
<path d="M444.677 350.701C447.893 348.846 448.99 344.722 447.136 341.505C445.282 338.289 441.158 337.192 437.941 339.046C434.725 340.9 433.627 345.025 435.482 348.241C437.336 351.457 441.46 352.555 444.677 350.701Z" fill="#FF0800"/>
<path d="M381.257 387.31C378.04 389.164 373.935 388.067 372.062 384.85C370.208 381.634 371.305 377.528 374.521 375.655C377.738 373.801 381.843 374.898 383.716 378.115C385.571 381.331 384.473 385.437 381.257 387.31Z" fill="#FF0800"/>
<path d="M377.908 382.373C378.211 382.373 378.513 382.222 378.684 381.919C378.93 381.484 378.778 380.936 378.362 380.69L314.961 344.079C314.526 343.833 313.977 343.985 313.731 344.401C313.485 344.836 313.637 345.385 314.053 345.631L377.454 382.241C377.586 382.317 377.757 382.355 377.908 382.355V382.373Z" fill="#FF0800"/>
<path d="M374.54 387.31C377.757 389.164 381.862 388.067 383.735 384.85C385.59 381.634 384.492 377.528 381.276 375.655C378.059 373.801 373.954 374.898 372.081 378.115C370.208 381.331 371.324 385.437 374.54 387.31Z" fill="#FF0800"/>
<path d="M311.139 350.701C307.923 348.846 306.826 344.722 308.68 341.505C310.534 338.289 314.659 337.192 317.875 339.046C321.091 340.9 322.189 345.025 320.335 348.241C318.48 351.457 314.356 352.555 311.139 350.701Z" fill="#FF0800"/>
<path d="M314.488 345.784C314.98 345.784 315.377 345.387 315.377 344.895V271.674C315.377 271.182 314.98 270.785 314.488 270.785C313.996 270.785 313.599 271.182 313.599 271.674V344.895C313.599 345.387 313.996 345.784 314.488 345.784Z" fill="#FF0800"/>
<path d="M307.772 344.873C307.772 348.581 310.78 351.608 314.488 351.608C318.197 351.608 321.205 348.6 321.205 344.892C321.205 341.183 318.197 338.175 314.488 338.156C310.78 338.156 307.753 341.165 307.753 344.873H307.772Z" fill="#FF0800"/>
<path d="M307.772 271.673C307.772 267.965 310.78 264.938 314.507 264.938C318.234 264.938 321.224 267.946 321.224 271.673C321.224 275.381 318.215 278.39 314.507 278.39C310.799 278.39 307.79 275.381 307.79 271.673H307.772Z" fill="#FF0800"/>
<path d="M314.507 272.562C314.659 272.562 314.81 272.524 314.961 272.448L378.343 235.838C378.778 235.592 378.911 235.043 378.665 234.608C378.419 234.173 377.87 234.041 377.435 234.287L314.053 270.897C313.618 271.143 313.486 271.692 313.732 272.127C313.902 272.41 314.205 272.581 314.507 272.581V272.562Z" fill="#FF0800"/>
<path d="M311.139 265.843C307.923 267.697 306.826 271.821 308.68 275.038C310.534 278.254 314.659 279.352 317.875 277.497C321.091 275.643 322.189 271.519 320.335 268.302C318.48 265.086 314.356 263.989 311.139 265.843Z" fill="#FF0800"/>
<path d="M374.54 229.233C377.757 227.379 381.862 228.477 383.735 231.693C385.59 234.909 384.492 239.015 381.276 240.888C378.059 242.742 373.954 241.645 372.081 238.428C370.227 235.212 371.324 231.106 374.54 229.233Z" fill="#FF0800"/>
<path d="M441.309 272.561C441.612 272.561 441.914 272.41 442.085 272.107C442.331 271.672 442.179 271.123 441.763 270.877L378.362 234.267C377.927 234.021 377.378 234.172 377.132 234.589C376.886 235.024 377.038 235.572 377.454 235.818L440.855 272.429C440.987 272.504 441.158 272.542 441.309 272.542V272.561Z" fill="#FF0800"/>
<path d="M381.257 229.233C378.04 227.379 373.935 228.477 372.062 231.693C370.208 234.909 371.305 239.015 374.521 240.888C377.738 242.742 381.843 241.645 383.716 238.428C385.571 235.212 384.473 231.106 381.257 229.233Z" fill="#FF0800"/>
<path d="M444.677 265.843C447.893 267.697 448.99 271.821 447.136 275.038C445.282 278.254 441.158 279.352 437.941 277.497C434.725 275.643 433.627 271.519 435.482 268.302C437.336 265.086 441.46 263.989 444.677 265.843Z" fill="#FF0800"/>
<path d="M314.507 345.784C314.999 345.784 315.396 345.387 315.396 344.895V271.674C315.396 271.182 314.999 270.785 314.507 270.785C314.015 270.785 313.618 271.182 313.618 271.674V344.895C313.618 345.387 314.015 345.784 314.507 345.784Z" fill="#FF0800"/>
<path d="M307.791 344.876C307.791 348.584 310.799 351.593 314.526 351.593C318.253 351.593 321.243 348.584 321.243 344.876C321.243 341.168 318.234 338.141 314.526 338.141C310.818 338.141 307.791 341.149 307.791 344.876Z" fill="#FF0800"/>
<path d="M307.791 271.673C307.791 267.965 310.799 264.938 314.526 264.938C318.253 264.938 321.243 267.946 321.243 271.673C321.243 275.4 318.234 278.39 314.526 278.39C310.818 278.39 307.791 275.381 307.791 271.673Z" fill="#FF0800"/>
<path d="M251.106 382.374C251.258 382.374 251.409 382.337 251.56 382.261L314.961 345.651C315.396 345.405 315.529 344.856 315.283 344.421C315.037 343.986 314.488 343.853 314.053 344.099L250.652 380.709C250.217 380.955 250.085 381.504 250.33 381.939C250.501 382.223 250.804 382.393 251.106 382.393V382.374Z" fill="#FF0800"/>
<path d="M317.875 350.701C321.091 348.846 322.189 344.722 320.335 341.505C318.48 338.289 314.356 337.192 311.139 339.046C307.923 340.9 306.826 345.025 308.68 348.241C310.534 351.457 314.659 352.555 317.875 350.701Z" fill="#FF0800"/>
<path d="M254.474 387.31C251.258 389.164 247.152 388.067 245.279 384.85C243.425 381.634 244.522 377.528 247.738 375.655C250.955 373.801 255.06 374.898 256.934 378.115C258.807 381.331 257.69 385.437 254.474 387.31Z" fill="#FF0800"/>
<path d="M251.106 382.373C251.409 382.373 251.712 382.222 251.882 381.919C252.128 381.484 251.977 380.936 251.56 380.69L188.159 344.079C187.724 343.833 187.176 343.985 186.93 344.401C186.684 344.836 186.835 345.385 187.251 345.631L250.652 382.241C250.785 382.317 250.955 382.355 251.106 382.355V382.373Z" fill="#FF0800"/>
<path d="M247.739 387.31C250.955 389.164 255.061 388.067 256.934 384.85C258.788 381.634 257.691 377.528 254.474 375.655C251.258 373.801 247.152 374.898 245.279 378.115C243.425 381.331 244.522 385.437 247.739 387.31Z" fill="#FF0800"/>
<path d="M184.338 350.701C181.121 348.846 180.024 344.722 181.878 341.505C183.732 338.289 187.857 337.192 191.073 339.046C194.29 340.9 195.387 345.025 193.533 348.241C191.679 351.457 187.554 352.555 184.338 350.701Z" fill="#FF0800"/>
<path d="M187.705 345.784C188.197 345.784 188.594 345.387 188.594 344.895V271.674C188.594 271.182 188.197 270.785 187.705 270.785C187.213 270.785 186.816 271.182 186.816 271.674V344.895C186.816 345.387 187.213 345.784 187.705 345.784Z" fill="#FF0800"/>
<path d="M180.97 344.873C180.97 348.581 183.978 351.608 187.686 351.608C191.395 351.608 194.403 348.6 194.403 344.892C194.403 341.183 191.395 338.175 187.686 338.156C183.978 338.156 180.97 341.165 180.97 344.873Z" fill="#FF0800"/>
<path d="M180.97 271.673C180.97 267.965 183.978 264.938 187.686 264.938C191.395 264.938 194.422 267.946 194.422 271.673C194.422 275.4 191.414 278.39 187.686 278.39C183.959 278.39 180.97 275.381 180.97 271.673Z" fill="#FF0800"/>
<path d="M187.724 272.562C187.876 272.562 188.027 272.524 188.178 272.448L251.56 235.838C251.996 235.592 252.128 235.043 251.882 234.608C251.636 234.173 251.087 234.041 250.652 234.287L187.27 270.897C186.835 271.143 186.703 271.692 186.949 272.127C187.119 272.41 187.422 272.581 187.724 272.581V272.562Z" fill="#FF0800"/>
<path d="M184.357 265.843C181.14 267.697 180.043 271.821 181.897 275.038C183.751 278.254 187.876 279.352 191.092 277.497C194.308 275.643 195.406 271.519 193.552 268.302C191.697 265.086 187.573 263.989 184.357 265.843Z" fill="#FF0800"/>
<path d="M247.739 229.233C250.955 227.379 255.061 228.477 256.934 231.693C258.788 234.909 257.691 239.015 254.474 240.888C251.258 242.742 247.152 241.645 245.279 238.428C243.425 235.212 244.522 231.106 247.739 229.233Z" fill="#FF0800"/>
<path d="M314.507 272.561C314.81 272.561 315.113 272.41 315.283 272.107C315.529 271.672 315.377 271.123 314.961 270.877L251.56 234.267C251.125 234.021 250.576 234.172 250.331 234.589C250.085 235.024 250.236 235.572 250.652 235.818L314.053 272.429C314.186 272.504 314.356 272.542 314.507 272.542V272.561Z" fill="#FF0800"/>
<path d="M254.474 229.233C251.258 227.379 247.152 228.477 245.279 231.693C243.425 234.909 244.522 239.015 247.738 240.888C250.955 242.742 255.06 241.645 256.934 238.428C258.807 235.212 257.69 231.106 254.474 229.233Z" fill="#FF0800"/>
<path d="M317.875 265.843C321.091 267.697 322.189 271.821 320.335 275.038C318.48 278.254 314.356 279.352 311.139 277.497C307.923 275.643 306.826 271.519 308.68 268.302C310.534 265.086 314.659 263.989 317.875 265.843Z" fill="#FF0800"/>
<path d="M441.309 492.205C441.612 492.205 441.914 492.054 442.085 491.751C442.331 491.316 442.179 490.768 441.763 490.522L378.362 453.911C377.927 453.665 377.378 453.817 377.132 454.233C376.886 454.668 377.038 455.217 377.454 455.463L440.855 492.073C440.987 492.149 441.158 492.187 441.309 492.187V492.205Z" fill="#FF0800"/>
<path d="M437.941 497.122C441.158 498.977 445.263 497.879 447.136 494.663C448.99 491.446 447.893 487.341 444.677 485.468C441.46 483.614 437.355 484.711 435.482 487.927C433.627 491.144 434.725 495.249 437.941 497.122Z" fill="#FF0800"/>
<path d="M374.54 460.513C371.324 458.659 370.227 454.534 372.081 451.318C373.935 448.101 378.059 447.004 381.276 448.858C384.492 450.712 385.59 454.837 383.735 458.053C381.881 461.27 377.757 462.367 374.54 460.513Z" fill="#FF0800"/>
<path d="M377.908 455.597C378.4 455.597 378.797 455.199 378.797 454.707V381.487C378.797 380.995 378.4 380.598 377.908 380.598C377.416 380.598 377.019 380.995 377.019 381.487V454.707C377.019 455.199 377.416 455.597 377.908 455.597Z" fill="#FF0800"/>
<path d="M371.173 454.705C371.173 458.413 374.181 461.421 377.889 461.44C381.598 461.44 384.625 458.432 384.625 454.705C384.625 450.978 381.616 447.988 377.908 447.988C374.2 447.988 371.192 450.997 371.192 454.705H371.173Z" fill="#FF0800"/>
<path d="M371.173 381.486C371.173 377.777 374.181 374.75 377.889 374.75C381.597 374.75 384.606 377.758 384.606 381.486C384.606 385.213 381.597 388.202 377.889 388.202C374.181 388.202 371.173 385.194 371.173 381.486Z" fill="#FF0800"/>
<path d="M377.908 382.374C378.059 382.374 378.211 382.337 378.362 382.261L441.744 345.651C442.179 345.405 442.312 344.856 442.066 344.421C441.82 343.986 441.271 343.853 440.836 344.099L377.454 380.709C377.019 380.955 376.886 381.504 377.132 381.939C377.303 382.223 377.605 382.393 377.908 382.393V382.374Z" fill="#FF0800"/>
<path d="M374.559 375.655C371.343 377.509 370.245 381.634 372.1 384.85C373.954 388.067 378.078 389.164 381.295 387.31C384.511 385.456 385.608 381.331 383.754 378.115C381.9 374.898 377.776 373.801 374.559 375.655Z" fill="#FF0800"/>
<path d="M437.941 339.046C441.158 337.192 445.263 338.289 447.136 341.505C448.99 344.722 447.893 348.827 444.677 350.701C441.46 352.555 437.355 351.457 435.482 348.241C433.627 345.025 434.725 340.919 437.941 339.046Z" fill="#FF0800"/>
<path d="M504.71 382.373C505.013 382.373 505.315 382.222 505.486 381.919C505.732 381.484 505.58 380.936 505.164 380.69L441.763 344.079C441.328 343.833 440.779 343.985 440.533 344.401C440.287 344.836 440.439 345.385 440.855 345.631L504.256 382.241C504.388 382.317 504.558 382.355 504.71 382.355V382.373Z" fill="#FF0800"/>
<path d="M444.677 339.046C441.46 337.192 437.355 338.289 435.482 341.505C433.627 344.722 434.725 348.827 437.941 350.701C441.158 352.555 445.263 351.457 447.136 348.241C449.009 345.025 447.893 340.919 444.677 339.046Z" fill="#FF0800"/>
<path d="M377.908 455.597C378.4 455.597 378.797 455.199 378.797 454.707V381.487C378.797 380.995 378.4 380.598 377.908 380.598C377.416 380.598 377.019 380.995 377.019 381.487V454.707C377.019 455.199 377.416 455.597 377.908 455.597Z" fill="#FF0800"/>
<path d="M371.191 454.705C371.191 458.413 374.2 461.44 377.908 461.44C381.616 461.44 384.644 458.432 384.644 454.705C384.644 450.978 381.635 447.988 377.908 447.988C374.181 447.988 371.191 450.997 371.191 454.705Z" fill="#FF0800"/>
<path d="M371.191 381.486C371.191 377.777 374.2 374.75 377.908 374.75C381.616 374.75 384.644 377.758 384.644 381.486C384.644 385.213 381.635 388.202 377.908 388.202C374.181 388.202 371.191 385.194 371.191 381.486Z" fill="#FF0800"/>
<path d="M314.507 492.202C314.659 492.202 314.81 492.165 314.961 492.089L378.362 455.479C378.797 455.233 378.93 454.684 378.684 454.249C378.438 453.814 377.889 453.681 377.454 453.927L314.053 490.538C313.618 490.783 313.485 491.332 313.731 491.767C313.902 492.051 314.204 492.221 314.507 492.221V492.202Z" fill="#FF0800"/>
<path d="M381.276 460.513C384.492 458.659 385.59 454.534 383.735 451.318C381.881 448.101 377.757 447.004 374.54 448.858C371.324 450.712 370.227 454.837 372.081 458.053C373.935 461.27 378.059 462.367 381.276 460.513Z" fill="#FF0800"/>
<path d="M317.875 497.122C314.659 498.977 310.553 497.879 308.68 494.663C306.826 491.446 307.923 487.341 311.139 485.468C314.356 483.614 318.461 484.711 320.335 487.927C322.189 491.144 321.091 495.249 317.875 497.122Z" fill="#FF0800"/>
<path d="M314.507 492.205C314.81 492.205 315.113 492.054 315.283 491.751C315.529 491.316 315.377 490.768 314.961 490.522L251.56 453.911C251.125 453.665 250.576 453.817 250.331 454.233C250.085 454.668 250.236 455.217 250.652 455.463L314.053 492.073C314.186 492.149 314.356 492.187 314.507 492.187V492.205Z" fill="#FF0800"/>
<path d="M311.139 497.122C314.356 498.977 318.461 497.879 320.335 494.663C322.189 491.446 321.091 487.341 317.875 485.468C314.659 483.614 310.553 484.711 308.68 487.927C306.826 491.144 307.923 495.249 311.139 497.122Z" fill="#FF0800"/>
<path d="M247.739 460.513C244.522 458.659 243.425 454.534 245.279 451.318C247.133 448.101 251.258 447.004 254.474 448.858C257.691 450.712 258.788 454.837 256.934 458.053C255.08 461.27 250.955 462.367 247.739 460.513Z" fill="#FF0800"/>
<path d="M251.106 455.597C251.598 455.597 251.996 455.199 251.996 454.707V381.487C251.996 380.995 251.598 380.598 251.106 380.598C250.614 380.598 250.217 380.995 250.217 381.487V454.707C250.217 455.199 250.614 455.597 251.106 455.597Z" fill="#FF0800"/>
<path d="M244.39 454.705C244.39 458.413 247.398 461.421 251.125 461.44C254.834 461.44 257.842 458.432 257.842 454.705C257.842 450.997 254.834 447.988 251.125 447.988C247.417 447.988 244.409 450.997 244.39 454.705Z" fill="#FF0800"/>
<path d="M244.39 381.486C244.39 377.777 247.398 374.75 251.106 374.75C254.815 374.75 257.842 377.758 257.842 381.486C257.842 385.194 254.834 388.202 251.106 388.202C247.379 388.202 244.39 385.194 244.39 381.486Z" fill="#FF0800"/>
<path d="M251.125 382.374C251.277 382.374 251.428 382.337 251.579 382.261L314.961 345.651C315.396 345.405 315.529 344.856 315.283 344.421C315.037 343.986 314.488 343.853 314.053 344.099L250.671 380.709C250.236 380.955 250.103 381.504 250.349 381.939C250.52 382.223 250.822 382.393 251.125 382.393V382.374Z" fill="#FF0800"/>
<path d="M247.758 375.655C244.541 377.509 243.444 381.634 245.298 384.85C247.152 388.067 251.277 389.164 254.493 387.31C257.71 385.456 258.807 381.331 256.953 378.115C255.099 374.898 250.974 373.801 247.758 375.655Z" fill="#FF0800"/>
<path d="M311.139 339.046C314.356 337.192 318.461 338.289 320.335 341.505C322.189 344.722 321.091 348.827 317.875 350.701C314.659 352.555 310.553 351.457 308.68 348.241C306.826 345.025 307.923 340.919 311.139 339.046Z" fill="#FF0800"/>
<path d="M377.908 382.373C378.211 382.373 378.513 382.222 378.684 381.919C378.93 381.484 378.778 380.936 378.362 380.69L314.961 344.079C314.526 343.833 313.977 343.985 313.731 344.401C313.485 344.836 313.637 345.385 314.053 345.631L377.454 382.241C377.586 382.317 377.757 382.355 377.908 382.355V382.373Z" fill="#FF0800"/>
<path d="M317.875 339.046C314.659 337.192 310.553 338.289 308.68 341.505C306.826 344.722 307.923 348.827 311.139 350.701C314.356 352.555 318.461 351.457 320.335 348.241C322.189 345.025 321.091 340.919 317.875 339.046Z" fill="#FF0800"/>
<path d="M381.276 375.655C384.492 377.509 385.59 381.634 383.735 384.85C381.881 388.067 377.757 389.164 374.54 387.31C371.324 385.456 370.227 381.331 372.081 378.115C373.935 374.898 378.059 373.801 381.276 375.655Z" fill="#FF0800"/>
<path d="M441.29 565.405C441.782 565.405 442.179 565.008 442.179 564.516V491.295C442.179 490.804 441.782 490.406 441.29 490.406C440.798 490.406 440.401 490.804 440.401 491.295V564.516C440.401 565.008 440.798 565.405 441.29 565.405Z" fill="#FF0800"/>
<path d="M434.573 564.513C434.573 568.222 437.582 571.249 441.309 571.249C445.036 571.249 448.026 568.241 448.044 564.532C448.044 560.824 445.036 557.797 441.328 557.797C437.62 557.797 434.611 560.805 434.592 564.513H434.573Z" fill="#FF0800"/>
<path d="M434.574 491.295C434.574 487.586 437.582 484.578 441.29 484.578C444.998 484.578 448.026 487.586 448.026 491.314C448.026 495.041 445.017 498.03 441.29 498.03C437.563 498.03 434.574 495.022 434.574 491.295Z" fill="#FF0800"/>
<path d="M441.309 565.405C441.801 565.405 442.198 565.008 442.198 564.516V491.295C442.198 490.804 441.801 490.406 441.309 490.406C440.817 490.406 440.42 490.804 440.42 491.295V564.516C440.42 565.008 440.817 565.405 441.309 565.405Z" fill="#FF0800"/>
<path d="M434.573 564.517C434.573 568.225 437.582 571.233 441.29 571.233C444.998 571.233 448.007 568.225 448.007 564.517C448.007 560.808 444.998 557.781 441.29 557.781C437.582 557.781 434.573 560.79 434.573 564.517Z" fill="#FF0800"/>
<path d="M434.573 491.295C434.573 487.586 437.582 484.578 441.29 484.578C444.998 484.578 448.007 487.586 448.007 491.295C448.007 495.003 444.998 498.03 441.29 498.03C437.582 498.03 434.573 495.022 434.573 491.295Z" fill="#FF0800"/>
<path d="M377.908 602.019C378.059 602.019 378.211 601.981 378.362 601.905L441.763 565.295C442.198 565.049 442.331 564.5 442.085 564.065C441.839 563.649 441.29 563.497 440.855 563.743L377.454 600.354C377.019 600.6 376.886 601.148 377.132 601.583C377.303 601.867 377.605 602.038 377.908 602.038V602.019Z" fill="#FF0800"/>
<path d="M444.677 570.345C447.893 568.491 448.99 564.366 447.136 561.15C445.282 557.934 441.158 556.836 437.941 558.69C434.725 560.545 433.627 564.669 435.482 567.885C437.336 571.102 441.46 572.199 444.677 570.345Z" fill="#FF0800"/>
<path d="M381.257 606.954C378.04 608.809 373.935 607.711 372.062 604.495C370.208 601.278 371.305 597.173 374.521 595.3C377.738 593.446 381.843 594.543 383.716 597.759C385.571 600.976 384.473 605.081 381.257 606.954Z" fill="#FF0800"/>
<path d="M377.908 602.018C378.211 602.018 378.513 601.867 378.684 601.564C378.93 601.129 378.778 600.58 378.362 600.334L314.961 563.724C314.526 563.478 313.977 563.629 313.731 564.046C313.485 564.481 313.637 565.029 314.053 565.275L377.454 601.886C377.586 601.961 377.757 601.999 377.908 601.999V602.018Z" fill="#FF0800"/>
<path d="M374.54 606.954C377.757 608.809 381.862 607.711 383.735 604.495C385.59 601.278 384.492 597.173 381.276 595.3C378.059 593.446 373.954 594.543 372.081 597.759C370.208 600.976 371.324 605.081 374.54 606.954Z" fill="#FF0800"/>
<path d="M311.139 570.345C307.923 568.491 306.826 564.366 308.68 561.15C310.534 557.934 314.659 556.836 317.875 558.69C321.091 560.545 322.189 564.669 320.335 567.885C318.48 571.102 314.356 572.199 311.139 570.345Z" fill="#FF0800"/>
<path d="M314.488 565.405C314.98 565.405 315.377 565.008 315.377 564.516V491.295C315.377 490.804 314.98 490.406 314.488 490.406C313.996 490.406 313.599 490.804 313.599 491.295V564.516C313.599 565.008 313.996 565.405 314.488 565.405Z" fill="#FF0800"/>
<path d="M307.772 564.513C307.772 568.222 310.78 571.249 314.488 571.249C318.197 571.249 321.205 568.241 321.205 564.532C321.205 560.824 318.197 557.797 314.488 557.797C310.78 557.797 307.753 560.805 307.753 564.513H307.772Z" fill="#FF0800"/>
<path d="M307.772 491.295C307.772 487.586 310.78 484.578 314.507 484.578C318.234 484.578 321.224 487.586 321.224 491.314C321.224 495.022 318.215 498.03 314.507 498.03C310.799 498.03 307.79 495.022 307.79 491.295H307.772Z" fill="#FF0800"/>
<path d="M314.507 492.206C314.659 492.206 314.81 492.169 314.961 492.093L378.343 455.483C378.778 455.237 378.911 454.688 378.665 454.253C378.419 453.818 377.87 453.685 377.435 453.931L314.053 490.541C313.618 490.787 313.486 491.336 313.732 491.771C313.902 492.055 314.205 492.225 314.507 492.225V492.206Z" fill="#FF0800"/>
<path d="M311.139 485.487C307.923 487.341 306.826 491.466 308.68 494.682C310.534 497.899 314.659 498.996 317.875 497.142C321.091 495.288 322.189 491.163 320.335 487.947C318.48 484.73 314.356 483.633 311.139 485.487Z" fill="#FF0800"/>
<path d="M374.54 448.878C377.757 447.024 381.862 448.121 383.735 451.337C385.59 454.554 384.492 458.659 381.276 460.533C378.059 462.387 373.954 461.289 372.081 458.073C370.208 454.857 371.324 450.751 374.54 448.878Z" fill="#FF0800"/>
<path d="M441.309 492.205C441.612 492.205 441.914 492.054 442.085 491.751C442.331 491.316 442.179 490.768 441.763 490.522L378.362 453.911C377.927 453.665 377.378 453.817 377.132 454.233C376.886 454.668 377.038 455.217 377.454 455.463L440.855 492.073C440.987 492.149 441.158 492.187 441.309 492.187V492.205Z" fill="#FF0800"/>
<path d="M381.257 448.878C378.04 447.024 373.935 448.121 372.062 451.337C370.208 454.554 371.305 458.659 374.521 460.533C377.738 462.387 381.843 461.289 383.716 458.073C385.571 454.857 384.473 450.751 381.257 448.878Z" fill="#FF0800"/>
<path d="M444.677 485.487C447.893 487.341 448.99 491.466 447.136 494.682C445.282 497.899 441.158 498.996 437.941 497.142C434.725 495.288 433.627 491.163 435.482 487.947C437.336 484.73 441.46 483.633 444.677 485.487Z" fill="#FF0800"/>
<path d="M314.507 565.405C314.999 565.405 315.396 565.008 315.396 564.516V491.295C315.396 490.804 314.999 490.406 314.507 490.406C314.015 490.406 313.618 490.804 313.618 491.295V564.516C313.618 565.008 314.015 565.405 314.507 565.405Z" fill="#FF0800"/>
<path d="M307.791 564.517C307.791 568.225 310.799 571.233 314.526 571.233C318.253 571.233 321.243 568.225 321.243 564.517C321.243 560.808 318.234 557.781 314.526 557.781C310.818 557.781 307.791 560.79 307.791 564.517Z" fill="#FF0800"/>
<path d="M307.791 491.295C307.791 487.586 310.799 484.578 314.526 484.578C318.253 484.578 321.243 487.586 321.243 491.295C321.243 495.003 318.234 498.03 314.526 498.03C310.818 498.03 307.791 495.022 307.791 491.295Z" fill="#FF0800"/>
<path d="M251.106 602.019C251.258 602.019 251.409 601.981 251.56 601.905L314.961 565.295C315.396 565.049 315.529 564.5 315.283 564.065C315.037 563.649 314.488 563.497 314.053 563.743L250.652 600.354C250.217 600.6 250.085 601.148 250.33 601.583C250.501 601.867 250.804 602.038 251.106 602.038V602.019Z" fill="#FF0800"/>
<path d="M317.875 570.345C321.091 568.491 322.189 564.366 320.335 561.15C318.48 557.934 314.356 556.836 311.139 558.69C307.923 560.545 306.826 564.669 308.68 567.885C310.534 571.102 314.659 572.199 317.875 570.345Z" fill="#FF0800"/>
<path d="M254.474 606.954C251.258 608.809 247.152 607.711 245.279 604.495C243.425 601.278 244.522 597.173 247.738 595.3C250.955 593.446 255.06 594.543 256.934 597.759C258.807 600.976 257.69 605.081 254.474 606.954Z" fill="#FF0800"/>
<path d="M187.705 565.405C188.197 565.405 188.594 565.008 188.594 564.516V491.295C188.594 490.804 188.197 490.406 187.705 490.406C187.213 490.406 186.816 490.804 186.816 491.295V564.516C186.816 565.008 187.213 565.405 187.705 565.405Z" fill="#FF0800"/>
<path d="M180.97 564.513C180.97 568.222 183.978 571.249 187.686 571.249C191.395 571.249 194.403 568.241 194.403 564.532C194.403 560.824 191.395 557.797 187.686 557.797C183.978 557.797 180.97 560.805 180.97 564.513Z" fill="#FF0800"/>
<path d="M180.97 491.295C180.97 487.586 183.978 484.578 187.686 484.578C191.395 484.578 194.422 487.586 194.422 491.314C194.422 495.041 191.414 498.03 187.686 498.03C183.959 498.03 180.97 495.022 180.97 491.295Z" fill="#FF0800"/>
<path d="M187.724 492.206C187.876 492.206 188.027 492.169 188.178 492.093L251.56 455.483C251.996 455.237 252.128 454.688 251.882 454.253C251.636 453.818 251.087 453.685 250.652 453.931L187.27 490.541C186.835 490.787 186.703 491.336 186.949 491.771C187.119 492.055 187.422 492.225 187.724 492.225V492.206Z" fill="#FF0800"/>
<path d="M184.357 485.487C181.14 487.341 180.043 491.466 181.897 494.682C183.751 497.899 187.876 498.996 191.092 497.142C194.308 495.288 195.406 491.163 193.552 487.947C191.697 484.73 187.573 483.633 184.357 485.487Z" fill="#FF0800"/>
<path d="M247.739 448.878C250.955 447.024 255.061 448.121 256.934 451.337C258.788 454.554 257.691 458.659 254.474 460.533C251.258 462.387 247.152 461.289 245.279 458.073C243.425 454.857 244.522 450.751 247.739 448.878Z" fill="#FF0800"/>
<path d="M377.908 675.218C378.4 675.218 378.797 674.82 378.797 674.328V601.108C378.797 600.616 378.4 600.219 377.908 600.219C377.416 600.219 377.019 600.616 377.019 601.108V674.328C377.019 674.82 377.416 675.218 377.908 675.218Z" fill="#FF0800"/>
<path d="M371.173 674.33C371.173 678.038 374.181 681.065 377.889 681.065C381.598 681.065 384.625 678.057 384.625 674.349C384.625 670.641 381.616 667.632 377.908 667.613C374.2 667.613 371.192 670.622 371.192 674.33H371.173Z" fill="#FF0800"/>
<path d="M371.173 601.127C371.173 597.418 374.181 594.41 377.889 594.41C381.597 594.41 384.606 597.418 384.606 601.146C384.606 604.873 381.597 607.862 377.889 607.862C374.181 607.862 371.173 604.854 371.173 601.127Z" fill="#FF0800"/>
<path d="M377.908 602.019C378.059 602.019 378.211 601.981 378.362 601.905L441.744 565.295C442.179 565.049 442.312 564.5 442.066 564.065C441.82 563.649 441.271 563.497 440.836 563.743L377.454 600.354C377.019 600.6 376.886 601.148 377.132 601.583C377.303 601.867 377.605 602.038 377.908 602.038V602.019Z" fill="#FF0800"/>
<path d="M374.559 595.3C371.343 597.154 370.245 601.278 372.1 604.495C373.954 607.711 378.078 608.809 381.295 606.954C384.511 605.1 385.608 600.976 383.754 597.759C381.9 594.543 377.776 593.446 374.559 595.3Z" fill="#FF0800"/>
<path d="M437.941 558.69C441.158 556.836 445.263 557.934 447.136 561.15C448.99 564.366 447.893 568.472 444.677 570.345C441.46 572.199 437.355 571.102 435.482 567.885C433.627 564.669 434.725 560.563 437.941 558.69Z" fill="#FF0800"/>
<path d="M377.908 675.218C378.4 675.218 378.797 674.82 378.797 674.328V601.108C378.797 600.616 378.4 600.219 377.908 600.219C377.416 600.219 377.019 600.616 377.019 601.108V674.328C377.019 674.82 377.416 675.218 377.908 675.218Z" fill="#FF0800"/>
<path d="M371.191 674.329C371.191 678.038 374.2 681.046 377.908 681.046C381.616 681.046 384.644 678.038 384.644 674.329C384.644 670.621 381.635 667.594 377.908 667.594C374.181 667.594 371.191 670.602 371.191 674.329Z" fill="#FF0800"/>
<path d="M371.191 601.126C371.191 597.418 374.2 594.391 377.908 594.391C381.616 594.391 384.644 597.399 384.644 601.126C384.644 604.853 381.635 607.843 377.908 607.843C374.181 607.843 371.191 604.834 371.191 601.126Z" fill="#FF0800"/>
<path d="M314.507 711.828C314.659 711.828 314.81 711.79 314.961 711.714L378.362 675.104C378.797 674.858 378.93 674.309 378.684 673.874C378.438 673.439 377.889 673.306 377.454 673.552L314.053 710.163C313.618 710.408 313.485 710.957 313.731 711.392C313.902 711.676 314.204 711.846 314.507 711.846V711.828Z" fill="#FF0800"/>
<path d="M381.276 680.154C384.492 678.299 385.59 674.175 383.735 670.959C381.881 667.742 377.757 666.645 374.54 668.499C371.324 670.353 370.227 674.478 372.081 677.694C373.935 680.91 378.059 682.008 381.276 680.154Z" fill="#FF0800"/>
<path d="M317.875 716.763C314.659 718.617 310.553 717.52 308.68 714.303C306.826 711.087 307.923 706.981 311.139 705.108C314.356 703.254 318.461 704.352 320.335 707.568C322.189 710.784 321.091 714.89 317.875 716.763Z" fill="#FF0800"/>
<path d="M314.507 711.827C314.81 711.827 315.113 711.675 315.283 711.373C315.529 710.937 315.377 710.389 314.961 710.143L251.56 673.533C251.125 673.287 250.576 673.438 250.331 673.854C250.085 674.289 250.236 674.838 250.652 675.084L314.053 711.694C314.186 711.77 314.356 711.808 314.507 711.808V711.827Z" fill="#FF0800"/>
<path d="M311.139 716.764C314.356 718.618 318.461 717.52 320.335 714.304C322.189 711.088 321.091 706.982 317.875 705.109C314.659 703.236 310.553 704.352 308.68 707.569C306.826 710.785 307.923 714.891 311.139 716.764Z" fill="#FF0800"/>
<path d="M247.739 680.154C244.522 678.299 243.425 674.175 245.279 670.959C247.133 667.742 251.258 666.645 254.474 668.499C257.691 670.353 258.788 674.478 256.934 677.694C255.08 680.91 250.955 682.008 247.739 680.154Z" fill="#FF0800"/>
<path d="M251.106 675.218C251.598 675.218 251.996 674.82 251.996 674.328V601.108C251.996 600.616 251.598 600.219 251.106 600.219C250.614 600.219 250.217 600.616 250.217 601.108V674.328C250.217 674.82 250.614 675.218 251.106 675.218Z" fill="#FF0800"/>
<path d="M244.39 674.33C244.39 678.038 247.398 681.065 251.125 681.065C254.852 681.065 257.842 678.057 257.842 674.349C257.842 670.641 254.834 667.632 251.125 667.613C247.417 667.613 244.409 670.622 244.39 674.33Z" fill="#FF0800"/>
<path d="M244.39 601.127C244.39 597.418 247.398 594.41 251.106 594.41C254.815 594.41 257.842 597.418 257.842 601.146C257.842 604.854 254.834 607.862 251.106 607.862C247.379 607.862 244.39 604.854 244.39 601.127Z" fill="#FF0800"/>
<path d="M251.125 602.019C251.277 602.019 251.428 601.981 251.579 601.905L314.961 565.295C315.396 565.049 315.529 564.5 315.283 564.065C315.037 563.649 314.488 563.497 314.053 563.743L250.671 600.354C250.236 600.6 250.103 601.148 250.349 601.583C250.52 601.867 250.822 602.038 251.125 602.038V602.019Z" fill="#FF0800"/>
<path d="M247.758 595.3C244.541 597.154 243.444 601.278 245.298 604.495C247.152 607.711 251.277 608.809 254.493 606.954C257.71 605.1 258.807 600.976 256.953 597.759C255.099 594.543 250.974 593.446 247.758 595.3Z" fill="#FF0800"/>
<path d="M311.139 558.69C314.356 556.836 318.461 557.934 320.335 561.15C322.189 564.366 321.091 568.472 317.875 570.345C314.659 572.199 310.553 571.102 308.68 567.885C306.826 564.669 307.923 560.563 311.139 558.69Z" fill="#FF0800"/>
<path d="M377.908 602.018C378.211 602.018 378.513 601.867 378.684 601.564C378.93 601.129 378.778 600.58 378.362 600.334L314.961 563.724C314.526 563.478 313.977 563.629 313.731 564.046C313.485 564.481 313.637 565.029 314.053 565.275L377.454 601.886C377.586 601.961 377.757 601.999 377.908 601.999V602.018Z" fill="#FF0800"/>
<path d="M317.875 558.69C314.659 556.836 310.553 557.934 308.68 561.15C306.826 564.366 307.923 568.472 311.139 570.345C314.356 572.199 318.461 571.102 320.335 567.885C322.189 564.669 321.091 560.563 317.875 558.69Z" fill="#FF0800"/>
<path d="M381.276 595.3C384.492 597.154 385.59 601.278 383.735 604.495C381.881 607.711 377.757 608.809 374.54 606.954C371.324 605.1 370.227 600.976 372.081 597.759C373.935 594.543 378.059 593.446 381.276 595.3Z" fill="#FF0800"/>
<path d="M314.488 785.05C314.98 785.05 315.377 784.652 315.377 784.16V710.94C315.377 710.448 314.98 710.051 314.488 710.051C313.996 710.051 313.599 710.448 313.599 710.94V784.16C313.599 784.652 313.996 785.05 314.488 785.05Z" fill="#FF0800"/>
<path d="M307.772 784.158C307.772 787.866 310.78 790.875 314.488 790.893C318.197 790.893 321.205 787.885 321.205 784.158C321.205 780.431 318.197 777.441 314.488 777.441C310.78 777.441 307.753 780.45 307.753 784.158H307.772Z" fill="#FF0800"/>
<path d="M307.772 710.939C307.772 707.231 310.78 704.204 314.507 704.223C318.215 704.223 321.224 707.231 321.224 710.958C321.224 714.667 318.215 717.675 314.507 717.675C310.799 717.675 307.79 714.667 307.79 710.958L307.772 710.939Z" fill="#FF0800"/>
<path d="M314.507 711.828C314.659 711.828 314.81 711.79 314.961 711.714L378.343 675.104C378.778 674.858 378.911 674.309 378.665 673.874C378.419 673.439 377.87 673.306 377.435 673.552L314.053 710.163C313.618 710.408 313.486 710.957 313.732 711.392C313.902 711.676 314.205 711.846 314.507 711.846V711.828Z" fill="#FF0800"/>
<path d="M311.139 705.108C307.923 706.962 306.826 711.087 308.68 714.303C310.534 717.52 314.659 718.617 317.875 716.763C321.091 714.909 322.189 710.784 320.335 707.568C318.48 704.352 314.356 703.254 311.139 705.108Z" fill="#FF0800"/>
<path d="M374.54 668.499C377.757 666.645 381.862 667.742 383.735 670.959C385.59 674.175 384.492 678.281 381.276 680.154C378.059 682.008 373.954 680.91 372.081 677.694C370.227 674.478 371.324 670.372 374.54 668.499Z" fill="#FF0800"/>
<path d="M314.507 785.05C314.999 785.05 315.396 784.652 315.396 784.16V710.94C315.396 710.448 314.999 710.051 314.507 710.051C314.015 710.051 313.618 710.448 313.618 710.94V784.16C313.618 784.652 314.015 785.05 314.507 785.05Z" fill="#FF0800"/>
<path d="M307.791 784.158C307.791 787.866 310.799 790.893 314.526 790.893C318.253 790.893 321.243 787.885 321.243 784.158C321.243 780.431 318.234 777.441 314.526 777.441C310.818 777.441 307.791 780.45 307.791 784.158Z" fill="#FF0800"/>
<path d="M307.791 710.939C307.791 707.231 310.799 704.223 314.526 704.223C318.253 704.223 321.243 707.231 321.243 710.939C321.243 714.648 318.234 717.656 314.526 717.656C310.818 717.656 307.791 714.648 307.791 710.939Z" fill="#FF0800"/>
<path d="M251.106 821.656C251.258 821.656 251.409 821.618 251.56 821.542L314.961 784.932C315.396 784.686 315.529 784.137 315.283 783.702C315.037 783.267 314.488 783.134 314.053 783.38L250.652 819.991C250.217 820.237 250.085 820.785 250.33 821.22C250.501 821.504 250.804 821.675 251.106 821.675V821.656Z" fill="#FF0800"/>
<path d="M317.875 789.966C321.091 788.112 322.189 783.987 320.335 780.771C318.48 777.555 314.356 776.457 311.139 778.311C307.923 780.166 306.826 784.29 308.68 787.507C310.534 790.723 314.659 791.82 317.875 789.966Z" fill="#FF0800"/>
<path d="M254.474 826.576C251.258 828.43 247.152 827.332 245.279 824.116C243.425 820.9 244.522 816.794 247.738 814.921C250.955 813.067 255.06 814.164 256.934 817.38C258.807 820.597 257.69 824.702 254.474 826.576Z" fill="#FF0800"/>
<path d="M251.106 821.659C251.409 821.659 251.712 821.507 251.882 821.205C252.128 820.769 251.977 820.221 251.56 819.975L188.159 783.365C187.724 783.119 187.176 783.27 186.93 783.686C186.684 784.121 186.835 784.67 187.251 784.916L250.652 821.526C250.785 821.602 250.955 821.64 251.106 821.64V821.659Z" fill="#FF0800"/>
<path d="M247.739 826.576C250.955 828.43 255.061 827.332 256.934 824.116C258.788 820.9 257.691 816.794 254.474 814.921C251.258 813.067 247.152 814.164 245.279 817.38C243.425 820.597 244.522 824.702 247.739 826.576Z" fill="#FF0800"/>
<path d="M184.338 789.966C181.121 788.112 180.024 783.987 181.878 780.771C183.732 777.555 187.857 776.457 191.073 778.311C194.29 780.166 195.387 784.29 193.533 787.507C191.679 790.723 187.554 791.82 184.338 789.966Z" fill="#FF0800"/>
<path d="M187.705 785.05C188.197 785.05 188.594 784.652 188.594 784.16V710.94C188.594 710.448 188.197 710.051 187.705 710.051C187.213 710.051 186.816 710.448 186.816 710.94V784.16C186.816 784.652 187.213 785.05 187.705 785.05Z" fill="#FF0800"/>
<path d="M180.97 784.158C180.97 787.866 183.978 790.875 187.686 790.893C191.395 790.893 194.403 787.885 194.403 784.158C194.403 780.431 191.395 777.441 187.686 777.441C183.978 777.441 180.97 780.45 180.97 784.158Z" fill="#FF0800"/>
<path d="M180.97 710.939C180.97 707.231 183.978 704.204 187.686 704.223C191.395 704.223 194.422 707.231 194.422 710.958C194.422 714.686 191.414 717.675 187.686 717.675C183.959 717.675 180.97 714.667 180.97 710.958V710.939Z" fill="#FF0800"/>
<path d="M187.724 711.828C187.876 711.828 188.027 711.79 188.178 711.714L251.56 675.104C251.996 674.858 252.128 674.309 251.882 673.874C251.636 673.439 251.087 673.306 250.652 673.552L187.27 710.163C186.835 710.408 186.703 710.957 186.949 711.392C187.119 711.676 187.422 711.846 187.724 711.846V711.828Z" fill="#FF0800"/>
<path d="M184.357 705.108C181.14 706.962 180.043 711.087 181.897 714.303C183.751 717.52 187.876 718.617 191.092 716.763C194.308 714.909 195.406 710.784 193.552 707.568C191.697 704.352 187.573 703.254 184.357 705.108Z" fill="#FF0800"/>
<path d="M247.739 668.499C250.955 666.645 255.061 667.742 256.934 670.959C258.788 674.175 257.691 678.281 254.474 680.154C251.258 682.008 247.152 680.91 245.279 677.694C243.425 674.478 244.522 670.372 247.739 668.499Z" fill="#FF0800"/>
<path d="M314.507 711.827C314.81 711.827 315.113 711.675 315.283 711.373C315.529 710.937 315.377 710.389 314.961 710.143L251.56 673.533C251.125 673.287 250.576 673.438 250.331 673.854C250.085 674.289 250.236 674.838 250.652 675.084L314.053 711.694C314.186 711.77 314.356 711.808 314.507 711.808V711.827Z" fill="#FF0800"/>
<path d="M254.474 668.499C251.258 666.645 247.152 667.742 245.279 670.959C243.425 674.175 244.522 678.281 247.738 680.154C250.955 682.008 255.06 680.91 256.934 677.694C258.807 674.478 257.69 670.372 254.474 668.499Z" fill="#FF0800"/>
<path d="M317.875 705.108C321.091 706.962 322.189 711.087 320.335 714.303C318.48 717.52 314.356 718.617 311.139 716.763C307.923 714.909 306.826 710.784 308.68 707.568C310.534 704.352 314.659 703.254 317.875 705.108Z" fill="#FF0800"/>
<path d="M251.106 894.859C251.598 894.859 251.996 894.462 251.996 893.97V820.768C251.996 820.276 251.598 819.879 251.106 819.879C250.614 819.879 250.217 820.276 250.217 820.768V893.97C250.217 894.462 250.614 894.859 251.106 894.859Z" fill="#FF0800"/>
<path d="M244.39 893.967C244.39 897.675 247.398 900.702 251.125 900.702C254.852 900.702 257.842 897.694 257.842 893.967C257.842 890.258 254.834 887.25 251.125 887.25C247.417 887.25 244.409 890.258 244.39 893.967Z" fill="#FF0800"/>
<path d="M244.39 820.748C244.39 817.04 247.398 814.031 251.106 814.031C254.815 814.031 257.842 817.04 257.842 820.767C257.842 824.475 254.834 827.483 251.106 827.483C247.379 827.483 244.39 824.475 244.39 820.748Z" fill="#FF0800"/>
<path d="M251.125 821.66C251.277 821.66 251.428 821.622 251.579 821.546L314.961 784.936C315.396 784.69 315.529 784.141 315.283 783.706C315.037 783.271 314.488 783.138 314.053 783.384L250.671 819.995C250.236 820.241 250.103 820.789 250.349 821.224C250.52 821.508 250.822 821.678 251.125 821.678V821.66Z" fill="#FF0800"/>
<path d="M247.758 814.921C244.541 816.775 243.444 820.9 245.298 824.116C247.152 827.332 251.277 828.43 254.493 826.576C257.71 824.721 258.807 820.597 256.953 817.38C255.099 814.164 250.974 813.067 247.758 814.921Z" fill="#FF0800"/>
<path d="M311.139 778.331C314.356 776.477 318.461 777.574 320.335 780.791C322.189 784.007 321.091 788.113 317.875 789.986C314.659 791.84 310.553 790.742 308.68 787.526C306.826 784.31 307.923 780.204 311.139 778.331Z" fill="#FF0800"/>
<path d="M187.724 931.472C187.876 931.472 188.027 931.434 188.178 931.359L251.56 894.748C251.996 894.502 252.128 893.954 251.882 893.519C251.636 893.083 251.087 892.951 250.652 893.197L187.27 929.807C186.835 930.053 186.703 930.602 186.949 931.037C187.119 931.321 187.422 931.491 187.724 931.491V931.472Z" fill="#FF0800"/>
<path d="M184.357 924.753C181.14 926.607 180.043 930.732 181.897 933.948C183.751 937.164 187.876 938.262 191.092 936.408C194.308 934.553 195.406 930.429 193.552 927.212C191.697 923.996 187.573 922.899 184.357 924.753Z" fill="#FF0800"/>
<path d="M247.739 888.143C250.955 886.289 255.061 887.387 256.934 890.603C258.788 893.819 257.691 897.925 254.474 899.798C251.258 901.652 247.152 900.555 245.279 897.339C243.425 894.122 244.522 890.017 247.739 888.143Z" fill="#FF0800"/>
</g>
</svg>
