<svg width="353" height="834" viewBox="0 0 353 834" fill="none" xmlns="http://www.w3.org/2000/svg">
<path fillRule="evenodd" clipRule="evenodd" d="M352.157 112.339L352.424 111.877L352.157 111.414L320.127 55.9378L319.861 55.4755L319.327 55.4755L255.268 55.4755L254.734 55.4755L254.467 55.9378L222.705 110.951L159.274 110.951L158.74 110.951L158.473 111.413L126.707 166.433L63.7222 166.433L32.2242 111.877L63.9861 56.8636L64.253 56.4013L63.9861 55.9389L31.9566 0.462292L31.6897 -1.40197e-05L31.1559 -1.40431e-05L-32.903 -1.68432e-05L-33.4368 -1.68665e-05L-33.7037 0.462289L-65.7332 55.9389L-66.0001 56.4013L-65.7332 56.8636L-33.9713 111.877L-65.7332 166.89L-66.0001 167.352L-65.7332 167.815L-33.9695 222.831L-65.7332 277.847L-66.0001 278.31L-65.7332 278.772L-33.7038 334.249L-33.4369 334.711L-32.903 334.711L30.5336 334.711L62.0279 389.261L30.2661 444.274L29.9991 444.736L30.2661 445.198L62.2955 500.675L62.5624 501.137L63.0962 501.137L126.712 501.137L158.207 555.688L126.71 610.242L63.72 610.242L31.9566 555.227L31.6897 554.764L31.1559 554.764L-32.903 554.764L-33.4369 554.764L-33.7038 555.227L-65.7332 610.703L-66.0001 611.166L-65.7332 611.628L-33.9697 666.644L-65.7332 721.66L-66.0001 722.122L-65.7332 722.585L-33.7038 778.061L-33.4369 778.524L-32.9031 778.524L30.5333 778.524L62.2955 833.537L62.5624 834L63.0962 834L127.155 834L127.689 834L127.956 833.537L159.718 778.524L222.705 778.524L254.467 833.537L254.734 834L255.268 834L319.327 834L319.861 834L320.127 833.537L352.157 778.061L352.424 777.599L352.157 777.136L320.394 722.121L352.157 667.106L352.424 666.644L352.157 666.181L320.127 610.705L319.861 610.243L319.327 610.243L255.897 610.243L224.4 555.688L256.163 500.673L256.43 500.21L256.163 499.748L224.401 444.735L256.163 389.722L256.43 389.259L256.163 388.797L224.133 333.32L223.866 332.858L223.333 332.858L159.717 332.858L128.223 278.31L159.721 223.754L223.333 223.754L223.866 223.754L224.133 223.291L255.895 168.278L319.327 168.278L319.861 168.278L320.127 167.816L352.157 112.339ZM30.5341 667.57L62.029 722.121L30.5326 776.674L-32.3692 776.674L-63.8648 722.122L-32.3692 667.57L30.5341 667.57ZM32.1791 777.676L63.6301 832.151L126.621 832.151L158.117 777.599L126.621 723.047L63.7195 723.047L32.1791 777.676ZM63.718 721.196L126.621 721.196L158.117 666.644L126.621 612.092L63.7184 612.092L32.2225 666.644L63.718 721.196ZM30.622 556.614L62.0735 611.089L30.5337 665.718L-32.3692 665.718L-63.8648 611.166L-32.3692 556.614L30.622 556.614ZM30.5323 223.758L62.0279 278.31L30.5323 332.862L-32.3692 332.862L-63.8648 278.31L-32.3692 223.758L30.5323 223.758ZM32.1793 333.863L63.6287 388.335L126.623 388.335L158.117 333.785L126.623 279.235L63.7185 279.235L32.1793 333.863ZM63.7185 277.384L126.623 277.384L158.117 222.834L126.621 168.282L63.7162 168.282L32.2224 222.831L63.7185 277.384ZM30.6234 112.803L62.0747 167.278L30.536 221.904L-32.3692 221.904L-63.8648 167.352L-32.3705 112.803L30.6234 112.803ZM62.1177 56.4013L30.6234 110.951L-32.3705 110.951L-63.8648 56.4012L-32.3692 1.84921L30.6221 1.84921L62.1177 56.4013ZM224.399 666.644L255.895 721.196L318.793 721.196L350.289 666.644L318.793 612.092L255.895 612.092L224.399 666.644ZM255.896 723.047L224.353 777.68L255.802 832.151L318.793 832.151L350.288 777.599L318.793 723.047L255.896 723.047ZM159.807 667.57L222.706 667.57L254.201 722.121L222.704 776.674L159.807 776.674L128.312 722.122L159.807 667.57ZM254.248 611.085L222.799 556.614L159.807 556.614L128.312 611.166L159.807 665.718L222.705 665.718L254.248 611.085ZM159.806 443.809L222.8 443.809L254.294 389.259L222.799 334.707L159.807 334.707L128.312 389.259L159.806 443.809ZM128.312 500.21L159.806 445.661L222.8 445.661L254.294 500.21L222.799 554.762L159.807 554.762L128.312 500.21ZM224.353 111.795L255.896 166.429L318.793 166.429L350.289 111.877L318.793 57.3247L255.802 57.3247L224.353 111.795ZM159.807 112.8L222.704 112.8L254.247 167.434L222.799 221.904L159.807 221.904L128.312 167.352L159.807 112.8ZM63.6287 390.186L126.623 390.186L158.117 444.736L126.621 499.288L63.6301 499.288L32.1344 444.736L63.6287 390.186Z" fill="url(#paint0_linear_189_1759)"/>
<defs>
<linearGradient id="paint0_linear_189_1759" x1="85.5" y1="834" x2="104" y2="-53.5" gradientUnits="userSpaceOnUse">
<stop stopColor="#09091B"/>
<stop offset="1" stopColor="#FF0800"/>
</linearGradient>
</defs>
</svg>
