<svg fill="none" height="796" viewBox="0 0 337 796" width="337" xmlns="http://www.w3.org/2000/svg"><g fill="#ff0800" opacity=".3"><path d="m-34.3335 44.5288c-.2548 0-.5095-.1274-.6528-.3821-.2069-.3661-.0795-.8278.2707-1.0348l53.3479-30.8052c.3661-.2069.8279-.0796 1.0348.2707.207.3661.0796.8278-.2706 1.0348l-53.348 30.8052c-.1114.0636-.2547.0955-.382.0955z"/><path d="m21.8471 17.8776c2.7064-1.5602 3.6297-5.0307 2.0695-7.7371-1.5601-2.70643-5.0306-3.62979-7.737-2.06963s-3.6298 5.03073-2.0697 7.73713c1.5602 2.7064 5.0308 3.6297 7.7372 2.0696z"/><path d="m19.014 136.946c-.1274 0-.2547-.032-.3821-.095l-53.3479-30.806c-.3662-.207-.4776-.668-.2707-1.034.207-.367.6687-.478 1.0348-.271l53.348 30.805c.3661.207.4776.669.2706 1.035-.1433.239-.398.382-.6527.382z"/><path d="m16.1951 141.085c2.7064 1.56 6.1611.636 7.7372-2.07 1.5601-2.706.6368-6.161-2.0696-7.737-2.7064-1.56-6.1611-.637-7.7371 2.07-1.5602 2.706-.6369 6.161 2.0695 7.737z"/><path d="m19.0141 136.947c-.2547 0-.5094-.128-.6527-.382-.207-.366-.0796-.828.2706-1.035l53.348-30.805c.3661-.207.8278-.08 1.0347.27.207.351.0797.828-.2706 1.035l-53.3479 30.805c-.1114.064-.2547.096-.3821.096z"/><path d="m21.8471 141.085c-2.7064 1.56-6.1611.636-7.7372-2.07-1.5601-2.706-.6367-6.161 2.0697-7.737 2.7064-1.56 6.161-.637 7.737 2.07 1.5602 2.706.6369 6.161-2.0695 7.737z"/><path d="m75.1947 110.296c2.7064-1.561 3.6298-5.031 2.0696-7.738-1.5601-2.706-5.0307-3.6293-7.7371-2.069-2.7064 1.56-3.6298 5.031-2.0696 7.737s5.0307 3.63 7.7371 2.07z"/><path d="m-34.3335 44.5288c-.2548 0-.5095-.1274-.6528-.3821-.2069-.3661-.0795-.8278.2707-1.0348l53.3479-30.8052c.3661-.2069.8279-.0796 1.0348.2707.207.3661.0796.8278-.2706 1.0348l-53.348 30.8052c-.1114.0636-.2547.0955-.382.0955z"/><path d="m16.1951 8.08649c2.7064-1.56016 6.1611-.6368 7.7372 2.06961 1.5601 2.7064.6368 6.161-2.0696 7.7371s-6.1611.6368-7.7371-2.0696c-1.5602-2.7064-.6369-6.16103 2.0695-7.73711z"/><path d="m125.709 136.946c-.127 0-.254-.032-.382-.095l-53.3477-30.806c-.3661-.207-.4776-.668-.2706-1.034.2069-.367.6686-.478 1.0348-.271l53.3475 30.805c.367.207.478.669.271 1.035-.143.239-.398.382-.653.382z"/><path d="m69.5272 110.296c-2.7064-1.561-3.6298-5.031-2.0696-7.738 1.5602-2.706 5.0307-3.6293 7.7371-2.069 2.7064 1.56 3.6298 5.031 2.0696 7.737-1.5601 2.706-5.0307 3.63-7.7371 2.07z"/><path d="m122.875 141.085c2.706 1.56 6.161.636 7.737-2.07 1.56-2.706.637-6.161-2.07-7.737-2.706-1.56-6.161-.637-7.737 2.07-1.56 2.706-.637 6.161 2.07 7.737z"/><path d="m-34.3335 229.345c-.2548 0-.5095-.127-.6528-.382-.2069-.366-.0795-.828.2707-1.035l53.3479-30.805c.3661-.207.8279-.079 1.0348.271.207.366.0796.828-.2706 1.035l-53.348 30.805c-.1114.063-.2547.095-.382.095z"/><path d="m21.8471 202.694c2.7064-1.56 3.6297-5.031 2.0695-7.737-1.5601-2.707-5.0306-3.63-7.737-2.07s-3.6298 5.031-2.0697 7.737c1.5602 2.707 5.0308 3.63 7.7372 2.07z"/><path d="m19.0158 198.536c-.4139 0-.7482-.334-.7482-.748v-61.594c0-.414.3343-.749.7482-.749s.7483.335.7483.749v61.594c0 .414-.3344.748-.7483.748z"/><path d="m24.6824 197.788c0 3.121-2.5313 5.652-5.6516 5.668-3.1203 0-5.6675-2.531-5.6675-5.652 0-3.12 2.5313-5.667 5.6516-5.667s5.6516 2.531 5.6516 5.651z"/><path d="m24.6821 136.179c0-3.12-2.5313-5.652-5.6516-5.652s-5.6516 2.532-5.6516 5.668 2.5313 5.651 5.6516 5.651 5.6516-2.531 5.6516-5.667z"/><path d="m19.0137 136.946c-.1274 0-.2547-.032-.3821-.095l-53.332-30.806c-.3662-.207-.4776-.668-.2706-1.034.2069-.367.6686-.478 1.0348-.271l53.332 30.805c.3661.207.4776.669.2706 1.035-.1432.239-.398.382-.6527.382z"/><path d="m21.8314 131.294c2.7064 1.56 3.6297 5.03 2.0696 7.737-1.5602 2.706-5.0307 3.629-7.7371 2.069s-3.6297-5.03-2.0696-7.737c1.5602-2.706 5.0307-3.63 7.7371-2.069z"/><path d="m19.0139 198.536c-.414 0-.7483-.334-.7483-.748v-61.594c0-.414.3343-.749.7483-.749.4139 0 .7482.335.7482.749v61.594c0 .414-.3343.748-.7482.748z"/><path d="m24.6648 197.788c0 3.121-2.5313 5.668-5.6516 5.668s-5.6675-2.531-5.6675-5.668c0-3.136 2.5313-5.651 5.6675-5.651 3.1363 0 5.6516 2.531 5.6516 5.651z"/><path d="m24.6648 136.179c0-3.12-2.5313-5.652-5.6516-5.652s-5.6675 2.532-5.6675 5.652 2.5313 5.667 5.6675 5.667c3.1363 0 5.6516-2.531 5.6516-5.667z"/><path d="m72.3616 229.344c-.1273 0-.2547-.031-.382-.095l-53.348-30.805c-.3661-.207-.4775-.669-.2706-1.035.207-.366.6686-.478 1.0348-.271l53.3479 30.806c.3662.206.4776.668.2707 1.034-.1433.239-.3981.382-.6528.382z"/><path d="m16.1796 202.694c-2.7064-1.56-3.6298-5.031-2.0697-7.737 1.5602-2.707 5.0308-3.63 7.7372-2.07s3.6297 5.031 2.0695 7.737c-1.5601 2.707-5.0306 3.63-7.737 2.07z"/><path d="m69.5272 233.499c2.7064 1.56 6.161.636 7.7371-2.07 1.5602-2.706.6368-6.161-2.0696-7.737-2.7064-1.56-6.161-.637-7.7371 2.07-1.5602 2.706-.6368 6.161 2.0696 7.737z"/><path d="m72.3618 229.345c-.2547 0-.5095-.127-.6528-.382-.2069-.366-.0795-.828.2707-1.035l53.3483-30.805c.366-.207.827-.079 1.034.271.207.366.08.828-.27 1.035l-53.3481 30.805c-.1115.063-.2548.095-.3821.095z"/><path d="m75.1947 233.499c-2.7064 1.56-6.161.636-7.7371-2.07-1.5602-2.706-.6368-6.161 2.0696-7.737 2.7064-1.56 6.161-.637 7.7371 2.07 1.5602 2.706.6368 6.161-2.0696 7.737z"/><path d="m128.542 202.694c2.707-1.56 3.63-5.031 2.07-7.737-1.56-2.707-5.031-3.63-7.737-2.07-2.707 1.56-3.63 5.031-2.07 7.737 1.56 2.707 5.031 3.63 7.737 2.07z"/><path d="m125.711 198.536c-.414 0-.748-.334-.748-.748v-61.594c0-.414.334-.749.748-.749s.748.335.748.749v61.594c0 .414-.334.748-.748.748z"/><path d="m131.362 197.788c0 3.121-2.531 5.652-5.667 5.668-3.121 0-5.652-2.531-5.652-5.652 0-3.12 2.531-5.667 5.652-5.667 3.12 0 5.651 2.531 5.667 5.651z"/><path d="m131.362 136.179c0-3.12-2.531-5.652-5.652-5.652-3.12 0-5.667 2.532-5.667 5.668 0 3.12 2.531 5.651 5.667 5.651 3.121 0 5.652-2.531 5.652-5.667z"/><path d="m125.693 136.946c-.127 0-.254-.032-.382-.095l-53.3317-30.806c-.3661-.207-.4776-.668-.2706-1.034.2069-.367.6686-.478 1.0348-.271l53.3315 30.805c.367.207.478.669.271 1.035-.143.239-.398.382-.653.382z"/><path d="m128.527 131.294c2.706 1.56 3.63 5.03 2.069 7.737-1.56 2.706-5.03 3.629-7.737 2.069-2.706-1.56-3.63-5.03-2.069-7.737 1.56-2.706 5.03-3.63 7.737-2.069z"/><path d="m75.1947 100.489c-2.7064-1.5603-6.161-.637-7.7371 2.069-1.5602 2.707-.6368 6.161 2.0696 7.738 2.7064 1.56 6.161.636 7.7371-2.07 1.5602-2.706.6368-6.161-2.0696-7.737z"/><path d="m19.0141 136.947c-.2547 0-.5094-.128-.6527-.382-.207-.366-.0796-.828.2706-1.035l53.348-30.805c.3661-.207.8278-.08 1.0347.27.207.351.0797.828-.2706 1.035l-53.3479 30.805c-.1114.064-.2547.096-.3821.096z"/><path d="m69.5272 100.489c2.7064-1.5603 6.161-.637 7.7371 2.069 1.5602 2.707.6368 6.161-2.0696 7.738-2.7064 1.56-6.161.636-7.7371-2.07-1.5602-2.706-.6368-6.161 2.0696-7.737z"/><path d="m16.1796 131.294c-2.7064 1.56-3.6298 5.03-2.0697 7.737 1.5602 2.706 5.0308 3.629 7.7372 2.069s3.6297-5.03 2.0695-7.737c-1.5601-2.706-5.0306-3.63-7.737-2.069z"/><path d="m19.014 321.743c-.1274 0-.2547-.032-.3821-.096l-53.3479-30.805c-.3662-.207-.4776-.668-.2707-1.035.207-.366.6687-.477 1.0348-.27l53.348 30.805c.3661.207.4776.669.2706 1.035-.1433.239-.398.382-.6527.382z"/><path d="m16.1951 325.897c2.7064 1.56 6.1611.637 7.7372-2.069 1.5601-2.707.6368-6.162-2.0696-7.738-2.7064-1.56-6.1611-.636-7.7371 2.07-1.5602 2.706-.6369 6.161 2.0695 7.737z"/><path d="m19.0141 321.744c-.2547 0-.5094-.128-.6527-.382-.207-.367-.0796-.828.2706-1.035l53.348-30.805c.3661-.207.8278-.08 1.0347.27.207.366.0797.828-.2706 1.035l-53.3479 30.805c-.1114.064-.2547.096-.3821.096z"/><path d="m21.8471 325.897c-2.7064 1.56-6.1611.637-7.7372-2.069-1.5601-2.707-.6367-6.162 2.0697-7.738 2.7064-1.56 6.161-.636 7.737 2.07 1.5761 2.706.6369 6.161-2.0695 7.737z"/><path d="m75.1947 295.092c2.7064-1.56 3.6298-5.03 2.0696-7.737-1.5601-2.706-5.0307-3.629-7.7371-2.069s-3.6298 5.03-2.0696 7.737c1.5602 2.706 5.0307 3.63 7.7371 2.069z"/><path d="m72.3791 290.955c-.4139 0-.7482-.335-.7482-.749v-61.61c0-.414.3343-.748.7482-.748s.7482.334.7482.748v61.61c0 .414-.3343.749-.7482.749z"/><path d="m78.0297 290.191c0 3.12-2.5312 5.667-5.6516 5.667-3.1203 0-5.6515-2.531-5.6515-5.651 0-3.121 2.5312-5.652 5.6515-5.668 3.1204 0 5.6676 2.531 5.6676 5.652z"/><path d="m78.03 228.597c0-3.12-2.5312-5.667-5.6675-5.667-3.1362 0-5.6516 2.531-5.6516 5.667 0 3.121 2.5313 5.652 5.6516 5.652s5.6516-2.531 5.6516-5.652z"/><path d="m72.3614 229.344c-.1274 0-.2548-.031-.3821-.095l-53.332-30.805c-.3662-.207-.4776-.669-.2707-1.035.207-.366.6687-.478 1.0349-.271l53.332 30.806c.3661.206.4775.668.2706 1.034-.1433.239-.398.382-.6527.382z"/><path d="m75.1947 223.692c2.7064 1.56 3.6298 5.031 2.0696 7.737-1.5601 2.706-5.0307 3.63-7.7371 2.07s-3.6298-5.031-2.0696-7.737c1.5602-2.707 5.0307-3.63 7.7371-2.07z"/><path d="m21.8471 192.887c-2.7064-1.56-6.1611-.637-7.7372 2.07-1.5601 2.706-.6367 6.161 2.0697 7.737 2.7064 1.56 6.161.637 7.737-2.07 1.5602-2.706.6369-6.161-2.0695-7.737z"/><path d="m-34.3335 229.345c-.2548 0-.5095-.127-.6528-.382-.2069-.366-.0795-.828.2707-1.035l53.3479-30.805c.3661-.207.8279-.079 1.0348.271.207.366.0796.828-.2706 1.035l-53.348 30.805c-.1114.063-.2547.095-.382.095z"/><path d="m16.1951 192.887c2.7064-1.56 6.1611-.637 7.7372 2.07 1.5601 2.706.6368 6.161-2.0696 7.737-2.7064 1.56-6.1611.637-7.7371-2.07-1.5602-2.706-.6369-6.161 2.0695-7.737z"/><path d="m72.3635 290.955c-.4139 0-.7483-.335-.7483-.749v-61.61c0-.414.3344-.748.7483-.748s.7482.334.7482.748v61.61c0 .414-.3343.749-.7482.749z"/><path d="m78.0145 290.191c0 3.12-2.5313 5.652-5.6676 5.652-3.1362 0-5.6516-2.532-5.6516-5.652s2.5313-5.668 5.6516-5.668c3.1204 0 5.6676 2.532 5.6676 5.668z"/><path d="m78.0145 228.597c0-3.12-2.5313-5.667-5.6676-5.667-3.1362 0-5.6516 2.531-5.6516 5.667s2.5313 5.652 5.6516 5.652c3.1204 0 5.6676-2.531 5.6676-5.652z"/><path d="m125.709 321.743c-.127 0-.254-.032-.382-.096l-53.3477-30.805c-.3661-.207-.4776-.668-.2706-1.035.2069-.366.6686-.477 1.0348-.27l53.3475 30.805c.367.207.478.669.271 1.035-.143.239-.398.382-.653.382z"/><path d="m69.5272 295.092c-2.7064-1.56-3.6298-5.03-2.0696-7.737 1.5602-2.706 5.0307-3.629 7.7371-2.069s3.6298 5.03 2.0696 7.737c-1.5601 2.706-5.0307 3.63-7.7371 2.069z"/><path d="m122.876 325.897c2.706 1.56 6.161.637 7.737-2.069 1.56-2.707.637-6.162-2.069-7.738-2.707-1.56-6.161-.636-7.738 2.07-1.576 2.706-.636 6.161 2.07 7.737z"/><path d="m125.711 321.744c-.254 0-.509-.128-.652-.382-.207-.367-.08-.828.27-1.035l53.348-30.805c.366-.207.828-.08 1.035.27.207.366.08.828-.271 1.035l-53.348 30.805c-.111.064-.254.096-.382.096z"/><path d="m128.544 325.897c-2.706 1.56-6.161.637-7.737-2.069-1.56-2.707-.637-6.162 2.07-7.738 2.706-1.56 6.161-.636 7.737 2.07 1.56 2.706.637 6.161-2.07 7.737z"/><path d="m181.892 295.092c2.706-1.56 3.63-5.03 2.07-7.737-1.561-2.706-5.031-3.629-7.738-2.069-2.706 1.56-3.629 5.03-2.069 7.737 1.56 2.706 5.031 3.63 7.737 2.069z"/><path d="m179.059 290.955c-.414 0-.748-.335-.748-.749v-61.61c0-.414.334-.748.748-.748s.748.334.748.748v61.61c0 .414-.334.749-.748.749z"/><path d="m184.725 290.191c0 3.12-2.531 5.667-5.652 5.667-3.12 0-5.651-2.531-5.651-5.651 0-3.121 2.531-5.652 5.651-5.668 3.121 0 5.652 2.531 5.652 5.652z"/><path d="m184.725 228.597c0-3.12-2.531-5.667-5.651-5.667-3.121 0-5.668 2.531-5.668 5.667s2.532 5.652 5.668 5.652 5.651-2.531 5.651-5.652z"/><path d="m179.043 229.344c-.127 0-.255-.031-.382-.095l-53.332-30.805c-.366-.207-.478-.669-.271-1.035s.669-.478 1.035-.271l53.332 30.806c.366.206.478.668.271 1.034-.144.239-.398.382-.653.382z"/><path d="m181.876 223.692c2.707 1.56 3.63 5.031 2.07 7.737s-5.031 3.63-7.737 2.07c-2.707-1.56-3.63-5.031-2.07-7.737 1.56-2.707 5.031-3.63 7.737-2.07z"/><path d="m128.544 192.887c-2.706-1.56-6.161-.637-7.737 2.07-1.56 2.706-.637 6.161 2.07 7.737 2.706 1.56 6.161.637 7.737-2.07 1.56-2.706.637-6.161-2.07-7.737z"/><path d="m72.3618 229.345c-.2547 0-.5095-.127-.6528-.382-.2069-.366-.0795-.828.2707-1.035l53.3483-30.805c.366-.207.827-.079 1.034.271.207.366.08.828-.27 1.035l-53.3481 30.805c-.1115.063-.2548.095-.3821.095z"/><path d="m122.876 192.887c2.706-1.56 6.161-.637 7.737 2.07 1.56 2.706.637 6.161-2.069 7.737-2.707 1.56-6.161.637-7.738-2.07-1.576-2.706-.636-6.161 2.07-7.737z"/><path d="m69.5272 223.692c-2.7064 1.56-3.6298 5.031-2.0696 7.737s5.0307 3.63 7.7371 2.07 3.6298-5.031 2.0696-7.737c-1.5601-2.707-5.0307-3.63-7.7371-2.07z"/><path d="m-34.3335 414.158c-.2548 0-.5095-.128-.6528-.382-.2069-.367-.0795-.828.2707-1.035l53.3479-30.805c.3661-.207.8279-.08 1.0348.27.207.366.0796.828-.2706 1.035l-53.348 30.805c-.1114.064-.2547.096-.382.096z"/><path d="m21.8471 387.491c2.7064-1.56 3.6297-5.031 2.0695-7.737-1.5601-2.707-5.0306-3.63-7.737-2.07s-3.6298 5.031-2.0697 7.737c1.5602 2.707 5.0308 3.63 7.7372 2.07z"/><path d="m19.0158 383.353c-.4139 0-.7482-.334-.7482-.748v-61.611c0-.414.3343-.748.7482-.748s.7483.334.7483.748v61.611c0 .414-.3344.748-.7483.748z"/><path d="m24.6824 382.605c0 3.12-2.5313 5.651-5.6516 5.667-3.1203 0-5.6675-2.531-5.6675-5.667 0-3.137 2.5313-5.652 5.6516-5.652s5.6516 2.531 5.6516 5.652z"/><path d="m24.6821 320.996c0-3.121-2.5313-5.668-5.6516-5.668s-5.6516 2.531-5.6516 5.668c0 3.136 2.5313 5.651 5.6516 5.651s5.6516-2.531 5.6516-5.651z"/><path d="m19.0137 321.743c-.1274 0-.2547-.032-.3821-.096l-53.332-30.805c-.3662-.207-.4776-.668-.2706-1.035.2069-.366.6686-.477 1.0348-.27l53.332 30.805c.3661.207.4776.669.2706 1.035-.1432.239-.398.382-.6527.382z"/><path d="m21.8314 316.09c2.7064 1.561 3.6297 5.031 2.0696 7.738-1.5602 2.706-5.0307 3.629-7.7371 2.069s-3.6297-5.031-2.0696-7.737c1.5602-2.706 5.0307-3.63 7.7371-2.07z"/><path d="m19.0139 383.353c-.414 0-.7483-.334-.7483-.748v-61.611c0-.414.3343-.748.7483-.748.4139 0 .7482.334.7482.748v61.611c0 .414-.3343.748-.7482.748z"/><path d="m24.6648 382.605c0 3.12-2.5313 5.667-5.6516 5.667s-5.6675-2.531-5.6675-5.667c0-3.137 2.5313-5.652 5.6675-5.652 3.1363 0 5.6516 2.531 5.6516 5.652z"/><path d="m24.6648 320.996c0-3.121-2.5313-5.668-5.6516-5.668s-5.6675 2.531-5.6675 5.668c0 3.136 2.5313 5.651 5.6675 5.651 3.1363 0 5.6516-2.531 5.6516-5.651z"/><path d="m72.3616 414.157c-.1273 0-.2547-.032-.382-.096l-53.348-30.805c-.3661-.207-.4775-.668-.2706-1.035.207-.366.6686-.477 1.0348-.27l53.3479 30.805c.3662.207.4776.669.2707 1.035-.1433.239-.3981.382-.6528.382z"/><path d="m16.1796 387.491c-2.7064-1.56-3.6298-5.031-2.0697-7.737 1.5602-2.707 5.0308-3.63 7.7372-2.07s3.6297 5.031 2.0695 7.737c-1.5601 2.707-5.0306 3.63-7.737 2.07z"/><path d="m69.5272 418.296c2.7064 1.56 6.161.636 7.7371-2.07 1.5602-2.706.6368-6.161-2.0696-7.737-2.7064-1.56-6.161-.637-7.7371 2.069-1.5602 2.707-.6368 6.161 2.0696 7.738z"/><path d="m72.3618 414.158c-.2547 0-.5095-.128-.6528-.382-.2069-.367-.0795-.828.2707-1.035l53.3483-30.805c.366-.207.827-.08 1.034.27.207.366.08.828-.27 1.035l-53.3481 30.805c-.1115.064-.2548.096-.3821.096z"/><path d="m75.1947 418.296c-2.7064 1.56-6.161.636-7.7371-2.07-1.5602-2.706-.6368-6.161 2.0696-7.737 2.7064-1.56 6.161-.637 7.7371 2.069 1.5602 2.707.6368 6.161-2.0696 7.738z"/><path d="m128.542 387.491c2.707-1.56 3.63-5.031 2.07-7.737-1.56-2.707-5.031-3.63-7.737-2.07-2.707 1.56-3.63 5.031-2.07 7.737 1.56 2.707 5.031 3.63 7.737 2.07z"/><path d="m125.711 383.353c-.414 0-.748-.334-.748-.748v-61.611c0-.414.334-.748.748-.748s.748.334.748.748v61.611c0 .414-.334.748-.748.748z"/><path d="m131.362 382.605c0 3.12-2.531 5.651-5.667 5.667-3.121 0-5.652-2.531-5.652-5.667 0-3.121 2.531-5.652 5.652-5.652 3.12 0 5.651 2.531 5.667 5.652z"/><path d="m131.362 320.996c0-3.121-2.531-5.668-5.652-5.668-3.12 0-5.667 2.531-5.667 5.668 0 3.12 2.531 5.651 5.667 5.651 3.137 0 5.652-2.531 5.652-5.651z"/><path d="m125.693 321.743c-.127 0-.254-.032-.382-.096l-53.3317-30.805c-.3661-.207-.4776-.668-.2706-1.035.2069-.366.6686-.477 1.0348-.27l53.3315 30.805c.367.207.478.669.271 1.035-.143.239-.398.382-.653.382z"/><path d="m128.527 316.09c2.706 1.561 3.63 5.031 2.069 7.738-1.56 2.706-5.03 3.629-7.737 2.069-2.706-1.56-3.63-5.031-2.069-7.737 1.56-2.706 5.03-3.63 7.737-2.07z"/><path d="m75.1947 285.286c-2.7064-1.56-6.161-.637-7.7371 2.069-1.5602 2.707-.6368 6.161 2.0696 7.737 2.7064 1.561 6.161.637 7.7371-2.069 1.5602-2.707.6368-6.161-2.0696-7.737z"/><path d="m19.0141 321.744c-.2547 0-.5094-.128-.6527-.382-.207-.367-.0796-.828.2706-1.035l53.348-30.805c.3661-.207.8278-.08 1.0347.27.207.366.0797.828-.2706 1.035l-53.3479 30.805c-.1114.064-.2547.096-.3821.096z"/><path d="m69.5272 285.286c2.7064-1.56 6.161-.637 7.7371 2.069 1.5602 2.707.6368 6.161-2.0696 7.737-2.7064 1.561-6.161.637-7.7371-2.069-1.5602-2.707-.6368-6.161 2.0696-7.737z"/><path d="m16.1796 316.09c-2.7064 1.561-3.6298 5.031-2.0697 7.738 1.5602 2.706 5.0308 3.629 7.7372 2.069s3.6297-5.031 2.0695-7.737c-1.5601-2.706-5.0306-3.63-7.737-2.07z"/><path d="m19.014 506.56c-.1274 0-.2547-.032-.3821-.096l-53.3479-30.805c-.3662-.207-.4776-.669-.2707-1.035.207-.35.6687-.477 1.0348-.27l53.348 30.805c.3661.207.4776.668.2706 1.035-.1433.238-.398.382-.6527.382z"/><path d="m16.1951 510.713c2.7064 1.561 6.1611.637 7.7372-2.069 1.5601-2.706.6368-6.161-2.0696-7.737-2.7064-1.56-6.1611-.637-7.7371 2.069-1.5602 2.707-.6369 6.161 2.0695 7.737z"/><path d="m19.0141 506.56c-.2547 0-.5094-.127-.6527-.382-.207-.366-.0796-.828.2706-1.035l53.348-30.805c.3661-.207.8278-.08 1.0347.271.207.366.0797.827-.2706 1.034l-53.3479 30.806c-.1114.063-.2547.095-.3821.095z"/><path d="m21.8471 510.713c-2.7064 1.561-6.1611.637-7.7372-2.069-1.5601-2.706-.6367-6.161 2.0697-7.737 2.7064-1.56 6.161-.637 7.737 2.069 1.5761 2.707.6369 6.161-2.0695 7.737z"/><path d="m75.1947 479.909c2.7064-1.56 3.6298-5.031 2.0696-7.737-1.5601-2.707-5.0307-3.63-7.7371-2.07s-3.6298 5.031-2.0696 7.737c1.5602 2.707 5.0307 3.63 7.7371 2.07z"/><path d="m72.3791 475.751c-.4139 0-.7482-.334-.7482-.748v-61.61c0-.414.3343-.748.7482-.748s.7482.334.7482.748v61.61c0 .414-.3343.748-.7482.748z"/><path d="m78.0297 475.003c0 3.12-2.5312 5.668-5.6516 5.668-3.1203 0-5.6515-2.532-5.6515-5.652s2.5312-5.667 5.6515-5.667c3.1204 0 5.6676 2.531 5.6676 5.651z"/><path d="m78.03 413.394c0-3.121-2.5312-5.652-5.6675-5.652-3.1362 0-5.6516 2.531-5.6516 5.668 0 3.12 2.5313 5.651 5.6516 5.651s5.6516-2.531 5.6516-5.667z"/><path d="m72.3614 414.161c-.1274 0-.2548-.032-.3821-.096l-53.332-30.805c-.3662-.207-.4776-.668-.2707-1.035.207-.366.6687-.477 1.0349-.27l53.332 30.805c.3661.207.4775.669.2706 1.035-.1433.239-.398.382-.6527.382z"/><path d="m75.1947 408.508c2.7064 1.561 3.6298 5.031 2.0696 7.737-1.5601 2.707-5.0307 3.63-7.7371 2.07s-3.6298-5.031-2.0696-7.737 5.0307-3.63 7.7371-2.07z"/><path d="m21.8471 377.704c-2.7064-1.56-6.1611-.637-7.7372 2.069-1.5601 2.707-.6367 6.161 2.0697 7.737 2.7064 1.561 6.161.637 7.737-2.069 1.5761-2.707.6369-6.161-2.0695-7.737z"/><path d="m-34.3335 414.162c-.2548 0-.5095-.128-.6528-.382-.2069-.367-.0795-.828.2707-1.035l53.3479-30.805c.3661-.207.8279-.08 1.0348.27.207.366.0796.828-.2706 1.035l-53.348 30.805c-.1114.064-.2547.096-.382.096z"/><path d="m16.1951 377.704c2.7064-1.56 6.1611-.637 7.7372 2.069 1.5601 2.707.6368 6.161-2.0696 7.737-2.7064 1.561-6.1611.637-7.7371-2.069-1.5602-2.707-.6369-6.161 2.0695-7.737z"/><path d="m72.3635 475.751c-.4139 0-.7483-.334-.7483-.748v-61.61c0-.414.3344-.748.7483-.748s.7482.334.7482.748v61.61c0 .414-.3343.748-.7482.748z"/><path d="m78.0145 475.003c0 3.121-2.5313 5.652-5.6676 5.652-3.1362 0-5.6516-2.531-5.6516-5.652 0-3.12 2.5313-5.667 5.6516-5.667 3.1204 0 5.6676 2.531 5.6676 5.667z"/><path d="m78.0145 413.394c0-3.121-2.5313-5.652-5.6676-5.652-3.1362 0-5.6516 2.531-5.6516 5.652 0 3.12 2.5313 5.667 5.6516 5.667 3.1204 0 5.6676-2.531 5.6676-5.667z"/><path d="m125.709 506.56c-.127 0-.254-.032-.382-.096l-53.3477-30.805c-.3661-.207-.4776-.669-.2706-1.035.2069-.35.6686-.477 1.0348-.27l53.3475 30.805c.367.207.478.668.271 1.035-.143.238-.398.382-.653.382z"/><path d="m69.5272 479.909c-2.7064-1.56-3.6298-5.031-2.0696-7.737 1.5602-2.707 5.0307-3.63 7.7371-2.07s3.6298 5.031 2.0696 7.737c-1.5601 2.707-5.0307 3.63-7.7371 2.07z"/><path d="m122.876 510.713c2.706 1.561 6.161.637 7.737-2.069 1.56-2.706.637-6.161-2.069-7.737-2.707-1.56-6.161-.637-7.738 2.069-1.576 2.707-.636 6.161 2.07 7.737z"/><path d="m179.059 475.751c-.414 0-.748-.334-.748-.748v-61.61c0-.414.334-.748.748-.748s.748.334.748.748v61.61c0 .414-.334.748-.748.748z"/><path d="m184.725 475.003c0 3.12-2.531 5.668-5.652 5.668-3.12 0-5.651-2.532-5.651-5.652s2.531-5.667 5.651-5.667c3.121 0 5.652 2.531 5.652 5.651z"/><path d="m184.725 413.394c0-3.121-2.531-5.652-5.651-5.652-3.121 0-5.668 2.531-5.668 5.668 0 3.136 2.532 5.651 5.668 5.651s5.651-2.531 5.651-5.667z"/><path d="m179.043 414.161c-.127 0-.255-.032-.382-.096l-53.332-30.805c-.366-.207-.478-.668-.271-1.035.207-.366.669-.477 1.035-.27l53.332 30.805c.366.207.478.669.271 1.035-.144.239-.398.382-.653.382z"/><path d="m181.876 408.508c2.707 1.561 3.63 5.031 2.07 7.737-1.56 2.707-5.031 3.63-7.737 2.07-2.707-1.56-3.63-5.031-2.07-7.737s5.031-3.63 7.737-2.07z"/><path d="m128.544 377.704c-2.706-1.56-6.161-.637-7.737 2.069-1.56 2.707-.637 6.161 2.07 7.737 2.706 1.561 6.161.637 7.737-2.069 1.56-2.707.637-6.161-2.07-7.737z"/><path d="m19.0158 568.154c-.4139 0-.7482-.335-.7482-.748v-61.611c0-.414.3343-.748.7482-.748s.7483.334.7483.748v61.611c0 .413-.3344.748-.7483.748z"/><path d="m24.6824 567.406c0 3.12-2.5313 5.667-5.6516 5.667s-5.6675-2.531-5.6675-5.652c0-3.12 2.5313-5.651 5.6516-5.667 3.1203 0 5.6516 2.531 5.6516 5.652z"/><path d="m24.6821 505.812c0-3.121-2.5313-5.652-5.6516-5.652s-5.6516 2.531-5.6516 5.668c0 3.136 2.5313 5.651 5.6516 5.651s5.6516-2.531 5.6516-5.667z"/><path d="m19.0137 506.56c-.1274 0-.2547-.032-.3821-.096l-53.332-30.805c-.3662-.207-.4776-.669-.2706-1.035.2069-.35.6686-.477 1.0348-.27l53.332 30.805c.3661.207.4776.668.2706 1.035-.1432.238-.398.382-.6527.382z"/><path d="m21.8314 500.907c2.7064 1.56 3.6297 5.031 2.0696 7.737-1.5602 2.706-5.0307 3.63-7.7371 2.069-2.7064-1.56-3.6297-5.03-2.0696-7.737 1.5602-2.706 5.0307-3.629 7.7371-2.069z"/><path d="m19.0139 568.154c-.414 0-.7483-.335-.7483-.748v-61.611c0-.414.3343-.748.7483-.748.4139 0 .7482.334.7482.748v61.611c0 .413-.3343.748-.7482.748z"/><path d="m24.6648 567.406c0 3.12-2.5313 5.651-5.6516 5.651s-5.6675-2.531-5.6675-5.651c0-3.121 2.5313-5.668 5.6675-5.668 3.1363 0 5.6516 2.532 5.6516 5.668z"/><path d="m24.6648 505.812c0-3.12-2.5313-5.667-5.6516-5.667s-5.6675 2.531-5.6675 5.667 2.5313 5.652 5.6675 5.652c3.1363 0 5.6516-2.532 5.6516-5.652z"/><path d="m72.3616 598.958c-.1273 0-.2547-.032-.382-.096l-53.348-30.805c-.3661-.207-.4775-.669-.2706-1.035.207-.366.6686-.477 1.0348-.27l53.3479 30.805c.3662.207.4776.668.2707 1.035-.1433.238-.3981.382-.6528.382z"/><path d="m16.1796 572.307c-2.7064-1.56-3.6298-5.03-2.0697-7.737 1.5602-2.706 5.0308-3.63 7.7372-2.069 2.7064 1.56 3.6297 5.03 2.0695 7.737-1.5601 2.706-5.0306 3.629-7.737 2.069z"/><path d="m69.5272 603.112c2.7064 1.56 6.161.637 7.7371-2.07 1.5602-2.706.6368-6.161-2.0696-7.737-2.7064-1.56-6.161-.637-7.7371 2.07-1.5602 2.706-.6368 6.161 2.0696 7.737z"/><path d="m72.3618 598.959c-.2547 0-.5095-.128-.6528-.383-.2069-.366-.0795-.827.2707-1.034l53.3483-30.806c.366-.207.827-.079 1.034.271.207.366.08.828-.27 1.035l-53.3481 30.805c-.1115.064-.2548.096-.3821.096z"/><path d="m75.1947 603.111c-2.7064 1.56-6.161.637-7.7371-2.069-1.5602-2.707-.6368-6.161 2.0696-7.738 2.7064-1.576 6.161-.636 7.7371 2.07 1.5602 2.707.6368 6.161-2.0696 7.737z"/><path d="m128.542 572.307c2.707-1.56 3.63-5.03 2.07-7.737-1.56-2.706-5.031-3.63-7.737-2.069-2.707 1.56-3.63 5.03-2.07 7.737 1.56 2.706 5.031 3.629 7.737 2.069z"/><path d="m125.711 568.154c-.414 0-.748-.335-.748-.748v-61.611c0-.414.334-.748.748-.748s.748.334.748.748v61.611c0 .413-.334.748-.748.748z"/><path d="m131.362 567.406c0 3.12-2.531 5.667-5.667 5.667-3.137 0-5.652-2.531-5.652-5.652 0-3.12 2.531-5.651 5.652-5.667 3.12 0 5.651 2.531 5.667 5.652z"/><path d="m131.362 505.812c0-3.121-2.531-5.652-5.652-5.652-3.12 0-5.667 2.531-5.667 5.668 0 3.12 2.531 5.651 5.667 5.651 3.137 0 5.652-2.531 5.652-5.667z"/><path d="m125.693 506.56c-.127 0-.254-.032-.382-.096l-53.3317-30.805c-.3661-.207-.4776-.669-.2706-1.035.2069-.35.6686-.477 1.0348-.27l53.3315 30.805c.367.207.478.668.271 1.035-.143.238-.398.382-.653.382z"/><path d="m128.527 500.907c2.706 1.56 3.63 5.031 2.069 7.737-1.56 2.706-5.03 3.63-7.737 2.069-2.706-1.56-3.63-5.03-2.069-7.737 1.56-2.706 5.03-3.629 7.737-2.069z"/><path d="m75.1947 470.102c-2.7064-1.56-6.161-.637-7.7371 2.07-1.5602 2.706-.6368 6.161 2.0696 7.737 2.7064 1.56 6.161.637 7.7371-2.07 1.5602-2.706.6368-6.161-2.0696-7.737z"/><path d="m19.0141 506.56c-.2547 0-.5094-.127-.6527-.382-.207-.366-.0796-.828.2706-1.035l53.348-30.805c.3661-.207.8278-.08 1.0347.271.207.366.0797.827-.2706 1.034l-53.3479 30.806c-.1114.063-.2547.095-.3821.095z"/><path d="m69.5272 470.102c2.7064-1.56 6.161-.637 7.7371 2.07 1.5602 2.706.6368 6.161-2.0696 7.737-2.7064 1.56-6.161.637-7.7371-2.07-1.5602-2.706-.6368-6.161 2.0696-7.737z"/><path d="m16.1796 500.907c-2.7064 1.56-3.6298 5.031-2.0697 7.737 1.5602 2.706 5.0308 3.63 7.7372 2.069 2.7064-1.56 3.6297-5.03 2.0695-7.737-1.5601-2.706-5.0306-3.629-7.737-2.069z"/><path d="m72.3791 660.568c-.4139 0-.7482-.335-.7482-.748v-61.611c0-.414.3343-.748.7482-.748s.7482.334.7482.748v61.611c0 .413-.3343.748-.7482.748z"/><path d="m78.0297 659.82c0 3.12-2.5312 5.651-5.6516 5.667-3.1203 0-5.6515-2.531-5.6515-5.667 0-3.137 2.5312-5.652 5.6515-5.652 3.1204 0 5.6676 2.531 5.6676 5.652z"/><path d="m78.03 598.21c0-3.12-2.5312-5.667-5.6675-5.651-3.1203 0-5.6516 2.531-5.6516 5.667 0 3.121 2.5313 5.652 5.6516 5.652s5.6516-2.531 5.6516-5.652z"/><path d="m72.3614 598.958c-.1274 0-.2548-.032-.3821-.096l-53.332-30.805c-.3662-.207-.4776-.669-.2707-1.035.207-.366.6687-.477 1.0349-.27l53.332 30.805c.3661.207.4775.668.2706 1.035-.1433.238-.398.382-.6527.382z"/><path d="m75.1947 593.305c2.7064 1.56 3.6298 5.031 2.0696 7.737-1.5601 2.707-5.0307 3.63-7.7371 2.07s-3.6298-5.031-2.0696-7.737c1.5602-2.707 5.0307-3.63 7.7371-2.07z"/><path d="m21.8471 562.501c-2.7064-1.561-6.1611-.637-7.7372 2.069-1.5601 2.707-.6367 6.161 2.0697 7.737 2.7064 1.56 6.161.637 7.737-2.069 1.5602-2.707.6369-6.161-2.0695-7.737z"/><path d="m72.3635 660.568c-.4139 0-.7483-.335-.7483-.748v-61.611c0-.414.3344-.748.7483-.748s.7482.334.7482.748v61.611c0 .413-.3343.748-.7482.748z"/><path d="m78.0145 659.82c0 3.12-2.5313 5.667-5.6676 5.667-3.1362 0-5.6516-2.531-5.6516-5.667 0-3.137 2.5313-5.652 5.6516-5.652 3.1204 0 5.6676 2.531 5.6676 5.652z"/><path d="m78.0145 598.21c0-3.12-2.5313-5.651-5.6676-5.651-3.1362 0-5.6516 2.531-5.6516 5.651 0 3.121 2.5313 5.652 5.6516 5.652 3.1204 0 5.6676-2.531 5.6676-5.652z"/><path d="m125.709 691.376c-.127 0-.254-.032-.382-.096l-53.3477-30.805c-.3661-.207-.4776-.669-.2706-1.035.2069-.366.6686-.477 1.0348-.27l53.3475 30.805c.367.207.478.668.271 1.035-.143.238-.398.382-.653.382z"/><path d="m69.5272 664.71c-2.7064-1.561-3.6298-5.031-2.0696-7.737 1.5602-2.707 5.0307-3.63 7.7371-2.07s3.6298 5.031 2.0696 7.737c-1.5601 2.706-5.0307 3.63-7.7371 2.07z"/><path d="m122.876 695.514c2.706 1.56 6.161.637 7.737-2.069 1.56-2.707.637-6.161-2.069-7.737-2.707-1.561-6.161-.637-7.738 2.069-1.576 2.707-.636 6.161 2.07 7.737z"/><path d="m125.711 691.376c-.254 0-.509-.127-.652-.382-.207-.366-.08-.827.27-1.034l53.348-30.806c.366-.207.828-.079 1.035.271.207.366.08.828-.271 1.035l-53.348 30.805c-.111.064-.254.096-.382.096z"/><path d="m128.544 695.514c-2.706 1.56-6.161.637-7.737-2.069-1.56-2.707-.637-6.161 2.07-7.737 2.706-1.561 6.161-.637 7.737 2.069 1.56 2.707.637 6.161-2.07 7.737z"/><path d="m181.892 664.71c2.706-1.561 3.63-5.031 2.07-7.737-1.561-2.707-5.031-3.63-7.738-2.07-2.706 1.56-3.629 5.031-2.069 7.737s5.031 3.63 7.737 2.07z"/><path d="m179.059 660.568c-.414 0-.748-.335-.748-.748v-61.611c0-.414.334-.748.748-.748s.748.334.748.748v61.611c0 .413-.334.748-.748.748z"/><path d="m184.725 659.82c0 3.12-2.531 5.651-5.652 5.667-3.12 0-5.651-2.531-5.651-5.667 0-3.137 2.531-5.652 5.651-5.652 3.121 0 5.652 2.531 5.652 5.652z"/><path d="m184.725 598.21c0-3.12-2.531-5.667-5.651-5.651-3.121 0-5.668 2.531-5.668 5.667s2.532 5.652 5.668 5.652 5.651-2.531 5.651-5.652z"/><path d="m179.043 598.958c-.127 0-.255-.032-.382-.096l-53.332-30.805c-.366-.207-.478-.669-.271-1.035s.669-.477 1.035-.27l53.332 30.805c.366.207.478.668.271 1.035-.144.238-.398.382-.653.382z"/><path d="m181.876 593.305c2.707 1.56 3.63 5.031 2.07 7.737-1.56 2.707-5.031 3.63-7.737 2.07-2.707-1.56-3.63-5.031-2.07-7.737 1.56-2.707 5.031-3.63 7.737-2.07z"/><path d="m128.544 562.501c-2.706-1.561-6.161-.637-7.737 2.069-1.56 2.707-.637 6.161 2.07 7.737 2.706 1.56 6.161.637 7.737-2.069 1.56-2.707.637-6.161-2.07-7.737z"/><path d="m72.3618 598.959c-.2547 0-.5095-.128-.6528-.383-.2069-.366-.0795-.827.2707-1.034l53.3483-30.806c.366-.207.827-.079 1.034.271.207.366.08.828-.27 1.035l-53.3481 30.805c-.1115.064-.2548.096-.3821.096z"/><path d="m122.876 562.501c2.706-1.561 6.161-.637 7.737 2.069 1.56 2.707.637 6.161-2.069 7.737-2.707 1.56-6.161.637-7.738-2.069-1.576-2.707-.636-6.161 2.07-7.737z"/><path d="m69.5272 593.305c-2.7064 1.56-3.6298 5.031-2.0696 7.737 1.5602 2.707 5.0307 3.63 7.7371 2.07s3.6298-5.031 2.0696-7.737c-1.5601-2.707-5.0307-3.63-7.7371-2.07z"/><path d="m125.711 752.966c-.414 0-.748-.334-.748-.748v-61.595c0-.414.334-.748.748-.748s.748.334.748.748v61.595c0 .414-.334.748-.748.748z"/><path d="m131.362 752.218c0 3.12-2.531 5.668-5.667 5.668-3.137 0-5.652-2.532-5.652-5.668 0-3.12 2.531-5.652 5.652-5.652 3.12 0 5.651 2.532 5.667 5.652z"/><path d="m131.362 690.609c0-3.121-2.531-5.652-5.652-5.652-3.12 0-5.667 2.531-5.667 5.668 0 3.12 2.531 5.651 5.667 5.651 3.137 0 5.652-2.531 5.652-5.667z"/><path d="m125.693 691.376c-.127 0-.254-.032-.382-.096l-53.3317-30.805c-.3661-.207-.4776-.669-.2706-1.035.2069-.366.6686-.477 1.0348-.27l53.3315 30.805c.367.207.478.668.271 1.035-.143.238-.398.382-.653.382z"/><path d="m128.527 685.708c2.706 1.56 3.63 5.03 2.069 7.737-1.56 2.706-5.03 3.629-7.737 2.069-2.706-1.56-3.63-5.03-2.069-7.737 1.56-2.706 5.03-3.63 7.737-2.069z"/><path d="m75.1947 654.919c-2.7064-1.561-6.161-.637-7.7371 2.069-1.5602 2.707-.6368 6.161 2.0696 7.737 2.7064 1.56 6.161.637 7.7371-2.069 1.5602-2.707.6368-6.161-2.0696-7.737z"/><path d="m179.043 783.774c-.127 0-.255-.032-.382-.095l-53.332-30.806c-.366-.206-.478-.668-.271-1.034s.669-.478 1.035-.271l53.332 30.805c.366.207.478.669.271 1.035-.144.239-.398.382-.653.382z"/><path d="m181.876 778.122c2.707 1.56 3.63 5.03 2.07 7.737-1.56 2.706-5.031 3.63-7.737 2.069-2.707-1.56-3.63-5.03-2.07-7.737 1.56-2.706 5.031-3.63 7.737-2.069z"/><path d="m128.544 747.317c-2.706-1.56-6.161-.637-7.737 2.07-1.56 2.706-.637 6.161 2.07 7.737 2.706 1.56 6.161.636 7.737-2.07 1.56-2.706.637-6.161-2.07-7.737z"/></g></svg>