<svg width="337" height="796" viewBox="0 0 337 796" fill="none" xmlns="http://www.w3.org/2000/svg">
<g opacity="0.3">
<path d="M-34.3335 44.5288C-34.5883 44.5288 -34.843 44.4014 -34.9863 44.1467C-35.1932 43.7806 -35.0658 43.3189 -34.7156 43.1119L18.6323 12.3067C18.9984 12.0998 19.4602 12.2271 19.6671 12.5774C19.8741 12.9435 19.7467 13.4052 19.3965 13.6122L-33.9515 44.4174C-34.0629 44.481 -34.2062 44.5129 -34.3335 44.5129V44.5288Z" fill="#FF0800"/>
<path d="M21.8471 17.8776C24.5535 16.3174 25.4768 12.8469 23.9166 10.1405C22.3565 7.43407 18.886 6.51071 16.1796 8.07087C13.4732 9.63103 12.5498 13.1016 14.1099 15.808C15.6701 18.5144 19.1407 19.4377 21.8471 17.8776Z" fill="#FF0800"/>
<path d="M19.014 136.946C18.8866 136.946 18.7593 136.914 18.6319 136.851L-34.716 106.045C-35.0822 105.838 -35.1936 105.377 -34.9867 105.011C-34.7797 104.644 -34.318 104.533 -33.9519 104.74L19.3961 135.545C19.7622 135.752 19.8737 136.214 19.6667 136.58C19.5234 136.819 19.2687 136.962 19.014 136.962V136.946Z" fill="#FF0800"/>
<path d="M16.1951 141.085C18.9015 142.645 22.3562 141.721 23.9323 139.015C25.4924 136.309 24.5691 132.854 21.8627 131.278C19.1563 129.718 15.7016 130.641 14.1256 133.348C12.5654 136.054 13.4887 139.509 16.1951 141.085Z" fill="#FF0800"/>
<path d="M19.0141 136.947C18.7594 136.947 18.5047 136.819 18.3614 136.565C18.1544 136.199 18.2818 135.737 18.632 135.53L71.98 104.725C72.3461 104.518 72.8078 104.645 73.0147 104.995C73.2217 105.346 73.0944 105.823 72.7441 106.03L19.3962 136.835C19.2848 136.899 19.1415 136.931 19.0141 136.931V136.947Z" fill="#FF0800"/>
<path d="M21.8471 141.085C19.1407 142.645 15.686 141.721 14.1099 139.015C12.5498 136.309 13.4732 132.854 16.1796 131.278C18.886 129.718 22.3406 130.641 23.9166 133.348C25.4768 136.054 24.5535 139.509 21.8471 141.085Z" fill="#FF0800"/>
<path d="M75.1947 110.296C77.9011 108.735 78.8245 105.265 77.2643 102.558C75.7042 99.852 72.2336 98.9287 69.5272 100.489C66.8208 102.049 65.8974 105.52 67.4576 108.226C69.0178 110.932 72.4883 111.856 75.1947 110.296Z" fill="#FF0800"/>
<path d="M-34.3335 44.5288C-34.5883 44.5288 -34.843 44.4014 -34.9863 44.1467C-35.1932 43.7806 -35.0658 43.3189 -34.7156 43.1119L18.6323 12.3067C18.9984 12.0998 19.4602 12.2271 19.6671 12.5774C19.8741 12.9435 19.7467 13.4052 19.3965 13.6122L-33.9515 44.4174C-34.0629 44.481 -34.2062 44.5129 -34.3335 44.5129V44.5288Z" fill="#FF0800"/>
<path d="M16.1951 8.08649C18.9015 6.52633 22.3562 7.44969 23.9323 10.1561C25.4924 12.8625 24.5691 16.3171 21.8627 17.8932C19.1563 19.4693 15.7016 18.53 14.1256 15.8236C12.5654 13.1172 13.4887 9.66257 16.1951 8.08649Z" fill="#FF0800"/>
<path d="M125.709 136.946C125.582 136.946 125.455 136.914 125.327 136.851L71.9793 106.045C71.6132 105.838 71.5017 105.377 71.7087 105.011C71.9156 104.644 72.3773 104.533 72.7435 104.74L126.091 135.545C126.458 135.752 126.569 136.214 126.362 136.58C126.219 136.819 125.964 136.962 125.709 136.962V136.946Z" fill="#FF0800"/>
<path d="M69.5272 110.296C66.8208 108.735 65.8974 105.265 67.4576 102.558C69.0178 99.852 72.4883 98.9287 75.1947 100.489C77.9011 102.049 78.8245 105.52 77.2643 108.226C75.7042 110.932 72.2336 111.856 69.5272 110.296Z" fill="#FF0800"/>
<path d="M122.875 141.085C125.581 142.645 129.036 141.721 130.612 139.015C132.172 136.309 131.249 132.854 128.542 131.278C125.836 129.718 122.381 130.641 120.805 133.348C119.245 136.054 120.168 139.509 122.875 141.085Z" fill="#FF0800"/>
<path d="M-34.3335 229.345C-34.5883 229.345 -34.843 229.218 -34.9863 228.963C-35.1932 228.597 -35.0658 228.135 -34.7156 227.928L18.6323 197.123C18.9984 196.916 19.4602 197.044 19.6671 197.394C19.8741 197.76 19.7467 198.222 19.3965 198.429L-33.9515 229.234C-34.0629 229.297 -34.2062 229.329 -34.3335 229.329V229.345Z" fill="#FF0800"/>
<path d="M21.8471 202.694C24.5535 201.134 25.4768 197.663 23.9166 194.957C22.3565 192.25 18.886 191.327 16.1796 192.887C13.4732 194.447 12.5498 197.918 14.1099 200.624C15.6701 203.331 19.1407 204.254 21.8471 202.694Z" fill="#FF0800"/>
<path d="M19.0158 198.536C18.6019 198.536 18.2676 198.202 18.2676 197.788V136.194C18.2676 135.78 18.6019 135.445 19.0158 135.445C19.4297 135.445 19.7641 135.78 19.7641 136.194V197.788C19.7641 198.202 19.4297 198.536 19.0158 198.536Z" fill="#FF0800"/>
<path d="M24.6824 197.788C24.6824 200.909 22.1511 203.44 19.0308 203.456C15.9105 203.456 13.3633 200.925 13.3633 197.804C13.3633 194.684 15.8946 192.137 19.0149 192.137C22.1352 192.137 24.6665 194.668 24.6665 197.788H24.6824Z" fill="#FF0800"/>
<path d="M24.6821 136.179C24.6821 133.059 22.1508 130.527 19.0305 130.527C15.9102 130.527 13.3789 133.059 13.3789 136.195C13.3789 139.331 15.9102 141.846 19.0305 141.846C22.1508 141.846 24.6821 139.315 24.6821 136.179Z" fill="#FF0800"/>
<path d="M19.0137 136.946C18.8863 136.946 18.759 136.914 18.6316 136.851L-34.7004 106.045C-35.0666 105.838 -35.178 105.377 -34.971 105.011C-34.7641 104.644 -34.3024 104.533 -33.9362 104.74L19.3958 135.545C19.7619 135.752 19.8734 136.214 19.6664 136.58C19.5232 136.819 19.2684 136.962 19.0137 136.962V136.946Z" fill="#FF0800"/>
<path d="M21.8314 131.294C24.5378 132.854 25.4611 136.324 23.901 139.031C22.3408 141.737 18.8703 142.66 16.1639 141.1C13.4575 139.54 12.5342 136.07 14.0943 133.363C15.6545 130.657 19.125 129.733 21.8314 131.294Z" fill="#FF0800"/>
<path d="M19.0139 198.536C18.5999 198.536 18.2656 198.202 18.2656 197.788V136.194C18.2656 135.78 18.5999 135.445 19.0139 135.445C19.4278 135.445 19.7621 135.78 19.7621 136.194V197.788C19.7621 198.202 19.4278 198.536 19.0139 198.536Z" fill="#FF0800"/>
<path d="M24.6648 197.788C24.6648 200.909 22.1335 203.456 19.0132 203.456C15.8929 203.456 13.3457 200.925 13.3457 197.788C13.3457 194.652 15.877 192.137 19.0132 192.137C22.1495 192.137 24.6648 194.668 24.6648 197.788Z" fill="#FF0800"/>
<path d="M24.6648 136.179C24.6648 133.059 22.1335 130.527 19.0132 130.527C15.8929 130.527 13.3457 133.059 13.3457 136.179C13.3457 139.299 15.877 141.846 19.0132 141.846C22.1495 141.846 24.6648 139.315 24.6648 136.179Z" fill="#FF0800"/>
<path d="M72.3616 229.344C72.2343 229.344 72.1069 229.313 71.9796 229.249L18.6316 198.444C18.2655 198.237 18.1541 197.775 18.361 197.409C18.568 197.043 19.0296 196.931 19.3958 197.138L72.7437 227.944C73.1099 228.15 73.2213 228.612 73.0144 228.978C72.8711 229.217 72.6163 229.36 72.3616 229.36V229.344Z" fill="#FF0800"/>
<path d="M16.1796 202.694C13.4732 201.134 12.5498 197.663 14.1099 194.957C15.6701 192.25 19.1407 191.327 21.8471 192.887C24.5535 194.447 25.4768 197.918 23.9166 200.624C22.3565 203.331 18.886 204.254 16.1796 202.694Z" fill="#FF0800"/>
<path d="M69.5272 233.499C72.2336 235.059 75.6882 234.135 77.2643 231.429C78.8245 228.723 77.9011 225.268 75.1947 223.692C72.4883 222.132 69.0337 223.055 67.4576 225.762C65.8974 228.468 66.8208 231.923 69.5272 233.499Z" fill="#FF0800"/>
<path d="M72.3618 229.345C72.1071 229.345 71.8523 229.218 71.709 228.963C71.5021 228.597 71.6295 228.135 71.9797 227.928L125.328 197.123C125.694 196.916 126.155 197.044 126.362 197.394C126.569 197.76 126.442 198.222 126.092 198.429L72.7439 229.234C72.6324 229.297 72.4891 229.329 72.3618 229.329V229.345Z" fill="#FF0800"/>
<path d="M75.1947 233.499C72.4883 235.059 69.0337 234.135 67.4576 231.429C65.8974 228.723 66.8208 225.268 69.5272 223.692C72.2336 222.132 75.6882 223.055 77.2643 225.762C78.8245 228.468 77.9011 231.923 75.1947 233.499Z" fill="#FF0800"/>
<path d="M128.542 202.694C131.249 201.134 132.172 197.663 130.612 194.957C129.052 192.25 125.581 191.327 122.875 192.887C120.168 194.447 119.245 197.918 120.805 200.624C122.365 203.331 125.836 204.254 128.542 202.694Z" fill="#FF0800"/>
<path d="M125.711 198.536C125.297 198.536 124.963 198.202 124.963 197.788V136.194C124.963 135.78 125.297 135.445 125.711 135.445C126.125 135.445 126.459 135.78 126.459 136.194V197.788C126.459 198.202 126.125 198.536 125.711 198.536Z" fill="#FF0800"/>
<path d="M131.362 197.788C131.362 200.909 128.831 203.44 125.695 203.456C122.574 203.456 120.043 200.925 120.043 197.804C120.043 194.684 122.574 192.137 125.695 192.137C128.815 192.137 131.346 194.668 131.362 197.788Z" fill="#FF0800"/>
<path d="M131.362 136.179C131.362 133.059 128.831 130.527 125.71 130.527C122.59 130.527 120.043 133.059 120.043 136.195C120.043 139.315 122.574 141.846 125.71 141.846C128.831 141.846 131.362 139.315 131.362 136.179Z" fill="#FF0800"/>
<path d="M125.693 136.946C125.566 136.946 125.439 136.914 125.311 136.851L71.9793 106.045C71.6132 105.838 71.5017 105.377 71.7087 105.011C71.9156 104.644 72.3773 104.533 72.7435 104.74L126.075 135.545C126.442 135.752 126.553 136.214 126.346 136.58C126.203 136.819 125.948 136.962 125.693 136.962V136.946Z" fill="#FF0800"/>
<path d="M128.527 131.294C131.233 132.854 132.157 136.324 130.596 139.031C129.036 141.737 125.566 142.66 122.859 141.1C120.153 139.54 119.229 136.07 120.79 133.363C122.35 130.657 125.82 129.733 128.527 131.294Z" fill="#FF0800"/>
<path d="M75.1947 100.489C72.4883 98.9287 69.0337 99.852 67.4576 102.558C65.8974 105.265 66.8208 108.719 69.5272 110.296C72.2336 111.856 75.6882 110.932 77.2643 108.226C78.8245 105.52 77.9011 102.065 75.1947 100.489Z" fill="#FF0800"/>
<path d="M19.0141 136.947C18.7594 136.947 18.5047 136.819 18.3614 136.565C18.1544 136.199 18.2818 135.737 18.632 135.53L71.98 104.725C72.3461 104.518 72.8078 104.645 73.0147 104.995C73.2217 105.346 73.0944 105.823 72.7441 106.03L19.3962 136.835C19.2848 136.899 19.1415 136.931 19.0141 136.931V136.947Z" fill="#FF0800"/>
<path d="M69.5272 100.489C72.2336 98.9287 75.6882 99.852 77.2643 102.558C78.8245 105.265 77.9011 108.719 75.1947 110.296C72.4883 111.856 69.0337 110.932 67.4576 108.226C65.8974 105.52 66.8208 102.065 69.5272 100.489Z" fill="#FF0800"/>
<path d="M16.1796 131.294C13.4732 132.854 12.5498 136.324 14.1099 139.031C15.6701 141.737 19.1407 142.66 21.8471 141.1C24.5535 139.54 25.4768 136.07 23.9166 133.363C22.3565 130.657 18.886 129.733 16.1796 131.294Z" fill="#FF0800"/>
<path d="M19.014 321.743C18.8866 321.743 18.7593 321.711 18.6319 321.647L-34.716 290.842C-35.0822 290.635 -35.1936 290.174 -34.9867 289.807C-34.7797 289.441 -34.318 289.33 -33.9519 289.537L19.3961 320.342C19.7622 320.549 19.8737 321.011 19.6667 321.377C19.5234 321.616 19.2687 321.759 19.014 321.759V321.743Z" fill="#FF0800"/>
<path d="M16.1951 325.897C18.9015 327.457 22.3562 326.534 23.9323 323.828C25.4924 321.121 24.5691 317.666 21.8627 316.09C19.1563 314.53 15.7016 315.454 14.1256 318.16C12.5654 320.866 13.4887 324.321 16.1951 325.897Z" fill="#FF0800"/>
<path d="M19.0141 321.744C18.7594 321.744 18.5047 321.616 18.3614 321.362C18.1544 320.995 18.2818 320.534 18.632 320.327L71.98 289.522C72.3461 289.315 72.8078 289.442 73.0147 289.792C73.2217 290.158 73.0944 290.62 72.7441 290.827L19.3962 321.632C19.2848 321.696 19.1415 321.728 19.0141 321.728V321.744Z" fill="#FF0800"/>
<path d="M21.8471 325.897C19.1407 327.457 15.686 326.534 14.1099 323.828C12.5498 321.121 13.4732 317.666 16.1796 316.09C18.886 314.53 22.3406 315.454 23.9166 318.16C25.4927 320.866 24.5535 324.321 21.8471 325.897Z" fill="#FF0800"/>
<path d="M75.1947 295.092C77.9011 293.532 78.8245 290.062 77.2643 287.355C75.7042 284.649 72.2336 283.726 69.5272 285.286C66.8208 286.846 65.8974 290.316 67.4576 293.023C69.0178 295.729 72.4883 296.653 75.1947 295.092Z" fill="#FF0800"/>
<path d="M72.3791 290.955C71.9652 290.955 71.6309 290.62 71.6309 290.206V228.596C71.6309 228.182 71.9652 227.848 72.3791 227.848C72.793 227.848 73.1273 228.182 73.1273 228.596V290.206C73.1273 290.62 72.793 290.955 72.3791 290.955Z" fill="#FF0800"/>
<path d="M78.0297 290.191C78.0297 293.311 75.4985 295.858 72.3781 295.858C69.2578 295.858 66.7266 293.327 66.7266 290.207C66.7266 287.086 69.2578 284.555 72.3781 284.539C75.4985 284.539 78.0457 287.07 78.0457 290.191H78.0297Z" fill="#FF0800"/>
<path d="M78.03 228.597C78.03 225.477 75.4988 222.93 72.3625 222.93C69.2263 222.93 66.7109 225.461 66.7109 228.597C66.7109 231.718 69.2422 234.249 72.3625 234.249C75.4828 234.249 78.0141 231.718 78.0141 228.597H78.03Z" fill="#FF0800"/>
<path d="M72.3614 229.344C72.234 229.344 72.1066 229.313 71.9793 229.249L18.6473 198.444C18.2811 198.237 18.1697 197.775 18.3766 197.409C18.5836 197.043 19.0453 196.931 19.4115 197.138L72.7435 227.944C73.1096 228.15 73.221 228.612 73.0141 228.978C72.8708 229.217 72.6161 229.36 72.3614 229.36V229.344Z" fill="#FF0800"/>
<path d="M75.1947 223.692C77.9011 225.252 78.8245 228.723 77.2643 231.429C75.7042 234.135 72.2336 235.059 69.5272 233.499C66.8208 231.939 65.8974 228.468 67.4576 225.762C69.0178 223.055 72.4883 222.132 75.1947 223.692Z" fill="#FF0800"/>
<path d="M21.8471 192.887C19.1407 191.327 15.686 192.25 14.1099 194.957C12.5498 197.663 13.4732 201.118 16.1796 202.694C18.886 204.254 22.3406 203.331 23.9166 200.624C25.4768 197.918 24.5535 194.463 21.8471 192.887Z" fill="#FF0800"/>
<path d="M-34.3335 229.345C-34.5883 229.345 -34.843 229.218 -34.9863 228.963C-35.1932 228.597 -35.0658 228.135 -34.7156 227.928L18.6323 197.123C18.9984 196.916 19.4602 197.044 19.6671 197.394C19.8741 197.76 19.7467 198.222 19.3965 198.429L-33.9515 229.234C-34.0629 229.297 -34.2062 229.329 -34.3335 229.329V229.345Z" fill="#FF0800"/>
<path d="M16.1951 192.887C18.9015 191.327 22.3562 192.25 23.9323 194.957C25.4924 197.663 24.5691 201.118 21.8627 202.694C19.1563 204.254 15.7016 203.331 14.1256 200.624C12.5654 197.918 13.4887 194.463 16.1951 192.887Z" fill="#FF0800"/>
<path d="M72.3635 290.955C71.9496 290.955 71.6152 290.62 71.6152 290.206V228.596C71.6152 228.182 71.9496 227.848 72.3635 227.848C72.7774 227.848 73.1117 228.182 73.1117 228.596V290.206C73.1117 290.62 72.7774 290.955 72.3635 290.955Z" fill="#FF0800"/>
<path d="M78.0145 290.191C78.0145 293.311 75.4832 295.843 72.3469 295.843C69.2107 295.843 66.6953 293.311 66.6953 290.191C66.6953 287.071 69.2266 284.523 72.3469 284.523C75.4673 284.523 78.0145 287.055 78.0145 290.191Z" fill="#FF0800"/>
<path d="M78.0145 228.597C78.0145 225.477 75.4832 222.93 72.3469 222.93C69.2107 222.93 66.6953 225.461 66.6953 228.597C66.6953 231.733 69.2266 234.249 72.3469 234.249C75.4673 234.249 78.0145 231.718 78.0145 228.597Z" fill="#FF0800"/>
<path d="M125.709 321.743C125.582 321.743 125.455 321.711 125.327 321.647L71.9793 290.842C71.6132 290.635 71.5017 290.174 71.7087 289.807C71.9156 289.441 72.3773 289.33 72.7435 289.537L126.091 320.342C126.458 320.549 126.569 321.011 126.362 321.377C126.219 321.616 125.964 321.759 125.709 321.759V321.743Z" fill="#FF0800"/>
<path d="M69.5272 295.092C66.8208 293.532 65.8974 290.062 67.4576 287.355C69.0178 284.649 72.4883 283.726 75.1947 285.286C77.9011 286.846 78.8245 290.316 77.2643 293.023C75.7042 295.729 72.2336 296.653 69.5272 295.092Z" fill="#FF0800"/>
<path d="M122.876 325.897C125.582 327.457 129.037 326.534 130.613 323.828C132.173 321.121 131.25 317.666 128.544 316.09C125.837 314.53 122.383 315.454 120.806 318.16C119.23 320.866 120.17 324.321 122.876 325.897Z" fill="#FF0800"/>
<path d="M125.711 321.744C125.457 321.744 125.202 321.616 125.059 321.362C124.852 320.995 124.979 320.534 125.329 320.327L178.677 289.522C179.043 289.315 179.505 289.442 179.712 289.792C179.919 290.158 179.792 290.62 179.441 290.827L126.093 321.632C125.982 321.696 125.839 321.728 125.711 321.728V321.744Z" fill="#FF0800"/>
<path d="M128.544 325.897C125.838 327.457 122.383 326.534 120.807 323.828C119.247 321.121 120.17 317.666 122.877 316.09C125.583 314.53 129.038 315.454 130.614 318.16C132.174 320.866 131.251 324.321 128.544 325.897Z" fill="#FF0800"/>
<path d="M181.892 295.092C184.598 293.532 185.522 290.062 183.962 287.355C182.401 284.649 178.931 283.726 176.224 285.286C173.518 286.846 172.595 290.316 174.155 293.023C175.715 295.729 179.186 296.653 181.892 295.092Z" fill="#FF0800"/>
<path d="M179.059 290.955C178.645 290.955 178.311 290.62 178.311 290.206V228.596C178.311 228.182 178.645 227.848 179.059 227.848C179.473 227.848 179.807 228.182 179.807 228.596V290.206C179.807 290.62 179.473 290.955 179.059 290.955Z" fill="#FF0800"/>
<path d="M184.725 290.191C184.725 293.311 182.194 295.858 179.073 295.858C175.953 295.858 173.422 293.327 173.422 290.207C173.422 287.086 175.953 284.555 179.073 284.539C182.194 284.539 184.725 287.07 184.725 290.191Z" fill="#FF0800"/>
<path d="M184.725 228.597C184.725 225.477 182.194 222.93 179.074 222.93C175.953 222.93 173.406 225.461 173.406 228.597C173.406 231.733 175.938 234.249 179.074 234.249C182.21 234.249 184.725 231.718 184.725 228.597Z" fill="#FF0800"/>
<path d="M179.043 229.344C178.916 229.344 178.788 229.313 178.661 229.249L125.329 198.444C124.963 198.237 124.851 197.775 125.058 197.409C125.265 197.043 125.727 196.931 126.093 197.138L179.425 227.944C179.791 228.15 179.903 228.612 179.696 228.978C179.552 229.217 179.298 229.36 179.043 229.36V229.344Z" fill="#FF0800"/>
<path d="M181.876 223.692C184.583 225.252 185.506 228.723 183.946 231.429C182.386 234.135 178.915 235.059 176.209 233.499C173.502 231.939 172.579 228.468 174.139 225.762C175.699 223.055 179.17 222.132 181.876 223.692Z" fill="#FF0800"/>
<path d="M128.544 192.887C125.838 191.327 122.383 192.25 120.807 194.957C119.247 197.663 120.17 201.118 122.877 202.694C125.583 204.254 129.038 203.331 130.614 200.624C132.174 197.918 131.251 194.463 128.544 192.887Z" fill="#FF0800"/>
<path d="M72.3618 229.345C72.1071 229.345 71.8523 229.218 71.709 228.963C71.5021 228.597 71.6295 228.135 71.9797 227.928L125.328 197.123C125.694 196.916 126.155 197.044 126.362 197.394C126.569 197.76 126.442 198.222 126.092 198.429L72.7439 229.234C72.6324 229.297 72.4891 229.329 72.3618 229.329V229.345Z" fill="#FF0800"/>
<path d="M122.876 192.887C125.582 191.327 129.037 192.25 130.613 194.957C132.173 197.663 131.25 201.118 128.544 202.694C125.837 204.254 122.383 203.331 120.806 200.624C119.23 197.918 120.17 194.463 122.876 192.887Z" fill="#FF0800"/>
<path d="M69.5272 223.692C66.8208 225.252 65.8974 228.723 67.4576 231.429C69.0178 234.135 72.4883 235.059 75.1947 233.499C77.9011 231.939 78.8245 228.468 77.2643 225.762C75.7042 223.055 72.2336 222.132 69.5272 223.692Z" fill="#FF0800"/>
<path d="M-34.3335 414.158C-34.5883 414.158 -34.843 414.03 -34.9863 413.776C-35.1932 413.409 -35.0658 412.948 -34.7156 412.741L18.6323 381.936C18.9984 381.729 19.4602 381.856 19.6671 382.206C19.8741 382.572 19.7467 383.034 19.3965 383.241L-33.9515 414.046C-34.0629 414.11 -34.2062 414.142 -34.3335 414.142V414.158Z" fill="#FF0800"/>
<path d="M21.8471 387.491C24.5535 385.931 25.4768 382.46 23.9166 379.754C22.3565 377.047 18.886 376.124 16.1796 377.684C13.4732 379.244 12.5498 382.715 14.1099 385.421C15.6701 388.128 19.1407 389.051 21.8471 387.491Z" fill="#FF0800"/>
<path d="M19.0158 383.353C18.6019 383.353 18.2676 383.019 18.2676 382.605V320.994C18.2676 320.58 18.6019 320.246 19.0158 320.246C19.4297 320.246 19.7641 320.58 19.7641 320.994V382.605C19.7641 383.019 19.4297 383.353 19.0158 383.353Z" fill="#FF0800"/>
<path d="M24.6824 382.605C24.6824 385.725 22.1511 388.256 19.0308 388.272C15.9105 388.272 13.3633 385.741 13.3633 382.605C13.3633 379.468 15.8946 376.953 19.0149 376.953C22.1352 376.953 24.6665 379.484 24.6665 382.605H24.6824Z" fill="#FF0800"/>
<path d="M24.6821 320.996C24.6821 317.875 22.1508 315.328 19.0305 315.328C15.9102 315.328 13.3789 317.859 13.3789 320.996C13.3789 324.132 15.9102 326.647 19.0305 326.647C22.1508 326.647 24.6821 324.116 24.6821 320.996Z" fill="#FF0800"/>
<path d="M19.0137 321.743C18.8863 321.743 18.759 321.711 18.6316 321.647L-34.7004 290.842C-35.0666 290.635 -35.178 290.174 -34.971 289.807C-34.7641 289.441 -34.3024 289.33 -33.9362 289.537L19.3958 320.342C19.7619 320.549 19.8734 321.011 19.6664 321.377C19.5232 321.616 19.2684 321.759 19.0137 321.759V321.743Z" fill="#FF0800"/>
<path d="M21.8314 316.09C24.5378 317.651 25.4611 321.121 23.901 323.828C22.3408 326.534 18.8703 327.457 16.1639 325.897C13.4575 324.337 12.5342 320.866 14.0943 318.16C15.6545 315.454 19.125 314.53 21.8314 316.09Z" fill="#FF0800"/>
<path d="M19.0139 383.353C18.5999 383.353 18.2656 383.019 18.2656 382.605V320.994C18.2656 320.58 18.5999 320.246 19.0139 320.246C19.4278 320.246 19.7621 320.58 19.7621 320.994V382.605C19.7621 383.019 19.4278 383.353 19.0139 383.353Z" fill="#FF0800"/>
<path d="M24.6648 382.605C24.6648 385.725 22.1335 388.272 19.0132 388.272C15.8929 388.272 13.3457 385.741 13.3457 382.605C13.3457 379.468 15.877 376.953 19.0132 376.953C22.1495 376.953 24.6648 379.484 24.6648 382.605Z" fill="#FF0800"/>
<path d="M24.6648 320.996C24.6648 317.875 22.1335 315.328 19.0132 315.328C15.8929 315.328 13.3457 317.859 13.3457 320.996C13.3457 324.132 15.877 326.647 19.0132 326.647C22.1495 326.647 24.6648 324.116 24.6648 320.996Z" fill="#FF0800"/>
<path d="M72.3616 414.157C72.2343 414.157 72.1069 414.125 71.9796 414.061L18.6316 383.256C18.2655 383.049 18.1541 382.588 18.361 382.221C18.568 381.855 19.0296 381.744 19.3958 381.951L72.7437 412.756C73.1099 412.963 73.2213 413.425 73.0144 413.791C72.8711 414.03 72.6163 414.173 72.3616 414.173V414.157Z" fill="#FF0800"/>
<path d="M16.1796 387.491C13.4732 385.931 12.5498 382.46 14.1099 379.754C15.6701 377.047 19.1407 376.124 21.8471 377.684C24.5535 379.244 25.4768 382.715 23.9166 385.421C22.3565 388.128 18.886 389.051 16.1796 387.491Z" fill="#FF0800"/>
<path d="M69.5272 418.296C72.2336 419.856 75.6882 418.932 77.2643 416.226C78.8245 413.52 77.9011 410.065 75.1947 408.489C72.4883 406.929 69.0337 407.852 67.4576 410.558C65.8974 413.265 66.8208 416.719 69.5272 418.296Z" fill="#FF0800"/>
<path d="M72.3618 414.158C72.1071 414.158 71.8523 414.03 71.709 413.776C71.5021 413.409 71.6295 412.948 71.9797 412.741L125.328 381.936C125.694 381.729 126.155 381.856 126.362 382.206C126.569 382.572 126.442 383.034 126.092 383.241L72.7439 414.046C72.6324 414.11 72.4891 414.142 72.3618 414.142V414.158Z" fill="#FF0800"/>
<path d="M75.1947 418.296C72.4883 419.856 69.0337 418.932 67.4576 416.226C65.8974 413.52 66.8208 410.065 69.5272 408.489C72.2336 406.929 75.6882 407.852 77.2643 410.558C78.8245 413.265 77.9011 416.719 75.1947 418.296Z" fill="#FF0800"/>
<path d="M128.542 387.491C131.249 385.931 132.172 382.46 130.612 379.754C129.052 377.047 125.581 376.124 122.875 377.684C120.168 379.244 119.245 382.715 120.805 385.421C122.365 388.128 125.836 389.051 128.542 387.491Z" fill="#FF0800"/>
<path d="M125.711 383.353C125.297 383.353 124.963 383.019 124.963 382.605V320.994C124.963 320.58 125.297 320.246 125.711 320.246C126.125 320.246 126.459 320.58 126.459 320.994V382.605C126.459 383.019 126.125 383.353 125.711 383.353Z" fill="#FF0800"/>
<path d="M131.362 382.605C131.362 385.725 128.831 388.256 125.695 388.272C122.574 388.272 120.043 385.741 120.043 382.605C120.043 379.484 122.574 376.953 125.695 376.953C128.815 376.953 131.346 379.484 131.362 382.605Z" fill="#FF0800"/>
<path d="M131.362 320.996C131.362 317.875 128.831 315.328 125.71 315.328C122.59 315.328 120.043 317.859 120.043 320.996C120.043 324.116 122.574 326.647 125.71 326.647C128.847 326.647 131.362 324.116 131.362 320.996Z" fill="#FF0800"/>
<path d="M125.693 321.743C125.566 321.743 125.439 321.711 125.311 321.647L71.9793 290.842C71.6132 290.635 71.5017 290.174 71.7087 289.807C71.9156 289.441 72.3773 289.33 72.7435 289.537L126.075 320.342C126.442 320.549 126.553 321.011 126.346 321.377C126.203 321.616 125.948 321.759 125.693 321.759V321.743Z" fill="#FF0800"/>
<path d="M128.527 316.09C131.233 317.651 132.157 321.121 130.596 323.828C129.036 326.534 125.566 327.457 122.859 325.897C120.153 324.337 119.229 320.866 120.79 318.16C122.35 315.454 125.82 314.53 128.527 316.09Z" fill="#FF0800"/>
<path d="M75.1947 285.286C72.4883 283.726 69.0337 284.649 67.4576 287.355C65.8974 290.062 66.8208 293.516 69.5272 295.092C72.2336 296.653 75.6882 295.729 77.2643 293.023C78.8245 290.316 77.9011 286.862 75.1947 285.286Z" fill="#FF0800"/>
<path d="M19.0141 321.744C18.7594 321.744 18.5047 321.616 18.3614 321.362C18.1544 320.995 18.2818 320.534 18.632 320.327L71.98 289.522C72.3461 289.315 72.8078 289.442 73.0147 289.792C73.2217 290.158 73.0944 290.62 72.7441 290.827L19.3962 321.632C19.2848 321.696 19.1415 321.728 19.0141 321.728V321.744Z" fill="#FF0800"/>
<path d="M69.5272 285.286C72.2336 283.726 75.6882 284.649 77.2643 287.355C78.8245 290.062 77.9011 293.516 75.1947 295.092C72.4883 296.653 69.0337 295.729 67.4576 293.023C65.8974 290.316 66.8208 286.862 69.5272 285.286Z" fill="#FF0800"/>
<path d="M16.1796 316.09C13.4732 317.651 12.5498 321.121 14.1099 323.828C15.6701 326.534 19.1407 327.457 21.8471 325.897C24.5535 324.337 25.4768 320.866 23.9166 318.16C22.3565 315.454 18.886 314.53 16.1796 316.09Z" fill="#FF0800"/>
<path d="M19.014 506.56C18.8866 506.56 18.7593 506.528 18.6319 506.464L-34.716 475.659C-35.0822 475.452 -35.1936 474.99 -34.9867 474.624C-34.7797 474.274 -34.318 474.147 -33.9519 474.354L19.3961 505.159C19.7622 505.366 19.8737 505.827 19.6667 506.194C19.5234 506.432 19.2687 506.576 19.014 506.576V506.56Z" fill="#FF0800"/>
<path d="M16.1951 510.713C18.9015 512.274 22.3562 511.35 23.9323 508.644C25.4924 505.938 24.5691 502.483 21.8627 500.907C19.1563 499.347 15.7016 500.27 14.1256 502.976C12.5654 505.683 13.4887 509.137 16.1951 510.713Z" fill="#FF0800"/>
<path d="M19.0141 506.56C18.7594 506.56 18.5047 506.433 18.3614 506.178C18.1544 505.812 18.2818 505.35 18.632 505.143L71.98 474.338C72.3461 474.131 72.8078 474.258 73.0147 474.609C73.2217 474.975 73.0944 475.436 72.7441 475.643L19.3962 506.449C19.2848 506.512 19.1415 506.544 19.0141 506.544V506.56Z" fill="#FF0800"/>
<path d="M21.8471 510.713C19.1407 512.274 15.686 511.35 14.1099 508.644C12.5498 505.938 13.4732 502.483 16.1796 500.907C18.886 499.347 22.3406 500.27 23.9166 502.976C25.4927 505.683 24.5535 509.137 21.8471 510.713Z" fill="#FF0800"/>
<path d="M75.1947 479.909C77.9011 478.349 78.8245 474.878 77.2643 472.172C75.7042 469.465 72.2336 468.542 69.5272 470.102C66.8208 471.662 65.8974 475.133 67.4576 477.839C69.0178 480.546 72.4883 481.469 75.1947 479.909Z" fill="#FF0800"/>
<path d="M72.3791 475.751C71.9652 475.751 71.6309 475.417 71.6309 475.003V413.393C71.6309 412.979 71.9652 412.645 72.3791 412.645C72.793 412.645 73.1273 412.979 73.1273 413.393V475.003C73.1273 475.417 72.793 475.751 72.3791 475.751Z" fill="#FF0800"/>
<path d="M78.0297 475.003C78.0297 478.123 75.4985 480.671 72.3781 480.671C69.2578 480.671 66.7266 478.139 66.7266 475.019C66.7266 471.899 69.2578 469.352 72.3781 469.352C75.4985 469.352 78.0457 471.883 78.0457 475.003H78.0297Z" fill="#FF0800"/>
<path d="M78.03 413.394C78.03 410.273 75.4988 407.742 72.3625 407.742C69.2263 407.742 66.7109 410.273 66.7109 413.41C66.7109 416.53 69.2422 419.061 72.3625 419.061C75.4828 419.061 78.0141 416.53 78.0141 413.394H78.03Z" fill="#FF0800"/>
<path d="M72.3614 414.161C72.234 414.161 72.1066 414.129 71.9793 414.065L18.6473 383.26C18.2811 383.053 18.1697 382.592 18.3766 382.225C18.5836 381.859 19.0453 381.748 19.4115 381.955L72.7435 412.76C73.1096 412.967 73.221 413.429 73.0141 413.795C72.8708 414.034 72.6161 414.177 72.3614 414.177V414.161Z" fill="#FF0800"/>
<path d="M75.1947 408.508C77.9011 410.069 78.8245 413.539 77.2643 416.245C75.7042 418.952 72.2336 419.875 69.5272 418.315C66.8208 416.755 65.8974 413.284 67.4576 410.578C69.0178 407.872 72.4883 406.948 75.1947 408.508Z" fill="#FF0800"/>
<path d="M21.8471 377.704C19.1407 376.144 15.686 377.067 14.1099 379.773C12.5498 382.48 13.4732 385.934 16.1796 387.51C18.886 389.071 22.3406 388.147 23.9166 385.441C25.4927 382.734 24.5535 379.28 21.8471 377.704Z" fill="#FF0800"/>
<path d="M-34.3335 414.162C-34.5883 414.162 -34.843 414.034 -34.9863 413.78C-35.1932 413.413 -35.0658 412.952 -34.7156 412.745L18.6323 381.94C18.9984 381.733 19.4602 381.86 19.6671 382.21C19.8741 382.576 19.7467 383.038 19.3965 383.245L-33.9515 414.05C-34.0629 414.114 -34.2062 414.146 -34.3335 414.146V414.162Z" fill="#FF0800"/>
<path d="M16.1951 377.704C18.9015 376.144 22.3562 377.067 23.9323 379.773C25.4924 382.48 24.5691 385.934 21.8627 387.51C19.1563 389.071 15.7016 388.147 14.1256 385.441C12.5654 382.734 13.4887 379.28 16.1951 377.704Z" fill="#FF0800"/>
<path d="M72.3635 475.751C71.9496 475.751 71.6152 475.417 71.6152 475.003V413.393C71.6152 412.979 71.9496 412.645 72.3635 412.645C72.7774 412.645 73.1117 412.979 73.1117 413.393V475.003C73.1117 475.417 72.7774 475.751 72.3635 475.751Z" fill="#FF0800"/>
<path d="M78.0145 475.003C78.0145 478.124 75.4832 480.655 72.3469 480.655C69.2107 480.655 66.6953 478.124 66.6953 475.003C66.6953 471.883 69.2266 469.336 72.3469 469.336C75.4673 469.336 78.0145 471.867 78.0145 475.003Z" fill="#FF0800"/>
<path d="M78.0145 413.394C78.0145 410.273 75.4832 407.742 72.3469 407.742C69.2107 407.742 66.6953 410.273 66.6953 413.394C66.6953 416.514 69.2266 419.061 72.3469 419.061C75.4673 419.061 78.0145 416.53 78.0145 413.394Z" fill="#FF0800"/>
<path d="M125.709 506.56C125.582 506.56 125.455 506.528 125.327 506.464L71.9793 475.659C71.6132 475.452 71.5017 474.99 71.7087 474.624C71.9156 474.274 72.3773 474.147 72.7435 474.354L126.091 505.159C126.458 505.366 126.569 505.827 126.362 506.194C126.219 506.432 125.964 506.576 125.709 506.576V506.56Z" fill="#FF0800"/>
<path d="M69.5272 479.909C66.8208 478.349 65.8974 474.878 67.4576 472.172C69.0178 469.465 72.4883 468.542 75.1947 470.102C77.9011 471.662 78.8245 475.133 77.2643 477.839C75.7042 480.546 72.2336 481.469 69.5272 479.909Z" fill="#FF0800"/>
<path d="M122.876 510.713C125.582 512.274 129.037 511.35 130.613 508.644C132.173 505.938 131.25 502.483 128.544 500.907C125.837 499.347 122.383 500.27 120.806 502.976C119.23 505.683 120.17 509.137 122.876 510.713Z" fill="#FF0800"/>
<path d="M179.059 475.751C178.645 475.751 178.311 475.417 178.311 475.003V413.393C178.311 412.979 178.645 412.645 179.059 412.645C179.473 412.645 179.807 412.979 179.807 413.393V475.003C179.807 475.417 179.473 475.751 179.059 475.751Z" fill="#FF0800"/>
<path d="M184.725 475.003C184.725 478.123 182.194 480.671 179.073 480.671C175.953 480.671 173.422 478.139 173.422 475.019C173.422 471.899 175.953 469.352 179.073 469.352C182.194 469.352 184.725 471.883 184.725 475.003Z" fill="#FF0800"/>
<path d="M184.725 413.394C184.725 410.273 182.194 407.742 179.074 407.742C175.953 407.742 173.406 410.273 173.406 413.41C173.406 416.546 175.938 419.061 179.074 419.061C182.21 419.061 184.725 416.53 184.725 413.394Z" fill="#FF0800"/>
<path d="M179.043 414.161C178.916 414.161 178.788 414.129 178.661 414.065L125.329 383.26C124.963 383.053 124.851 382.592 125.058 382.225C125.265 381.859 125.727 381.748 126.093 381.955L179.425 412.76C179.791 412.967 179.903 413.429 179.696 413.795C179.552 414.034 179.298 414.177 179.043 414.177V414.161Z" fill="#FF0800"/>
<path d="M181.876 408.508C184.583 410.069 185.506 413.539 183.946 416.245C182.386 418.952 178.915 419.875 176.209 418.315C173.502 416.755 172.579 413.284 174.139 410.578C175.699 407.872 179.17 406.948 181.876 408.508Z" fill="#FF0800"/>
<path d="M128.544 377.704C125.838 376.144 122.383 377.067 120.807 379.773C119.247 382.48 120.17 385.934 122.877 387.51C125.583 389.071 129.038 388.147 130.614 385.441C132.174 382.734 131.251 379.28 128.544 377.704Z" fill="#FF0800"/>
<path d="M19.0158 568.154C18.6019 568.154 18.2676 567.819 18.2676 567.406V505.795C18.2676 505.381 18.6019 505.047 19.0158 505.047C19.4297 505.047 19.7641 505.381 19.7641 505.795V567.406C19.7641 567.819 19.4297 568.154 19.0158 568.154Z" fill="#FF0800"/>
<path d="M24.6824 567.406C24.6824 570.526 22.1511 573.073 19.0308 573.073C15.9105 573.073 13.3633 570.542 13.3633 567.421C13.3633 564.301 15.8946 561.77 19.0149 561.754C22.1352 561.754 24.6665 564.285 24.6665 567.406H24.6824Z" fill="#FF0800"/>
<path d="M24.6821 505.812C24.6821 502.691 22.1508 500.16 19.0305 500.16C15.9102 500.16 13.3789 502.691 13.3789 505.828C13.3789 508.964 15.9102 511.479 19.0305 511.479C22.1508 511.479 24.6821 508.948 24.6821 505.812Z" fill="#FF0800"/>
<path d="M19.0137 506.56C18.8863 506.56 18.759 506.528 18.6316 506.464L-34.7004 475.659C-35.0666 475.452 -35.178 474.99 -34.971 474.624C-34.7641 474.274 -34.3024 474.147 -33.9362 474.354L19.3958 505.159C19.7619 505.366 19.8734 505.827 19.6664 506.194C19.5232 506.432 19.2684 506.576 19.0137 506.576V506.56Z" fill="#FF0800"/>
<path d="M21.8314 500.907C24.5378 502.467 25.4611 505.938 23.901 508.644C22.3408 511.35 18.8703 512.274 16.1639 510.713C13.4575 509.153 12.5342 505.683 14.0943 502.976C15.6545 500.27 19.125 499.347 21.8314 500.907Z" fill="#FF0800"/>
<path d="M19.0139 568.154C18.5999 568.154 18.2656 567.819 18.2656 567.406V505.795C18.2656 505.381 18.5999 505.047 19.0139 505.047C19.4278 505.047 19.7621 505.381 19.7621 505.795V567.406C19.7621 567.819 19.4278 568.154 19.0139 568.154Z" fill="#FF0800"/>
<path d="M24.6648 567.406C24.6648 570.526 22.1335 573.057 19.0132 573.057C15.8929 573.057 13.3457 570.526 13.3457 567.406C13.3457 564.285 15.877 561.738 19.0132 561.738C22.1495 561.738 24.6648 564.27 24.6648 567.406Z" fill="#FF0800"/>
<path d="M24.6648 505.812C24.6648 502.692 22.1335 500.145 19.0132 500.145C15.8929 500.145 13.3457 502.676 13.3457 505.812C13.3457 508.948 15.877 511.464 19.0132 511.464C22.1495 511.464 24.6648 508.932 24.6648 505.812Z" fill="#FF0800"/>
<path d="M72.3616 598.958C72.2343 598.958 72.1069 598.926 71.9796 598.862L18.6316 568.057C18.2655 567.85 18.1541 567.388 18.361 567.022C18.568 566.656 19.0296 566.545 19.3958 566.752L72.7437 597.557C73.1099 597.764 73.2213 598.225 73.0144 598.592C72.8711 598.83 72.6163 598.974 72.3616 598.974V598.958Z" fill="#FF0800"/>
<path d="M16.1796 572.307C13.4732 570.747 12.5498 567.277 14.1099 564.57C15.6701 561.864 19.1407 560.94 21.8471 562.501C24.5535 564.061 25.4768 567.531 23.9166 570.238C22.3565 572.944 18.886 573.867 16.1796 572.307Z" fill="#FF0800"/>
<path d="M69.5272 603.112C72.2336 604.672 75.6882 603.749 77.2643 601.042C78.8245 598.336 77.9011 594.881 75.1947 593.305C72.4883 591.745 69.0337 592.668 67.4576 595.375C65.8974 598.081 66.8208 601.536 69.5272 603.112Z" fill="#FF0800"/>
<path d="M72.3618 598.959C72.1071 598.959 71.8523 598.831 71.709 598.576C71.5021 598.21 71.6295 597.749 71.9797 597.542L125.328 566.736C125.694 566.529 126.155 566.657 126.362 567.007C126.569 567.373 126.442 567.835 126.092 568.042L72.7439 598.847C72.6324 598.911 72.4891 598.943 72.3618 598.943V598.959Z" fill="#FF0800"/>
<path d="M75.1947 603.111C72.4883 604.671 69.0337 603.748 67.4576 601.042C65.8974 598.335 66.8208 594.881 69.5272 593.304C72.2336 591.728 75.6882 592.668 77.2643 595.374C78.8245 598.081 77.9011 601.535 75.1947 603.111Z" fill="#FF0800"/>
<path d="M128.542 572.307C131.249 570.747 132.172 567.277 130.612 564.57C129.052 561.864 125.581 560.94 122.875 562.501C120.168 564.061 119.245 567.531 120.805 570.238C122.365 572.944 125.836 573.867 128.542 572.307Z" fill="#FF0800"/>
<path d="M125.711 568.154C125.297 568.154 124.963 567.819 124.963 567.406V505.795C124.963 505.381 125.297 505.047 125.711 505.047C126.125 505.047 126.459 505.381 126.459 505.795V567.406C126.459 567.819 126.125 568.154 125.711 568.154Z" fill="#FF0800"/>
<path d="M131.362 567.406C131.362 570.526 128.831 573.073 125.695 573.073C122.558 573.073 120.043 570.542 120.043 567.421C120.043 564.301 122.574 561.77 125.695 561.754C128.815 561.754 131.346 564.285 131.362 567.406Z" fill="#FF0800"/>
<path d="M131.362 505.812C131.362 502.691 128.831 500.16 125.71 500.16C122.59 500.16 120.043 502.691 120.043 505.828C120.043 508.948 122.574 511.479 125.71 511.479C128.847 511.479 131.362 508.948 131.362 505.812Z" fill="#FF0800"/>
<path d="M125.693 506.56C125.566 506.56 125.439 506.528 125.311 506.464L71.9793 475.659C71.6132 475.452 71.5017 474.99 71.7087 474.624C71.9156 474.274 72.3773 474.147 72.7435 474.354L126.075 505.159C126.442 505.366 126.553 505.827 126.346 506.194C126.203 506.432 125.948 506.576 125.693 506.576V506.56Z" fill="#FF0800"/>
<path d="M128.527 500.907C131.233 502.467 132.157 505.938 130.596 508.644C129.036 511.35 125.566 512.274 122.859 510.713C120.153 509.153 119.229 505.683 120.79 502.976C122.35 500.27 125.82 499.347 128.527 500.907Z" fill="#FF0800"/>
<path d="M75.1947 470.102C72.4883 468.542 69.0337 469.465 67.4576 472.172C65.8974 474.878 66.8208 478.333 69.5272 479.909C72.2336 481.469 75.6882 480.546 77.2643 477.839C78.8245 475.133 77.9011 471.678 75.1947 470.102Z" fill="#FF0800"/>
<path d="M19.0141 506.56C18.7594 506.56 18.5047 506.433 18.3614 506.178C18.1544 505.812 18.2818 505.35 18.632 505.143L71.98 474.338C72.3461 474.131 72.8078 474.258 73.0147 474.609C73.2217 474.975 73.0944 475.436 72.7441 475.643L19.3962 506.449C19.2848 506.512 19.1415 506.544 19.0141 506.544V506.56Z" fill="#FF0800"/>
<path d="M69.5272 470.102C72.2336 468.542 75.6882 469.465 77.2643 472.172C78.8245 474.878 77.9011 478.333 75.1947 479.909C72.4883 481.469 69.0337 480.546 67.4576 477.839C65.8974 475.133 66.8208 471.678 69.5272 470.102Z" fill="#FF0800"/>
<path d="M16.1796 500.907C13.4732 502.467 12.5498 505.938 14.1099 508.644C15.6701 511.35 19.1407 512.274 21.8471 510.713C24.5535 509.153 25.4768 505.683 23.9166 502.976C22.3565 500.27 18.886 499.347 16.1796 500.907Z" fill="#FF0800"/>
<path d="M72.3791 660.568C71.9652 660.568 71.6309 660.233 71.6309 659.82V598.209C71.6309 597.795 71.9652 597.461 72.3791 597.461C72.793 597.461 73.1273 597.795 73.1273 598.209V659.82C73.1273 660.233 72.793 660.568 72.3791 660.568Z" fill="#FF0800"/>
<path d="M78.0297 659.82C78.0297 662.94 75.4985 665.471 72.3781 665.487C69.2578 665.487 66.7266 662.956 66.7266 659.82C66.7266 656.683 69.2578 654.168 72.3781 654.168C75.4985 654.168 78.0457 656.699 78.0457 659.82H78.0297Z" fill="#FF0800"/>
<path d="M78.03 598.21C78.03 595.09 75.4988 592.543 72.3625 592.559C69.2422 592.559 66.7109 595.09 66.7109 598.226C66.7109 601.347 69.2422 603.878 72.3625 603.878C75.4828 603.878 78.0141 601.347 78.0141 598.226L78.03 598.21Z" fill="#FF0800"/>
<path d="M72.3614 598.958C72.234 598.958 72.1066 598.926 71.9793 598.862L18.6473 568.057C18.2811 567.85 18.1697 567.388 18.3766 567.022C18.5836 566.656 19.0453 566.545 19.4115 566.752L72.7435 597.557C73.1096 597.764 73.221 598.225 73.0141 598.592C72.8708 598.83 72.6161 598.974 72.3614 598.974V598.958Z" fill="#FF0800"/>
<path d="M75.1947 593.305C77.9011 594.865 78.8245 598.336 77.2643 601.042C75.7042 603.749 72.2336 604.672 69.5272 603.112C66.8208 601.552 65.8974 598.081 67.4576 595.375C69.0178 592.668 72.4883 591.745 75.1947 593.305Z" fill="#FF0800"/>
<path d="M21.8471 562.501C19.1407 560.94 15.686 561.864 14.1099 564.57C12.5498 567.277 13.4732 570.731 16.1796 572.307C18.886 573.867 22.3406 572.944 23.9166 570.238C25.4768 567.531 24.5535 564.077 21.8471 562.501Z" fill="#FF0800"/>
<path d="M72.3635 660.568C71.9496 660.568 71.6152 660.233 71.6152 659.82V598.209C71.6152 597.795 71.9496 597.461 72.3635 597.461C72.7774 597.461 73.1117 597.795 73.1117 598.209V659.82C73.1117 660.233 72.7774 660.568 72.3635 660.568Z" fill="#FF0800"/>
<path d="M78.0145 659.82C78.0145 662.94 75.4832 665.487 72.3469 665.487C69.2107 665.487 66.6953 662.956 66.6953 659.82C66.6953 656.683 69.2266 654.168 72.3469 654.168C75.4673 654.168 78.0145 656.699 78.0145 659.82Z" fill="#FF0800"/>
<path d="M78.0145 598.21C78.0145 595.09 75.4832 592.559 72.3469 592.559C69.2107 592.559 66.6953 595.09 66.6953 598.21C66.6953 601.331 69.2266 603.862 72.3469 603.862C75.4673 603.862 78.0145 601.331 78.0145 598.21Z" fill="#FF0800"/>
<path d="M125.709 691.376C125.582 691.376 125.455 691.344 125.327 691.28L71.9793 660.475C71.6132 660.268 71.5017 659.806 71.7087 659.44C71.9156 659.074 72.3773 658.963 72.7435 659.17L126.091 689.975C126.458 690.182 126.569 690.643 126.362 691.01C126.219 691.248 125.964 691.392 125.709 691.392V691.376Z" fill="#FF0800"/>
<path d="M69.5272 664.71C66.8208 663.149 65.8974 659.679 67.4576 656.973C69.0178 654.266 72.4883 653.343 75.1947 654.903C77.9011 656.463 78.8245 659.934 77.2643 662.64C75.7042 665.346 72.2336 666.27 69.5272 664.71Z" fill="#FF0800"/>
<path d="M122.876 695.514C125.582 697.074 129.037 696.151 130.613 693.445C132.173 690.738 131.25 687.284 128.544 685.708C125.837 684.147 122.383 685.071 120.806 687.777C119.23 690.484 120.17 693.938 122.876 695.514Z" fill="#FF0800"/>
<path d="M125.711 691.376C125.457 691.376 125.202 691.249 125.059 690.994C124.852 690.628 124.979 690.167 125.329 689.96L178.677 659.154C179.043 658.947 179.505 659.075 179.712 659.425C179.919 659.791 179.792 660.253 179.441 660.46L126.093 691.265C125.982 691.329 125.839 691.361 125.711 691.361V691.376Z" fill="#FF0800"/>
<path d="M128.544 695.514C125.838 697.074 122.383 696.151 120.807 693.445C119.247 690.738 120.17 687.284 122.877 685.708C125.583 684.147 129.038 685.071 130.614 687.777C132.174 690.484 131.251 693.938 128.544 695.514Z" fill="#FF0800"/>
<path d="M181.892 664.71C184.598 663.149 185.522 659.679 183.962 656.973C182.401 654.266 178.931 653.343 176.224 654.903C173.518 656.463 172.595 659.934 174.155 662.64C175.715 665.346 179.186 666.27 181.892 664.71Z" fill="#FF0800"/>
<path d="M179.059 660.568C178.645 660.568 178.311 660.233 178.311 659.82V598.209C178.311 597.795 178.645 597.461 179.059 597.461C179.473 597.461 179.807 597.795 179.807 598.209V659.82C179.807 660.233 179.473 660.568 179.059 660.568Z" fill="#FF0800"/>
<path d="M184.725 659.82C184.725 662.94 182.194 665.471 179.073 665.487C175.953 665.487 173.422 662.956 173.422 659.82C173.422 656.683 175.953 654.168 179.073 654.168C182.194 654.168 184.725 656.699 184.725 659.82Z" fill="#FF0800"/>
<path d="M184.725 598.21C184.725 595.09 182.194 592.543 179.074 592.559C175.953 592.559 173.406 595.09 173.406 598.226C173.406 601.362 175.938 603.878 179.074 603.878C182.21 603.878 184.725 601.347 184.725 598.226V598.21Z" fill="#FF0800"/>
<path d="M179.043 598.958C178.916 598.958 178.788 598.926 178.661 598.862L125.329 568.057C124.963 567.85 124.851 567.388 125.058 567.022C125.265 566.656 125.727 566.545 126.093 566.752L179.425 597.557C179.791 597.764 179.903 598.225 179.696 598.592C179.552 598.83 179.298 598.974 179.043 598.974V598.958Z" fill="#FF0800"/>
<path d="M181.876 593.305C184.583 594.865 185.506 598.336 183.946 601.042C182.386 603.749 178.915 604.672 176.209 603.112C173.502 601.552 172.579 598.081 174.139 595.375C175.699 592.668 179.17 591.745 181.876 593.305Z" fill="#FF0800"/>
<path d="M128.544 562.501C125.838 560.94 122.383 561.864 120.807 564.57C119.247 567.277 120.17 570.731 122.877 572.307C125.583 573.867 129.038 572.944 130.614 570.238C132.174 567.531 131.251 564.077 128.544 562.501Z" fill="#FF0800"/>
<path d="M72.3618 598.959C72.1071 598.959 71.8523 598.831 71.709 598.576C71.5021 598.21 71.6295 597.749 71.9797 597.542L125.328 566.736C125.694 566.529 126.155 566.657 126.362 567.007C126.569 567.373 126.442 567.835 126.092 568.042L72.7439 598.847C72.6324 598.911 72.4891 598.943 72.3618 598.943V598.959Z" fill="#FF0800"/>
<path d="M122.876 562.501C125.582 560.94 129.037 561.864 130.613 564.57C132.173 567.277 131.25 570.731 128.544 572.307C125.837 573.867 122.383 572.944 120.806 570.238C119.23 567.531 120.17 564.077 122.876 562.501Z" fill="#FF0800"/>
<path d="M69.5272 593.305C66.8208 594.865 65.8974 598.336 67.4576 601.042C69.0178 603.749 72.4883 604.672 75.1947 603.112C77.9011 601.552 78.8245 598.081 77.2643 595.375C75.7042 592.668 72.2336 591.745 69.5272 593.305Z" fill="#FF0800"/>
<path d="M125.711 752.966C125.297 752.966 124.963 752.632 124.963 752.218V690.623C124.963 690.209 125.297 689.875 125.711 689.875C126.125 689.875 126.459 690.209 126.459 690.623V752.218C126.459 752.632 126.125 752.966 125.711 752.966Z" fill="#FF0800"/>
<path d="M131.362 752.218C131.362 755.338 128.831 757.886 125.695 757.886C122.558 757.886 120.043 755.354 120.043 752.218C120.043 749.098 122.574 746.566 125.695 746.566C128.815 746.566 131.346 749.098 131.362 752.218Z" fill="#FF0800"/>
<path d="M131.362 690.609C131.362 687.488 128.831 684.957 125.71 684.957C122.59 684.957 120.043 687.488 120.043 690.625C120.043 693.745 122.574 696.276 125.71 696.276C128.847 696.276 131.362 693.745 131.362 690.609Z" fill="#FF0800"/>
<path d="M125.693 691.376C125.566 691.376 125.439 691.344 125.311 691.28L71.9793 660.475C71.6132 660.268 71.5017 659.806 71.7087 659.44C71.9156 659.074 72.3773 658.963 72.7435 659.17L126.075 689.975C126.442 690.182 126.553 690.643 126.346 691.01C126.203 691.248 125.948 691.392 125.693 691.392V691.376Z" fill="#FF0800"/>
<path d="M128.527 685.708C131.233 687.268 132.157 690.738 130.596 693.445C129.036 696.151 125.566 697.074 122.859 695.514C120.153 693.954 119.229 690.484 120.79 687.777C122.35 685.071 125.82 684.147 128.527 685.708Z" fill="#FF0800"/>
<path d="M75.1947 654.919C72.4883 653.358 69.0337 654.282 67.4576 656.988C65.8974 659.695 66.8208 663.149 69.5272 664.725C72.2336 666.285 75.6882 665.362 77.2643 662.656C78.8245 659.949 77.9011 656.495 75.1947 654.919Z" fill="#FF0800"/>
<path d="M179.043 783.774C178.916 783.774 178.788 783.742 178.661 783.679L125.329 752.873C124.963 752.667 124.851 752.205 125.058 751.839C125.265 751.473 125.727 751.361 126.093 751.568L179.425 782.373C179.791 782.58 179.903 783.042 179.696 783.408C179.552 783.647 179.298 783.79 179.043 783.79V783.774Z" fill="#FF0800"/>
<path d="M181.876 778.122C184.583 779.682 185.506 783.152 183.946 785.859C182.386 788.565 178.915 789.489 176.209 787.928C173.502 786.368 172.579 782.898 174.139 780.191C175.699 777.485 179.17 776.561 181.876 778.122Z" fill="#FF0800"/>
<path d="M128.544 747.317C125.838 745.757 122.383 746.68 120.807 749.387C119.247 752.093 120.17 755.548 122.877 757.124C125.583 758.684 129.038 757.76 130.614 755.054C132.174 752.348 131.251 748.893 128.544 747.317Z" fill="#FF0800"/>
</g>
</svg>
